<mxfile host="Electron" modified="2024-01-28T14:30:02.982Z" agent="Mozilla/5.0 (Windows NT 10.0; Win64; x64) AppleWebKit/537.36 (KHTML, like Gecko) draw.io/23.0.2 Chrome/120.0.6099.109 Electron/28.1.0 Safari/537.36" etag="UNVvwPhbUJ2KS8nCwknz" version="23.0.2" type="device" pages="3">
  <diagram name="User Scope Sketch" id="ZFqf4F07cLo4Xny-zGI9">
    <mxGraphModel dx="5200" dy="5660" grid="1" gridSize="10" guides="1" tooltips="1" connect="1" arrows="1" fold="1" page="0" pageScale="1" pageWidth="1000" pageHeight="1000" background="none" math="0" shadow="0">
      <root>
        <mxCell id="0" />
        <mxCell id="1" parent="0" />
        <mxCell id="atzE-QTI6D4-yrtHeOuO-23" style="edgeStyle=orthogonalEdgeStyle;rounded=0;sketch=1;hachureGap=4;jiggle=2;curveFitting=1;orthogonalLoop=1;jettySize=auto;html=1;entryX=0.5;entryY=0;entryDx=0;entryDy=0;fontFamily=Architects Daughter;fontSource=https%3A%2F%2Ffonts.googleapis.com%2Fcss%3Ffamily%3DArchitects%2BDaughter;fontSize=16;" parent="1" source="ac9yo2sE0G0vk5C2mC0_-3" target="ac9yo2sE0G0vk5C2mC0_-5" edge="1">
          <mxGeometry relative="1" as="geometry">
            <Array as="points">
              <mxPoint x="1370" y="-200" />
              <mxPoint x="1650" y="-200" />
            </Array>
          </mxGeometry>
        </mxCell>
        <mxCell id="atzE-QTI6D4-yrtHeOuO-24" style="edgeStyle=orthogonalEdgeStyle;rounded=0;sketch=1;hachureGap=4;jiggle=2;curveFitting=1;orthogonalLoop=1;jettySize=auto;html=1;entryX=0.5;entryY=0;entryDx=0;entryDy=0;fontFamily=Architects Daughter;fontSource=https%3A%2F%2Ffonts.googleapis.com%2Fcss%3Ffamily%3DArchitects%2BDaughter;fontSize=16;" parent="1" source="ac9yo2sE0G0vk5C2mC0_-3" target="ac9yo2sE0G0vk5C2mC0_-7" edge="1">
          <mxGeometry relative="1" as="geometry">
            <Array as="points">
              <mxPoint x="1370" y="-200" />
              <mxPoint x="1990" y="-200" />
            </Array>
          </mxGeometry>
        </mxCell>
        <mxCell id="atzE-QTI6D4-yrtHeOuO-25" style="edgeStyle=orthogonalEdgeStyle;rounded=0;sketch=1;hachureGap=4;jiggle=2;curveFitting=1;orthogonalLoop=1;jettySize=auto;html=1;entryX=0.5;entryY=0;entryDx=0;entryDy=0;fontFamily=Architects Daughter;fontSource=https%3A%2F%2Ffonts.googleapis.com%2Fcss%3Ffamily%3DArchitects%2BDaughter;fontSize=16;" parent="1" source="ac9yo2sE0G0vk5C2mC0_-3" target="ac9yo2sE0G0vk5C2mC0_-32" edge="1">
          <mxGeometry relative="1" as="geometry">
            <Array as="points">
              <mxPoint x="1370" y="-200" />
              <mxPoint x="2330" y="-200" />
            </Array>
          </mxGeometry>
        </mxCell>
        <mxCell id="atzE-QTI6D4-yrtHeOuO-26" style="edgeStyle=orthogonalEdgeStyle;rounded=0;sketch=1;hachureGap=4;jiggle=2;curveFitting=1;orthogonalLoop=1;jettySize=auto;html=1;entryX=0.5;entryY=0;entryDx=0;entryDy=0;fontFamily=Architects Daughter;fontSource=https%3A%2F%2Ffonts.googleapis.com%2Fcss%3Ffamily%3DArchitects%2BDaughter;fontSize=16;" parent="1" source="ac9yo2sE0G0vk5C2mC0_-3" target="ac9yo2sE0G0vk5C2mC0_-18" edge="1">
          <mxGeometry relative="1" as="geometry">
            <Array as="points">
              <mxPoint x="1370" y="-200" />
              <mxPoint x="1310" y="-200" />
            </Array>
          </mxGeometry>
        </mxCell>
        <UserObject label="ورودی اطلاعات" id="ac9yo2sE0G0vk5C2mC0_-3">
          <mxCell style="ellipse;whiteSpace=wrap;html=1;fontSize=50;fontFamily=Architects Daughter;sketch=1;hachureGap=4;jiggle=2;curveFitting=1;fontSource=https%3A%2F%2Ffonts.googleapis.com%2Fcss%3Ffamily%3DArchitects%2BDaughter;fillColor=#008a00;fontColor=#ffffff;strokeColor=#005700;aspect=fixed;" parent="1" vertex="1">
            <mxGeometry x="1160" y="-680" width="420" height="420" as="geometry" />
          </mxCell>
        </UserObject>
        <UserObject label="نام کالا" id="ac9yo2sE0G0vk5C2mC0_-5">
          <mxCell style="ellipse;whiteSpace=wrap;html=1;fontSize=50;fontFamily=Architects Daughter;sketch=1;hachureGap=4;jiggle=2;curveFitting=1;fontSource=https%3A%2F%2Ffonts.googleapis.com%2Fcss%3Ffamily%3DArchitects%2BDaughter;fillColor=#008a00;fontColor=#ffffff;strokeColor=#005700;" parent="1" vertex="1">
            <mxGeometry x="1510" y="-120" width="280" height="260" as="geometry" />
          </mxCell>
        </UserObject>
        <UserObject label="آدرس سایت" id="ac9yo2sE0G0vk5C2mC0_-7">
          <mxCell style="ellipse;whiteSpace=wrap;html=1;fontSize=50;fontFamily=Architects Daughter;sketch=1;hachureGap=4;jiggle=2;curveFitting=1;fontSource=https%3A%2F%2Ffonts.googleapis.com%2Fcss%3Ffamily%3DArchitects%2BDaughter;fillColor=#008a00;fontColor=#ffffff;strokeColor=#005700;" parent="1" vertex="1">
            <mxGeometry x="1850" y="-120" width="280" height="260" as="geometry" />
          </mxCell>
        </UserObject>
        <UserObject label="نام تامین کننده" id="ac9yo2sE0G0vk5C2mC0_-18">
          <mxCell style="ellipse;whiteSpace=wrap;html=1;fontSize=50;fontFamily=Architects Daughter;sketch=1;hachureGap=4;jiggle=2;curveFitting=1;fontSource=https%3A%2F%2Ffonts.googleapis.com%2Fcss%3Ffamily%3DArchitects%2BDaughter;fillColor=#008a00;fontColor=#ffffff;strokeColor=#005700;" parent="1" vertex="1">
            <mxGeometry x="1170" y="-120" width="280" height="260" as="geometry" />
          </mxCell>
        </UserObject>
        <UserObject label="آدرس منبع" id="ac9yo2sE0G0vk5C2mC0_-32">
          <mxCell style="ellipse;whiteSpace=wrap;html=1;fontSize=50;fontFamily=Architects Daughter;sketch=1;hachureGap=4;jiggle=2;curveFitting=1;fontSource=https%3A%2F%2Ffonts.googleapis.com%2Fcss%3Ffamily%3DArchitects%2BDaughter;fillColor=#008a00;fontColor=#ffffff;strokeColor=#005700;" parent="1" vertex="1">
            <mxGeometry x="2190" y="-120" width="280" height="260" as="geometry" />
          </mxCell>
        </UserObject>
        <mxCell id="ac9yo2sE0G0vk5C2mC0_-78" style="edgeStyle=orthogonalEdgeStyle;rounded=0;sketch=1;hachureGap=4;jiggle=2;curveFitting=1;orthogonalLoop=1;jettySize=auto;html=1;entryX=0.5;entryY=0;entryDx=0;entryDy=0;fontFamily=Architects Daughter;fontSource=https%3A%2F%2Ffonts.googleapis.com%2Fcss%3Ffamily%3DArchitects%2BDaughter;fontSize=16;exitX=0.5;exitY=1;exitDx=0;exitDy=0;" parent="1" source="ac9yo2sE0G0vk5C2mC0_-35" target="ac9yo2sE0G0vk5C2mC0_-47" edge="1">
          <mxGeometry relative="1" as="geometry">
            <Array as="points">
              <mxPoint x="140" y="-200" />
              <mxPoint x="490" y="-200" />
            </Array>
          </mxGeometry>
        </mxCell>
        <mxCell id="ac9yo2sE0G0vk5C2mC0_-79" style="edgeStyle=orthogonalEdgeStyle;rounded=0;sketch=1;hachureGap=4;jiggle=2;curveFitting=1;orthogonalLoop=1;jettySize=auto;html=1;entryX=0.5;entryY=0;entryDx=0;entryDy=0;fontFamily=Architects Daughter;fontSource=https%3A%2F%2Ffonts.googleapis.com%2Fcss%3Ffamily%3DArchitects%2BDaughter;fontSize=16;exitX=0.5;exitY=1;exitDx=0;exitDy=0;" parent="1" source="ac9yo2sE0G0vk5C2mC0_-35" target="ac9yo2sE0G0vk5C2mC0_-49" edge="1">
          <mxGeometry relative="1" as="geometry">
            <Array as="points">
              <mxPoint x="140" y="-200" />
              <mxPoint x="-210" y="-200" />
            </Array>
          </mxGeometry>
        </mxCell>
        <mxCell id="ac9yo2sE0G0vk5C2mC0_-80" style="edgeStyle=orthogonalEdgeStyle;rounded=0;sketch=1;hachureGap=4;jiggle=2;curveFitting=1;orthogonalLoop=1;jettySize=auto;html=1;entryX=0.5;entryY=0;entryDx=0;entryDy=0;fontFamily=Architects Daughter;fontSource=https%3A%2F%2Ffonts.googleapis.com%2Fcss%3Ffamily%3DArchitects%2BDaughter;fontSize=16;exitX=0.5;exitY=1;exitDx=0;exitDy=0;" parent="1" source="ac9yo2sE0G0vk5C2mC0_-35" target="ac9yo2sE0G0vk5C2mC0_-36" edge="1">
          <mxGeometry relative="1" as="geometry" />
        </mxCell>
        <UserObject label="خروجی اطلاعات" id="ac9yo2sE0G0vk5C2mC0_-35">
          <mxCell style="ellipse;whiteSpace=wrap;html=1;fontSize=50;fontFamily=Architects Daughter;sketch=1;hachureGap=4;jiggle=2;curveFitting=1;fontSource=https%3A%2F%2Ffonts.googleapis.com%2Fcss%3Ffamily%3DArchitects%2BDaughter;fillColor=#008a00;fontColor=#ffffff;strokeColor=#005700;" parent="1" vertex="1">
            <mxGeometry x="-70" y="-680" width="420" height="420" as="geometry" />
          </mxCell>
        </UserObject>
        <UserObject label="گزارش قیمت کالا" id="ac9yo2sE0G0vk5C2mC0_-36">
          <mxCell style="ellipse;whiteSpace=wrap;html=1;fontSize=50;fontFamily=Architects Daughter;sketch=1;hachureGap=4;jiggle=2;curveFitting=1;fontSource=https%3A%2F%2Ffonts.googleapis.com%2Fcss%3Ffamily%3DArchitects%2BDaughter;fillColor=#008a00;fontColor=#ffffff;strokeColor=#005700;" parent="1" vertex="1">
            <mxGeometry y="-120" width="280" height="260" as="geometry" />
          </mxCell>
        </UserObject>
        <mxCell id="ac9yo2sE0G0vk5C2mC0_-76" style="edgeStyle=orthogonalEdgeStyle;rounded=0;sketch=1;hachureGap=4;jiggle=2;curveFitting=1;orthogonalLoop=1;jettySize=auto;html=1;entryX=0.5;entryY=0;entryDx=0;entryDy=0;fontFamily=Architects Daughter;fontSource=https%3A%2F%2Ffonts.googleapis.com%2Fcss%3Ffamily%3DArchitects%2BDaughter;fontSize=16;exitX=0;exitY=0.5;exitDx=0;exitDy=0;" parent="1" source="ac9yo2sE0G0vk5C2mC0_-38" target="ac9yo2sE0G0vk5C2mC0_-35" edge="1">
          <mxGeometry relative="1" as="geometry" />
        </mxCell>
        <mxCell id="ac9yo2sE0G0vk5C2mC0_-77" style="edgeStyle=orthogonalEdgeStyle;rounded=0;sketch=1;hachureGap=4;jiggle=2;curveFitting=1;orthogonalLoop=1;jettySize=auto;html=1;entryX=0.5;entryY=0;entryDx=0;entryDy=0;fontFamily=Architects Daughter;fontSource=https%3A%2F%2Ffonts.googleapis.com%2Fcss%3Ffamily%3DArchitects%2BDaughter;fontSize=16;exitX=1;exitY=0.5;exitDx=0;exitDy=0;" parent="1" source="ac9yo2sE0G0vk5C2mC0_-38" target="ac9yo2sE0G0vk5C2mC0_-3" edge="1">
          <mxGeometry relative="1" as="geometry" />
        </mxCell>
        <mxCell id="atzE-QTI6D4-yrtHeOuO-12" style="edgeStyle=orthogonalEdgeStyle;rounded=0;sketch=1;hachureGap=4;jiggle=2;curveFitting=1;orthogonalLoop=1;jettySize=auto;html=1;entryX=0;entryY=1;entryDx=0;entryDy=0;fontFamily=Architects Daughter;fontSource=https%3A%2F%2Ffonts.googleapis.com%2Fcss%3Ffamily%3DArchitects%2BDaughter;fontSize=16;exitX=0;exitY=0;exitDx=0;exitDy=0;" parent="1" source="ac9yo2sE0G0vk5C2mC0_-38" target="ac9yo2sE0G0vk5C2mC0_-51" edge="1">
          <mxGeometry relative="1" as="geometry" />
        </mxCell>
        <UserObject label="پردازش" id="ac9yo2sE0G0vk5C2mC0_-38">
          <mxCell style="ellipse;whiteSpace=wrap;html=1;fontSize=50;fontFamily=Architects Daughter;sketch=1;hachureGap=4;jiggle=2;curveFitting=1;fontSource=https%3A%2F%2Ffonts.googleapis.com%2Fcss%3Ffamily%3DArchitects%2BDaughter;fillColor=#008a00;fontColor=#ffffff;strokeColor=#005700;" parent="1" vertex="1">
            <mxGeometry x="450" y="-1040" width="520" height="540" as="geometry" />
          </mxCell>
        </UserObject>
        <UserObject label="گزارش وضعیت تغییر قیمت کالا" id="ac9yo2sE0G0vk5C2mC0_-47">
          <mxCell style="ellipse;whiteSpace=wrap;html=1;fontSize=50;fontFamily=Architects Daughter;sketch=1;hachureGap=4;jiggle=2;curveFitting=1;fontSource=https%3A%2F%2Ffonts.googleapis.com%2Fcss%3Ffamily%3DArchitects%2BDaughter;fillColor=#008a00;fontColor=#ffffff;strokeColor=#005700;" parent="1" vertex="1">
            <mxGeometry x="350" y="-120" width="280" height="260" as="geometry" />
          </mxCell>
        </UserObject>
        <UserObject label="بهترین منبع جهت تامین کالا" id="ac9yo2sE0G0vk5C2mC0_-49">
          <mxCell style="ellipse;whiteSpace=wrap;html=1;fontSize=50;fontFamily=Architects Daughter;sketch=1;hachureGap=4;jiggle=2;curveFitting=1;fontSource=https%3A%2F%2Ffonts.googleapis.com%2Fcss%3Ffamily%3DArchitects%2BDaughter;fillColor=#008a00;fontColor=#ffffff;strokeColor=#005700;" parent="1" vertex="1">
            <mxGeometry x="-350" y="-120" width="280" height="260" as="geometry" />
          </mxCell>
        </UserObject>
        <mxCell id="atzE-QTI6D4-yrtHeOuO-5" style="edgeStyle=orthogonalEdgeStyle;rounded=0;sketch=1;hachureGap=4;jiggle=2;curveFitting=1;orthogonalLoop=1;jettySize=auto;html=1;entryX=0.5;entryY=1;entryDx=0;entryDy=0;fontFamily=Architects Daughter;fontSource=https%3A%2F%2Ffonts.googleapis.com%2Fcss%3Ffamily%3DArchitects%2BDaughter;fontSize=16;" parent="1" source="ac9yo2sE0G0vk5C2mC0_-51" target="ac9yo2sE0G0vk5C2mC0_-56" edge="1">
          <mxGeometry relative="1" as="geometry" />
        </mxCell>
        <mxCell id="atzE-QTI6D4-yrtHeOuO-6" style="edgeStyle=orthogonalEdgeStyle;rounded=0;sketch=1;hachureGap=4;jiggle=2;curveFitting=1;orthogonalLoop=1;jettySize=auto;html=1;entryX=0.5;entryY=1;entryDx=0;entryDy=0;fontFamily=Architects Daughter;fontSource=https%3A%2F%2Ffonts.googleapis.com%2Fcss%3Ffamily%3DArchitects%2BDaughter;fontSize=16;" parent="1" source="ac9yo2sE0G0vk5C2mC0_-51" target="ac9yo2sE0G0vk5C2mC0_-57" edge="1">
          <mxGeometry relative="1" as="geometry" />
        </mxCell>
        <mxCell id="atzE-QTI6D4-yrtHeOuO-13" style="edgeStyle=orthogonalEdgeStyle;rounded=0;sketch=1;hachureGap=4;jiggle=2;curveFitting=1;orthogonalLoop=1;jettySize=auto;html=1;entryX=1;entryY=0;entryDx=0;entryDy=0;fontFamily=Architects Daughter;fontSource=https%3A%2F%2Ffonts.googleapis.com%2Fcss%3Ffamily%3DArchitects%2BDaughter;fontSize=16;exitX=1;exitY=1;exitDx=0;exitDy=0;" parent="1" source="ac9yo2sE0G0vk5C2mC0_-51" target="ac9yo2sE0G0vk5C2mC0_-38" edge="1">
          <mxGeometry relative="1" as="geometry" />
        </mxCell>
        <mxCell id="atzE-QTI6D4-yrtHeOuO-30" style="edgeStyle=orthogonalEdgeStyle;rounded=0;sketch=1;hachureGap=4;jiggle=2;curveFitting=1;orthogonalLoop=1;jettySize=auto;html=1;entryX=0.5;entryY=1;entryDx=0;entryDy=0;fontFamily=Architects Daughter;fontSource=https%3A%2F%2Ffonts.googleapis.com%2Fcss%3Ffamily%3DArchitects%2BDaughter;fontSize=16;" parent="1" source="ac9yo2sE0G0vk5C2mC0_-51" target="atzE-QTI6D4-yrtHeOuO-27" edge="1">
          <mxGeometry relative="1" as="geometry">
            <Array as="points">
              <mxPoint x="710" y="-1900" />
              <mxPoint x="-280" y="-1900" />
            </Array>
          </mxGeometry>
        </mxCell>
        <UserObject label="ذخیره سازی اطلاعات" id="ac9yo2sE0G0vk5C2mC0_-51">
          <mxCell style="ellipse;whiteSpace=wrap;html=1;fontSize=50;fontFamily=Architects Daughter;sketch=1;hachureGap=4;jiggle=2;curveFitting=1;fontSource=https%3A%2F%2Ffonts.googleapis.com%2Fcss%3Ffamily%3DArchitects%2BDaughter;fillColor=#008a00;fontColor=#ffffff;strokeColor=#005700;" parent="1" vertex="1">
            <mxGeometry x="450" y="-1800" width="520" height="500" as="geometry" />
          </mxCell>
        </UserObject>
        <mxCell id="atzE-QTI6D4-yrtHeOuO-14" style="edgeStyle=orthogonalEdgeStyle;rounded=0;sketch=1;hachureGap=4;jiggle=2;curveFitting=1;orthogonalLoop=1;jettySize=auto;html=1;entryX=0.5;entryY=1;entryDx=0;entryDy=0;fontFamily=Architects Daughter;fontSource=https%3A%2F%2Ffonts.googleapis.com%2Fcss%3Ffamily%3DArchitects%2BDaughter;fontSize=16;" parent="1" source="ac9yo2sE0G0vk5C2mC0_-56" target="ac9yo2sE0G0vk5C2mC0_-60" edge="1">
          <mxGeometry relative="1" as="geometry" />
        </mxCell>
        <UserObject label="اطلاعات کالا" id="ac9yo2sE0G0vk5C2mC0_-56">
          <mxCell style="ellipse;whiteSpace=wrap;html=1;fontSize=50;fontFamily=Architects Daughter;sketch=1;hachureGap=4;jiggle=2;curveFitting=1;fontSource=https%3A%2F%2Ffonts.googleapis.com%2Fcss%3Ffamily%3DArchitects%2BDaughter;fillColor=#008a00;fontColor=#ffffff;strokeColor=#005700;aspect=fixed;" parent="1" vertex="1">
            <mxGeometry x="930" y="-2260" width="260" height="260" as="geometry" />
          </mxCell>
        </UserObject>
        <mxCell id="atzE-QTI6D4-yrtHeOuO-7" style="edgeStyle=orthogonalEdgeStyle;rounded=0;sketch=1;hachureGap=4;jiggle=2;curveFitting=1;orthogonalLoop=1;jettySize=auto;html=1;entryX=0.5;entryY=1;entryDx=0;entryDy=0;fontFamily=Architects Daughter;fontSource=https%3A%2F%2Ffonts.googleapis.com%2Fcss%3Ffamily%3DArchitects%2BDaughter;fontSize=16;" parent="1" source="ac9yo2sE0G0vk5C2mC0_-57" target="ac9yo2sE0G0vk5C2mC0_-58" edge="1">
          <mxGeometry relative="1" as="geometry" />
        </mxCell>
        <mxCell id="atzE-QTI6D4-yrtHeOuO-9" style="edgeStyle=orthogonalEdgeStyle;rounded=0;sketch=1;hachureGap=4;jiggle=2;curveFitting=1;orthogonalLoop=1;jettySize=auto;html=1;entryX=0.5;entryY=1;entryDx=0;entryDy=0;fontFamily=Architects Daughter;fontSource=https%3A%2F%2Ffonts.googleapis.com%2Fcss%3Ffamily%3DArchitects%2BDaughter;fontSize=16;" parent="1" source="ac9yo2sE0G0vk5C2mC0_-57" target="ac9yo2sE0G0vk5C2mC0_-66" edge="1">
          <mxGeometry relative="1" as="geometry" />
        </mxCell>
        <UserObject label="اطلاعات تامین کننده" id="ac9yo2sE0G0vk5C2mC0_-57">
          <mxCell style="ellipse;whiteSpace=wrap;html=1;fontSize=50;fontFamily=Architects Daughter;sketch=1;hachureGap=4;jiggle=2;curveFitting=1;fontSource=https%3A%2F%2Ffonts.googleapis.com%2Fcss%3Ffamily%3DArchitects%2BDaughter;fillColor=#008a00;fontColor=#ffffff;strokeColor=#005700;" parent="1" vertex="1">
            <mxGeometry x="230" y="-2260" width="260" height="260" as="geometry" />
          </mxCell>
        </UserObject>
        <UserObject label="آدرس سایت تامین کننده" id="ac9yo2sE0G0vk5C2mC0_-58">
          <mxCell style="ellipse;whiteSpace=wrap;html=1;fontSize=50;fontFamily=Architects Daughter;sketch=1;hachureGap=4;jiggle=2;curveFitting=1;fontSource=https%3A%2F%2Ffonts.googleapis.com%2Fcss%3Ffamily%3DArchitects%2BDaughter;fillColor=#008a00;fontColor=#ffffff;strokeColor=#005700;aspect=fixed;" parent="1" vertex="1">
            <mxGeometry x="50" y="-2600" width="260" height="260" as="geometry" />
          </mxCell>
        </UserObject>
        <UserObject label="نام کالا" id="ac9yo2sE0G0vk5C2mC0_-60">
          <mxCell style="ellipse;whiteSpace=wrap;html=1;fontSize=50;fontFamily=Architects Daughter;sketch=1;hachureGap=4;jiggle=2;curveFitting=1;fontSource=https%3A%2F%2Ffonts.googleapis.com%2Fcss%3Ffamily%3DArchitects%2BDaughter;fillColor=#008a00;fontColor=#ffffff;strokeColor=#005700;aspect=fixed;" parent="1" vertex="1">
            <mxGeometry x="930" y="-2600" width="260" height="260" as="geometry" />
          </mxCell>
        </UserObject>
        <UserObject label="نام تامین کننده" id="ac9yo2sE0G0vk5C2mC0_-66">
          <mxCell style="ellipse;whiteSpace=wrap;html=1;fontSize=50;fontFamily=Architects Daughter;sketch=1;hachureGap=4;jiggle=2;curveFitting=1;fontSource=https%3A%2F%2Ffonts.googleapis.com%2Fcss%3Ffamily%3DArchitects%2BDaughter;fillColor=#008a00;fontColor=#ffffff;strokeColor=#005700;aspect=fixed;" parent="1" vertex="1">
            <mxGeometry x="410" y="-2600" width="260" height="260" as="geometry" />
          </mxCell>
        </UserObject>
        <mxCell id="atzE-QTI6D4-yrtHeOuO-29" value="" style="edgeStyle=orthogonalEdgeStyle;rounded=0;sketch=1;hachureGap=4;jiggle=2;curveFitting=1;orthogonalLoop=1;jettySize=auto;html=1;fontFamily=Architects Daughter;fontSource=https%3A%2F%2Ffonts.googleapis.com%2Fcss%3Ffamily%3DArchitects%2BDaughter;fontSize=16;" parent="1" source="atzE-QTI6D4-yrtHeOuO-27" target="atzE-QTI6D4-yrtHeOuO-28" edge="1">
          <mxGeometry relative="1" as="geometry" />
        </mxCell>
        <UserObject label="اطلاعات منابع" id="atzE-QTI6D4-yrtHeOuO-27">
          <mxCell style="ellipse;whiteSpace=wrap;html=1;fontSize=50;fontFamily=Architects Daughter;sketch=1;hachureGap=4;jiggle=2;curveFitting=1;fontSource=https%3A%2F%2Ffonts.googleapis.com%2Fcss%3Ffamily%3DArchitects%2BDaughter;fillColor=#008a00;fontColor=#ffffff;strokeColor=#005700;" parent="1" vertex="1">
            <mxGeometry x="-410" y="-2260" width="260" height="260" as="geometry" />
          </mxCell>
        </UserObject>
        <mxCell id="atzE-QTI6D4-yrtHeOuO-28" value="نام منبع" style="ellipse;whiteSpace=wrap;html=1;fontSize=50;fontFamily=Architects Daughter;fillColor=#008a00;strokeColor=#005700;fontColor=#ffffff;sketch=1;hachureGap=4;jiggle=2;curveFitting=1;fontSource=https%3A%2F%2Ffonts.googleapis.com%2Fcss%3Ffamily%3DArchitects%2BDaughter;aspect=fixed;" parent="1" vertex="1">
          <mxGeometry x="-410" y="-2600" width="260" height="260" as="geometry" />
        </mxCell>
      </root>
    </mxGraphModel>
  </diagram>
  <diagram id="5zCGNSWbNYOyVzRt0wLK" name="Programming Scatch">
    <mxGraphModel dx="1280" dy="2172" grid="1" gridSize="10" guides="1" tooltips="1" connect="1" arrows="1" fold="1" page="0" pageScale="3" pageWidth="1000" pageHeight="1000" math="0" shadow="0">
      <root>
        <mxCell id="0" />
        <mxCell id="HFS7Y8xobeglULE5u90M-34" value="Basic Scratch" style="" parent="0" />
        <mxCell id="5-AEt_n_oSi8HQ1IMmqt-77" style="rounded=0;sketch=1;hachureGap=4;jiggle=2;curveFitting=1;orthogonalLoop=1;jettySize=auto;html=1;entryX=0;entryY=0.5;entryDx=0;entryDy=0;fontFamily=Architects Daughter;fontSource=https%3A%2F%2Ffonts.googleapis.com%2Fcss%3Ffamily%3DArchitects%2BDaughter;fontSize=20;exitX=1;exitY=0.5;exitDx=0;exitDy=0;edgeStyle=orthogonalEdgeStyle;" parent="HFS7Y8xobeglULE5u90M-34" source="HFS7Y8xobeglULE5u90M-35" target="5-AEt_n_oSi8HQ1IMmqt-76" edge="1">
          <mxGeometry relative="1" as="geometry">
            <mxPoint x="1819" y="1764" as="sourcePoint" />
          </mxGeometry>
        </mxCell>
        <UserObject label="Data Input" tags="Class" id="HFS7Y8xobeglULE5u90M-35">
          <mxCell style="rounded=1;whiteSpace=wrap;html=1;sketch=1;hachureGap=4;jiggle=2;curveFitting=1;fontFamily=Architects Daughter;fontSource=https%3A%2F%2Ffonts.googleapis.com%2Fcss%3Ffamily%3DArchitects%2BDaughter;fontSize=50;horizontal=1;fontStyle=1;aspect=fixed;fillColor=#6a00ff;fontColor=#ffffff;strokeColor=#3700CC;shadow=0;" parent="HFS7Y8xobeglULE5u90M-34" vertex="1">
            <mxGeometry x="510" y="770" width="200" height="200" as="geometry" />
          </mxCell>
        </UserObject>
        <mxCell id="xkJ-JtNZi8FNMqeZ-mll-26" style="edgeStyle=orthogonalEdgeStyle;rounded=0;sketch=1;hachureGap=4;jiggle=2;curveFitting=1;orthogonalLoop=1;jettySize=auto;html=1;entryX=0;entryY=0.5;entryDx=0;entryDy=0;fontFamily=Architects Daughter;fontSource=https%3A%2F%2Ffonts.googleapis.com%2Fcss%3Ffamily%3DArchitects%2BDaughter;fontSize=16;" parent="HFS7Y8xobeglULE5u90M-34" source="HFS7Y8xobeglULE5u90M-36" target="HFS7Y8xobeglULE5u90M-35" edge="1">
          <mxGeometry relative="1" as="geometry" />
        </mxCell>
        <mxCell id="xkJ-JtNZi8FNMqeZ-mll-25" style="edgeStyle=orthogonalEdgeStyle;rounded=0;sketch=1;hachureGap=4;jiggle=2;curveFitting=1;orthogonalLoop=1;jettySize=auto;html=1;entryX=0;entryY=0.5;entryDx=0;entryDy=0;fontFamily=Architects Daughter;fontSource=https%3A%2F%2Ffonts.googleapis.com%2Fcss%3Ffamily%3DArchitects%2BDaughter;fontSize=16;" parent="HFS7Y8xobeglULE5u90M-34" source="HFS7Y8xobeglULE5u90M-37" target="HFS7Y8xobeglULE5u90M-35" edge="1">
          <mxGeometry relative="1" as="geometry" />
        </mxCell>
        <mxCell id="xkJ-JtNZi8FNMqeZ-mll-24" style="edgeStyle=orthogonalEdgeStyle;rounded=0;sketch=1;hachureGap=4;jiggle=2;curveFitting=1;orthogonalLoop=1;jettySize=auto;html=1;entryX=0;entryY=0.5;entryDx=0;entryDy=0;fontFamily=Architects Daughter;fontSource=https%3A%2F%2Ffonts.googleapis.com%2Fcss%3Ffamily%3DArchitects%2BDaughter;fontSize=16;" parent="HFS7Y8xobeglULE5u90M-34" source="HFS7Y8xobeglULE5u90M-40" target="HFS7Y8xobeglULE5u90M-35" edge="1">
          <mxGeometry relative="1" as="geometry">
            <Array as="points">
              <mxPoint x="440" y="840" />
              <mxPoint x="440" y="870" />
            </Array>
          </mxGeometry>
        </mxCell>
        <mxCell id="xkJ-JtNZi8FNMqeZ-mll-244" style="edgeStyle=orthogonalEdgeStyle;rounded=0;sketch=1;hachureGap=4;jiggle=2;curveFitting=1;orthogonalLoop=1;jettySize=auto;html=1;entryX=0.5;entryY=0;entryDx=0;entryDy=0;fontFamily=Architects Daughter;fontSource=https%3A%2F%2Ffonts.googleapis.com%2Fcss%3Ffamily%3DArchitects%2BDaughter;fontSize=16;" parent="HFS7Y8xobeglULE5u90M-34" source="5-AEt_n_oSi8HQ1IMmqt-76" target="xkJ-JtNZi8FNMqeZ-mll-27" edge="1">
          <mxGeometry relative="1" as="geometry" />
        </mxCell>
        <mxCell id="6JLOtsv9MvYqzKThRbvU-56" style="edgeStyle=orthogonalEdgeStyle;rounded=0;sketch=1;hachureGap=4;jiggle=2;curveFitting=1;orthogonalLoop=1;jettySize=auto;html=1;entryX=0.5;entryY=1;entryDx=0;entryDy=0;fontFamily=Architects Daughter;fontSource=https%3A%2F%2Ffonts.googleapis.com%2Fcss%3Ffamily%3DArchitects%2BDaughter;fontSize=16;" parent="HFS7Y8xobeglULE5u90M-34" source="5-AEt_n_oSi8HQ1IMmqt-76" target="xkJ-JtNZi8FNMqeZ-mll-54" edge="1">
          <mxGeometry relative="1" as="geometry" />
        </mxCell>
        <UserObject label="Data&amp;nbsp;&lt;br&gt;Input Analysis" tags="Class" id="5-AEt_n_oSi8HQ1IMmqt-76">
          <mxCell style="rounded=1;whiteSpace=wrap;html=1;sketch=1;hachureGap=4;jiggle=2;curveFitting=1;fontFamily=Architects Daughter;fontSource=https%3A%2F%2Ffonts.googleapis.com%2Fcss%3Ffamily%3DArchitects%2BDaughter;fontSize=50;horizontal=1;fontStyle=1;aspect=fixed;fillColor=#6a00ff;fontColor=#ffffff;strokeColor=#3700CC;" parent="HFS7Y8xobeglULE5u90M-34" vertex="1">
            <mxGeometry x="970" y="770" width="200" height="200" as="geometry" />
          </mxCell>
        </UserObject>
        <mxCell id="dvnMM9Yq31Bd4QS2HTyY-25" style="edgeStyle=orthogonalEdgeStyle;rounded=0;sketch=1;hachureGap=4;jiggle=2;curveFitting=1;orthogonalLoop=1;jettySize=auto;html=1;entryX=0.5;entryY=0;entryDx=0;entryDy=0;fontFamily=Architects Daughter;fontSource=https%3A%2F%2Ffonts.googleapis.com%2Fcss%3Ffamily%3DArchitects%2BDaughter;fontSize=16;" parent="HFS7Y8xobeglULE5u90M-34" source="xkJ-JtNZi8FNMqeZ-mll-27" target="xkJ-JtNZi8FNMqeZ-mll-31" edge="1">
          <mxGeometry relative="1" as="geometry" />
        </mxCell>
        <UserObject label="Extract Data" tags="Class" id="xkJ-JtNZi8FNMqeZ-mll-27">
          <mxCell style="rounded=1;whiteSpace=wrap;html=1;sketch=1;hachureGap=4;jiggle=2;curveFitting=1;fontFamily=Architects Daughter;fontSource=https%3A%2F%2Ffonts.googleapis.com%2Fcss%3Ffamily%3DArchitects%2BDaughter;fontSize=30;horizontal=1;fontStyle=1;aspect=fixed;fillColor=#60a917;fontColor=#ffffff;strokeColor=#2D7600;" parent="HFS7Y8xobeglULE5u90M-34" vertex="1">
            <mxGeometry x="1000" y="1000" width="150" height="150" as="geometry" />
          </mxCell>
        </UserObject>
        <mxCell id="xkJ-JtNZi8FNMqeZ-mll-252" style="rounded=0;sketch=1;hachureGap=4;jiggle=2;curveFitting=1;orthogonalLoop=1;jettySize=auto;html=1;entryX=0.5;entryY=1;entryDx=0;entryDy=0;fontFamily=Architects Daughter;fontSource=https%3A%2F%2Ffonts.googleapis.com%2Fcss%3Ffamily%3DArchitects%2BDaughter;fontSize=16;" parent="HFS7Y8xobeglULE5u90M-34" source="xkJ-JtNZi8FNMqeZ-mll-54" target="xkJ-JtNZi8FNMqeZ-mll-215" edge="1">
          <mxGeometry relative="1" as="geometry" />
        </mxCell>
        <mxCell id="6JLOtsv9MvYqzKThRbvU-44" style="edgeStyle=orthogonalEdgeStyle;rounded=0;sketch=1;hachureGap=4;jiggle=2;curveFitting=1;orthogonalLoop=1;jettySize=auto;html=1;entryX=0.5;entryY=1;entryDx=0;entryDy=0;fontFamily=Architects Daughter;fontSource=https%3A%2F%2Ffonts.googleapis.com%2Fcss%3Ffamily%3DArchitects%2BDaughter;fontSize=16;exitX=0.5;exitY=0;exitDx=0;exitDy=0;" parent="HFS7Y8xobeglULE5u90M-34" source="xkJ-JtNZi8FNMqeZ-mll-54" target="xkJ-JtNZi8FNMqeZ-mll-217" edge="1">
          <mxGeometry relative="1" as="geometry" />
        </mxCell>
        <mxCell id="6JLOtsv9MvYqzKThRbvU-45" style="edgeStyle=orthogonalEdgeStyle;rounded=0;sketch=1;hachureGap=4;jiggle=2;curveFitting=1;orthogonalLoop=1;jettySize=auto;html=1;entryX=0.5;entryY=1;entryDx=0;entryDy=0;fontFamily=Architects Daughter;fontSource=https%3A%2F%2Ffonts.googleapis.com%2Fcss%3Ffamily%3DArchitects%2BDaughter;fontSize=16;exitX=0.5;exitY=0;exitDx=0;exitDy=0;" parent="HFS7Y8xobeglULE5u90M-34" source="xkJ-JtNZi8FNMqeZ-mll-54" target="xkJ-JtNZi8FNMqeZ-mll-216" edge="1">
          <mxGeometry relative="1" as="geometry" />
        </mxCell>
        <mxCell id="6JLOtsv9MvYqzKThRbvU-46" style="edgeStyle=orthogonalEdgeStyle;rounded=0;sketch=1;hachureGap=4;jiggle=2;curveFitting=1;orthogonalLoop=1;jettySize=auto;html=1;entryX=0.5;entryY=1;entryDx=0;entryDy=0;fontFamily=Architects Daughter;fontSource=https%3A%2F%2Ffonts.googleapis.com%2Fcss%3Ffamily%3DArchitects%2BDaughter;fontSize=16;exitX=0.5;exitY=0;exitDx=0;exitDy=0;" parent="HFS7Y8xobeglULE5u90M-34" source="xkJ-JtNZi8FNMqeZ-mll-54" target="6JLOtsv9MvYqzKThRbvU-14" edge="1">
          <mxGeometry relative="1" as="geometry" />
        </mxCell>
        <mxCell id="6JLOtsv9MvYqzKThRbvU-57" style="edgeStyle=orthogonalEdgeStyle;rounded=0;sketch=1;hachureGap=4;jiggle=2;curveFitting=1;orthogonalLoop=1;jettySize=auto;html=1;entryX=0.5;entryY=0;entryDx=0;entryDy=0;fontFamily=Architects Daughter;fontSource=https%3A%2F%2Ffonts.googleapis.com%2Fcss%3Ffamily%3DArchitects%2BDaughter;fontSize=16;" parent="HFS7Y8xobeglULE5u90M-34" source="xkJ-JtNZi8FNMqeZ-mll-54" target="5-AEt_n_oSi8HQ1IMmqt-76" edge="1">
          <mxGeometry relative="1" as="geometry" />
        </mxCell>
        <mxCell id="6JLOtsv9MvYqzKThRbvU-58" style="edgeStyle=orthogonalEdgeStyle;rounded=0;sketch=1;hachureGap=4;jiggle=2;curveFitting=1;orthogonalLoop=1;jettySize=auto;html=1;entryX=0;entryY=0.25;entryDx=0;entryDy=0;fontFamily=Architects Daughter;fontSource=https%3A%2F%2Ffonts.googleapis.com%2Fcss%3Ffamily%3DArchitects%2BDaughter;fontSize=16;" parent="HFS7Y8xobeglULE5u90M-34" source="xkJ-JtNZi8FNMqeZ-mll-54" target="xkJ-JtNZi8FNMqeZ-mll-56" edge="1">
          <mxGeometry relative="1" as="geometry" />
        </mxCell>
        <UserObject label="Storage" tags="Class" id="xkJ-JtNZi8FNMqeZ-mll-54">
          <mxCell style="rounded=1;whiteSpace=wrap;html=1;sketch=1;hachureGap=4;jiggle=2;curveFitting=1;fontFamily=Architects Daughter;fontSource=https%3A%2F%2Ffonts.googleapis.com%2Fcss%3Ffamily%3DArchitects%2BDaughter;fontSize=50;horizontal=1;fontStyle=1;aspect=fixed;fillColor=#6a00ff;fontColor=#ffffff;strokeColor=#3700CC;" parent="HFS7Y8xobeglULE5u90M-34" vertex="1">
            <mxGeometry x="1480" y="-10" width="200" height="200" as="geometry" />
          </mxCell>
        </UserObject>
        <mxCell id="6JLOtsv9MvYqzKThRbvU-41" style="edgeStyle=orthogonalEdgeStyle;rounded=0;sketch=1;hachureGap=4;jiggle=2;curveFitting=1;orthogonalLoop=1;jettySize=auto;html=1;entryX=0;entryY=0.5;entryDx=0;entryDy=0;fontFamily=Architects Daughter;fontSource=https%3A%2F%2Ffonts.googleapis.com%2Fcss%3Ffamily%3DArchitects%2BDaughter;fontSize=16;" parent="HFS7Y8xobeglULE5u90M-34" source="xkJ-JtNZi8FNMqeZ-mll-56" target="6JLOtsv9MvYqzKThRbvU-40" edge="1">
          <mxGeometry relative="1" as="geometry" />
        </mxCell>
        <mxCell id="6JLOtsv9MvYqzKThRbvU-59" style="edgeStyle=orthogonalEdgeStyle;rounded=0;sketch=1;hachureGap=4;jiggle=2;curveFitting=1;orthogonalLoop=1;jettySize=auto;html=1;entryX=0.5;entryY=1;entryDx=0;entryDy=0;fontFamily=Architects Daughter;fontSource=https%3A%2F%2Ffonts.googleapis.com%2Fcss%3Ffamily%3DArchitects%2BDaughter;fontSize=16;" parent="HFS7Y8xobeglULE5u90M-34" source="xkJ-JtNZi8FNMqeZ-mll-56" target="xkJ-JtNZi8FNMqeZ-mll-54" edge="1">
          <mxGeometry relative="1" as="geometry" />
        </mxCell>
        <UserObject label="Data Output Analysis" tags="Class" id="xkJ-JtNZi8FNMqeZ-mll-56">
          <mxCell style="rounded=1;whiteSpace=wrap;html=1;sketch=1;hachureGap=4;jiggle=2;curveFitting=1;fontFamily=Architects Daughter;fontSource=https%3A%2F%2Ffonts.googleapis.com%2Fcss%3Ffamily%3DArchitects%2BDaughter;fontSize=50;horizontal=1;fontStyle=1;aspect=fixed;fillColor=#6a00ff;fontColor=#ffffff;strokeColor=#3700CC;" parent="HFS7Y8xobeglULE5u90M-34" vertex="1">
            <mxGeometry x="2310" y="770" width="200" height="200" as="geometry" />
          </mxCell>
        </UserObject>
        <UserObject label="Providers" tags="Class" id="xkJ-JtNZi8FNMqeZ-mll-215">
          <mxCell style="rounded=1;whiteSpace=wrap;html=1;sketch=1;hachureGap=4;jiggle=2;curveFitting=1;fontFamily=Architects Daughter;fontSource=https%3A%2F%2Ffonts.googleapis.com%2Fcss%3Ffamily%3DArchitects%2BDaughter;fontSize=30;horizontal=1;fontStyle=1;aspect=fixed;fillColor=#60a917;fontColor=#ffffff;strokeColor=#2D7600;" parent="HFS7Y8xobeglULE5u90M-34" vertex="1">
            <mxGeometry x="1510" y="-240" width="150" height="150" as="geometry" />
          </mxCell>
        </UserObject>
        <UserObject label="Articles" tags="Class" id="xkJ-JtNZi8FNMqeZ-mll-216">
          <mxCell style="rounded=1;whiteSpace=wrap;html=1;sketch=1;hachureGap=4;jiggle=2;curveFitting=1;fontFamily=Architects Daughter;fontSource=https%3A%2F%2Ffonts.googleapis.com%2Fcss%3Ffamily%3DArchitects%2BDaughter;fontSize=30;horizontal=1;fontStyle=1;aspect=fixed;fillColor=#60a917;fontColor=#ffffff;strokeColor=#2D7600;" parent="HFS7Y8xobeglULE5u90M-34" vertex="1">
            <mxGeometry x="1230" y="-240" width="150" height="150" as="geometry" />
          </mxCell>
        </UserObject>
        <UserObject label="URL Collection" tags="Class" id="xkJ-JtNZi8FNMqeZ-mll-217">
          <mxCell style="rounded=1;whiteSpace=wrap;html=1;sketch=1;hachureGap=4;jiggle=2;curveFitting=1;fontFamily=Architects Daughter;fontSource=https%3A%2F%2Ffonts.googleapis.com%2Fcss%3Ffamily%3DArchitects%2BDaughter;fontSize=30;horizontal=1;fontStyle=1;aspect=fixed;fillColor=#60a917;fontColor=#ffffff;strokeColor=#2D7600;" parent="HFS7Y8xobeglULE5u90M-34" vertex="1">
            <mxGeometry x="1780" y="-240" width="150" height="150" as="geometry" />
          </mxCell>
        </UserObject>
        <UserObject label="Provider Data" tags="Class" id="HFS7Y8xobeglULE5u90M-37">
          <mxCell style="rounded=1;whiteSpace=wrap;html=1;sketch=1;hachureGap=4;jiggle=2;curveFitting=1;fontFamily=Architects Daughter;fontSource=https%3A%2F%2Ffonts.googleapis.com%2Fcss%3Ffamily%3DArchitects%2BDaughter;fontSize=30;horizontal=1;fontStyle=1;aspect=fixed;fillColor=#60a917;fontColor=#ffffff;strokeColor=#2D7600;" parent="HFS7Y8xobeglULE5u90M-34" vertex="1">
            <mxGeometry x="210" y="930" width="150" height="150" as="geometry" />
          </mxCell>
        </UserObject>
        <mxCell id="xkJ-JtNZi8FNMqeZ-mll-256" value="" style="group" parent="HFS7Y8xobeglULE5u90M-34" vertex="1" connectable="0">
          <mxGeometry x="1740" y="-1210" width="230" height="230" as="geometry" />
        </mxCell>
        <mxCell id="xkJ-JtNZi8FNMqeZ-mll-255" value="" style="shape=ext;double=1;whiteSpace=wrap;html=1;aspect=fixed;sketch=1;hachureGap=4;jiggle=2;curveFitting=1;fontFamily=Architects Daughter;fontSource=https%3A%2F%2Ffonts.googleapis.com%2Fcss%3Ffamily%3DArchitects%2BDaughter;fontSize=20;gradientColor=default;fillColor=none;" parent="xkJ-JtNZi8FNMqeZ-mll-256" vertex="1">
          <mxGeometry width="230" height="230" as="geometry" />
        </mxCell>
        <UserObject label="XPath" tags="Property" tooltip="User Input Type , &#xa;Come as text ( string )" id="xkJ-JtNZi8FNMqeZ-mll-245">
          <mxCell style="rounded=1;whiteSpace=wrap;html=1;sketch=1;hachureGap=4;jiggle=2;curveFitting=1;fontFamily=Architects Daughter;fontSource=https%3A%2F%2Ffonts.googleapis.com%2Fcss%3Ffamily%3DArchitects%2BDaughter;fontSize=20;horizontal=1;fontStyle=1;aspect=fixed;fillColor=#d5e8d4;strokeColor=#82b366;" parent="xkJ-JtNZi8FNMqeZ-mll-256" vertex="1">
            <mxGeometry x="10" y="10" width="100" height="100" as="geometry" />
          </mxCell>
        </UserObject>
        <UserObject label="NVARCHAR &lt;br&gt;(max)" tags="Type" id="xkJ-JtNZi8FNMqeZ-mll-248">
          <mxCell style="rounded=1;whiteSpace=wrap;html=1;sketch=1;hachureGap=4;jiggle=2;curveFitting=1;fontFamily=Architects Daughter;fontSource=https%3A%2F%2Ffonts.googleapis.com%2Fcss%3Ffamily%3DArchitects%2BDaughter;fontSize=16;horizontal=1;fontStyle=1;strokeColor=#001DBC;fillStyle=auto;fillColor=#0050ef;fontColor=#ffffff;" parent="xkJ-JtNZi8FNMqeZ-mll-256" vertex="1">
            <mxGeometry x="120" y="10" width="100" height="40" as="geometry" />
          </mxCell>
        </UserObject>
        <mxCell id="xkJ-JtNZi8FNMqeZ-mll-259" value="" style="group" parent="HFS7Y8xobeglULE5u90M-34" vertex="1" connectable="0">
          <mxGeometry x="1740" y="-1440" width="230" height="230" as="geometry" />
        </mxCell>
        <mxCell id="xkJ-JtNZi8FNMqeZ-mll-260" value="" style="shape=ext;double=1;whiteSpace=wrap;html=1;aspect=fixed;sketch=1;hachureGap=4;jiggle=2;curveFitting=1;fontFamily=Architects Daughter;fontSource=https%3A%2F%2Ffonts.googleapis.com%2Fcss%3Ffamily%3DArchitects%2BDaughter;fontSize=20;gradientColor=default;fillColor=none;" parent="xkJ-JtNZi8FNMqeZ-mll-259" vertex="1">
          <mxGeometry width="230" height="230" as="geometry" />
        </mxCell>
        <UserObject label="ID" tags="Property" tooltip="User Input Type , &#xa;Come as text ( string )" id="xkJ-JtNZi8FNMqeZ-mll-261">
          <mxCell style="rounded=1;whiteSpace=wrap;html=1;sketch=1;hachureGap=4;jiggle=2;curveFitting=1;fontFamily=Architects Daughter;fontSource=https%3A%2F%2Ffonts.googleapis.com%2Fcss%3Ffamily%3DArchitects%2BDaughter;fontSize=20;horizontal=1;fontStyle=1;aspect=fixed;fillColor=#d5e8d4;strokeColor=#82b366;" parent="xkJ-JtNZi8FNMqeZ-mll-259" vertex="1">
            <mxGeometry x="10" y="10" width="100" height="100" as="geometry" />
          </mxCell>
        </UserObject>
        <UserObject label="int" tags="Type" id="xkJ-JtNZi8FNMqeZ-mll-262">
          <mxCell style="rounded=1;whiteSpace=wrap;html=1;sketch=1;hachureGap=4;jiggle=2;curveFitting=1;fontFamily=Architects Daughter;fontSource=https%3A%2F%2Ffonts.googleapis.com%2Fcss%3Ffamily%3DArchitects%2BDaughter;fontSize=16;horizontal=1;fontStyle=1;strokeColor=#001DBC;fillStyle=auto;fillColor=#0050ef;fontColor=#ffffff;" parent="xkJ-JtNZi8FNMqeZ-mll-259" vertex="1">
            <mxGeometry x="120" y="10" width="100" height="30" as="geometry" />
          </mxCell>
        </UserObject>
        <UserObject label="Auto &lt;br&gt;Generated" tags="Type" id="xkJ-JtNZi8FNMqeZ-mll-265">
          <mxCell style="rounded=1;whiteSpace=wrap;html=1;sketch=1;hachureGap=4;jiggle=2;curveFitting=1;fontFamily=Architects Daughter;fontSource=https%3A%2F%2Ffonts.googleapis.com%2Fcss%3Ffamily%3DArchitects%2BDaughter;fontSize=16;horizontal=1;fontStyle=1;strokeColor=#6F0000;fillStyle=auto;fillColor=#a20025;fontColor=#ffffff;" parent="xkJ-JtNZi8FNMqeZ-mll-259" vertex="1">
            <mxGeometry x="120" y="50" width="100" height="40" as="geometry" />
          </mxCell>
        </UserObject>
        <mxCell id="dvnMM9Yq31Bd4QS2HTyY-0" value="" style="group" parent="HFS7Y8xobeglULE5u90M-34" vertex="1" connectable="0">
          <mxGeometry x="1470" y="-740" width="230" height="230" as="geometry" />
        </mxCell>
        <mxCell id="dvnMM9Yq31Bd4QS2HTyY-1" value="" style="shape=ext;double=1;whiteSpace=wrap;html=1;aspect=fixed;sketch=1;hachureGap=4;jiggle=2;curveFitting=1;fontFamily=Architects Daughter;fontSource=https%3A%2F%2Ffonts.googleapis.com%2Fcss%3Ffamily%3DArchitects%2BDaughter;fontSize=20;gradientColor=default;fillColor=none;" parent="dvnMM9Yq31Bd4QS2HTyY-0" vertex="1">
          <mxGeometry width="230" height="230" as="geometry" />
        </mxCell>
        <UserObject label="ID" tags="Property" tooltip="User Input Type , &#xa;Come as text ( string )" id="dvnMM9Yq31Bd4QS2HTyY-2">
          <mxCell style="rounded=1;whiteSpace=wrap;html=1;sketch=1;hachureGap=4;jiggle=2;curveFitting=1;fontFamily=Architects Daughter;fontSource=https%3A%2F%2Ffonts.googleapis.com%2Fcss%3Ffamily%3DArchitects%2BDaughter;fontSize=20;horizontal=1;fontStyle=1;aspect=fixed;fillColor=#d5e8d4;strokeColor=#82b366;" parent="dvnMM9Yq31Bd4QS2HTyY-0" vertex="1">
            <mxGeometry x="10" y="10" width="100" height="100" as="geometry" />
          </mxCell>
        </UserObject>
        <UserObject label="int" tags="Type" id="dvnMM9Yq31Bd4QS2HTyY-3">
          <mxCell style="rounded=1;whiteSpace=wrap;html=1;sketch=1;hachureGap=4;jiggle=2;curveFitting=1;fontFamily=Architects Daughter;fontSource=https%3A%2F%2Ffonts.googleapis.com%2Fcss%3Ffamily%3DArchitects%2BDaughter;fontSize=16;horizontal=1;fontStyle=1;strokeColor=#001DBC;fillStyle=auto;fillColor=#0050ef;fontColor=#ffffff;" parent="dvnMM9Yq31Bd4QS2HTyY-0" vertex="1">
            <mxGeometry x="120" y="10" width="100" height="30" as="geometry" />
          </mxCell>
        </UserObject>
        <UserObject label="Auto &lt;br&gt;Generated" tags="Type" id="dvnMM9Yq31Bd4QS2HTyY-4">
          <mxCell style="rounded=1;whiteSpace=wrap;html=1;sketch=1;hachureGap=4;jiggle=2;curveFitting=1;fontFamily=Architects Daughter;fontSource=https%3A%2F%2Ffonts.googleapis.com%2Fcss%3Ffamily%3DArchitects%2BDaughter;fontSize=16;horizontal=1;fontStyle=1;strokeColor=#6F0000;fillStyle=auto;fillColor=#a20025;fontColor=#ffffff;" parent="dvnMM9Yq31Bd4QS2HTyY-0" vertex="1">
            <mxGeometry x="120" y="50" width="100" height="40" as="geometry" />
          </mxCell>
        </UserObject>
        <mxCell id="dvnMM9Yq31Bd4QS2HTyY-6" value="" style="group" parent="HFS7Y8xobeglULE5u90M-34" vertex="1" connectable="0">
          <mxGeometry x="1200" y="-1210" width="230" height="230" as="geometry" />
        </mxCell>
        <mxCell id="dvnMM9Yq31Bd4QS2HTyY-7" value="" style="shape=ext;double=1;whiteSpace=wrap;html=1;aspect=fixed;sketch=1;hachureGap=4;jiggle=2;curveFitting=1;fontFamily=Architects Daughter;fontSource=https%3A%2F%2Ffonts.googleapis.com%2Fcss%3Ffamily%3DArchitects%2BDaughter;fontSize=20;gradientColor=default;fillColor=none;" parent="dvnMM9Yq31Bd4QS2HTyY-6" vertex="1">
          <mxGeometry width="230" height="230" as="geometry" />
        </mxCell>
        <UserObject label="ID" tags="Property" tooltip="User Input Type , &#xa;Come as text ( string )" id="dvnMM9Yq31Bd4QS2HTyY-8">
          <mxCell style="rounded=1;whiteSpace=wrap;html=1;sketch=1;hachureGap=4;jiggle=2;curveFitting=1;fontFamily=Architects Daughter;fontSource=https%3A%2F%2Ffonts.googleapis.com%2Fcss%3Ffamily%3DArchitects%2BDaughter;fontSize=20;horizontal=1;fontStyle=1;aspect=fixed;fillColor=#d5e8d4;strokeColor=#82b366;" parent="dvnMM9Yq31Bd4QS2HTyY-6" vertex="1">
            <mxGeometry x="10" y="10" width="100" height="100" as="geometry" />
          </mxCell>
        </UserObject>
        <UserObject label="int" tags="Type" id="dvnMM9Yq31Bd4QS2HTyY-9">
          <mxCell style="rounded=1;whiteSpace=wrap;html=1;sketch=1;hachureGap=4;jiggle=2;curveFitting=1;fontFamily=Architects Daughter;fontSource=https%3A%2F%2Ffonts.googleapis.com%2Fcss%3Ffamily%3DArchitects%2BDaughter;fontSize=16;horizontal=1;fontStyle=1;strokeColor=#001DBC;fillStyle=auto;fillColor=#0050ef;fontColor=#ffffff;" parent="dvnMM9Yq31Bd4QS2HTyY-6" vertex="1">
            <mxGeometry x="120" y="10" width="100" height="30" as="geometry" />
          </mxCell>
        </UserObject>
        <UserObject label="Auto &lt;br&gt;Generated" tags="Type" id="dvnMM9Yq31Bd4QS2HTyY-10">
          <mxCell style="rounded=1;whiteSpace=wrap;html=1;sketch=1;hachureGap=4;jiggle=2;curveFitting=1;fontFamily=Architects Daughter;fontSource=https%3A%2F%2Ffonts.googleapis.com%2Fcss%3Ffamily%3DArchitects%2BDaughter;fontSize=16;horizontal=1;fontStyle=1;strokeColor=#6F0000;fillStyle=auto;fillColor=#a20025;fontColor=#ffffff;" parent="dvnMM9Yq31Bd4QS2HTyY-6" vertex="1">
            <mxGeometry x="120" y="50" width="100" height="40" as="geometry" />
          </mxCell>
        </UserObject>
        <mxCell id="dvnMM9Yq31Bd4QS2HTyY-13" value="" style="group" parent="HFS7Y8xobeglULE5u90M-34" vertex="1" connectable="0">
          <mxGeometry x="1470" y="-510" width="230" height="230" as="geometry" />
        </mxCell>
        <mxCell id="dvnMM9Yq31Bd4QS2HTyY-14" value="" style="shape=ext;double=1;whiteSpace=wrap;html=1;aspect=fixed;sketch=1;hachureGap=4;jiggle=2;curveFitting=1;fontFamily=Architects Daughter;fontSource=https%3A%2F%2Ffonts.googleapis.com%2Fcss%3Ffamily%3DArchitects%2BDaughter;fontSize=20;gradientColor=default;fillColor=none;" parent="dvnMM9Yq31Bd4QS2HTyY-13" vertex="1">
          <mxGeometry width="230" height="230" as="geometry" />
        </mxCell>
        <UserObject label="Name" tags="Property" tooltip="User Input Type , &#xa;Come as text ( string )" id="dvnMM9Yq31Bd4QS2HTyY-15">
          <mxCell style="rounded=1;whiteSpace=wrap;html=1;sketch=1;hachureGap=4;jiggle=2;curveFitting=1;fontFamily=Architects Daughter;fontSource=https%3A%2F%2Ffonts.googleapis.com%2Fcss%3Ffamily%3DArchitects%2BDaughter;fontSize=20;horizontal=1;fontStyle=1;aspect=fixed;fillColor=#d5e8d4;strokeColor=#82b366;" parent="dvnMM9Yq31Bd4QS2HTyY-13" vertex="1">
            <mxGeometry x="10" y="10" width="100" height="100" as="geometry" />
          </mxCell>
        </UserObject>
        <UserObject label="NVARCHAR&lt;br&gt;(max)" tags="Type" id="dvnMM9Yq31Bd4QS2HTyY-16">
          <mxCell style="rounded=1;whiteSpace=wrap;html=1;sketch=1;hachureGap=4;jiggle=2;curveFitting=1;fontFamily=Architects Daughter;fontSource=https%3A%2F%2Ffonts.googleapis.com%2Fcss%3Ffamily%3DArchitects%2BDaughter;fontSize=16;horizontal=1;fontStyle=1;strokeColor=#001DBC;fillStyle=auto;fillColor=#0050ef;fontColor=#ffffff;" parent="dvnMM9Yq31Bd4QS2HTyY-13" vertex="1">
            <mxGeometry x="120" y="10" width="100" height="40" as="geometry" />
          </mxCell>
        </UserObject>
        <mxCell id="dvnMM9Yq31Bd4QS2HTyY-20" style="edgeStyle=orthogonalEdgeStyle;rounded=0;sketch=1;hachureGap=4;jiggle=2;curveFitting=1;orthogonalLoop=1;jettySize=auto;html=1;entryX=0;entryY=0.5;entryDx=0;entryDy=0;fontFamily=Architects Daughter;fontSource=https%3A%2F%2Ffonts.googleapis.com%2Fcss%3Ffamily%3DArchitects%2BDaughter;fontSize=16;" parent="HFS7Y8xobeglULE5u90M-34" source="HFS7Y8xobeglULE5u90M-68" target="HFS7Y8xobeglULE5u90M-37" edge="1">
          <mxGeometry relative="1" as="geometry" />
        </mxCell>
        <mxCell id="dvnMM9Yq31Bd4QS2HTyY-24" style="edgeStyle=orthogonalEdgeStyle;rounded=0;sketch=1;hachureGap=4;jiggle=2;curveFitting=1;orthogonalLoop=1;jettySize=auto;html=1;entryX=0;entryY=0.5;entryDx=0;entryDy=0;fontFamily=Architects Daughter;fontSource=https%3A%2F%2Ffonts.googleapis.com%2Fcss%3Ffamily%3DArchitects%2BDaughter;fontSize=16;" parent="HFS7Y8xobeglULE5u90M-34" source="5-AEt_n_oSi8HQ1IMmqt-71" target="HFS7Y8xobeglULE5u90M-36" edge="1">
          <mxGeometry relative="1" as="geometry" />
        </mxCell>
        <UserObject label="Element Xpath In Web Address" tags="Property" tooltip="User Input Type , &#xa;Come as text ( string )" id="5-AEt_n_oSi8HQ1IMmqt-71">
          <mxCell style="rounded=1;whiteSpace=wrap;html=1;sketch=1;hachureGap=4;jiggle=2;curveFitting=1;fontFamily=Architects Daughter;fontSource=https%3A%2F%2Ffonts.googleapis.com%2Fcss%3Ffamily%3DArchitects%2BDaughter;fontSize=20;horizontal=1;fontStyle=1;aspect=fixed;fillColor=#d80073;fontColor=#ffffff;strokeColor=#A50040;" parent="HFS7Y8xobeglULE5u90M-34" vertex="1">
            <mxGeometry x="30" y="1210" width="100" height="100" as="geometry" />
          </mxCell>
        </UserObject>
        <UserObject label="String" tags="Type" id="5-AEt_n_oSi8HQ1IMmqt-72">
          <mxCell style="rounded=1;whiteSpace=wrap;html=1;sketch=1;hachureGap=4;jiggle=2;curveFitting=1;fontFamily=Architects Daughter;fontSource=https%3A%2F%2Ffonts.googleapis.com%2Fcss%3Ffamily%3DArchitects%2BDaughter;fontSize=20;horizontal=1;fontStyle=1;strokeColor=#001DBC;fillStyle=auto;fillColor=#0050ef;fontColor=#ffffff;aspect=fixed;" parent="HFS7Y8xobeglULE5u90M-34" vertex="1">
            <mxGeometry x="-40" y="1280" width="60" height="30" as="geometry" />
          </mxCell>
        </UserObject>
        <UserObject label="XPath" tags="Type" id="xkJ-JtNZi8FNMqeZ-mll-174">
          <mxCell style="rounded=1;whiteSpace=wrap;html=1;sketch=1;hachureGap=4;jiggle=2;curveFitting=1;fontFamily=Architects Daughter;fontSource=https%3A%2F%2Ffonts.googleapis.com%2Fcss%3Ffamily%3DArchitects%2BDaughter;fontSize=20;horizontal=1;fontStyle=1;strokeColor=#B09500;fillStyle=auto;fillColor=#e3c800;fontColor=#FFFFCC;" parent="HFS7Y8xobeglULE5u90M-34" vertex="1">
            <mxGeometry x="-130" y="1210" width="150" height="30" as="geometry" />
          </mxCell>
        </UserObject>
        <UserObject label="XPath Collection" tags="Type" id="xkJ-JtNZi8FNMqeZ-mll-175">
          <mxCell style="rounded=1;whiteSpace=wrap;html=1;sketch=1;hachureGap=4;jiggle=2;curveFitting=1;fontFamily=Architects Daughter;fontSource=https%3A%2F%2Ffonts.googleapis.com%2Fcss%3Ffamily%3DArchitects%2BDaughter;fontSize=20;horizontal=1;fontStyle=1;strokeColor=#006EAF;fillStyle=auto;fillColor=#1ba1e2;fontColor=#ffffff;" parent="HFS7Y8xobeglULE5u90M-34" vertex="1">
            <mxGeometry x="-300" y="1210" width="160" height="30" as="geometry" />
          </mxCell>
        </UserObject>
        <UserObject label="Provider Name" tags="Property" tooltip="User Input Type , &#xa;Come as text ( string )" id="HFS7Y8xobeglULE5u90M-68">
          <mxCell style="rounded=1;whiteSpace=wrap;html=1;sketch=1;hachureGap=4;jiggle=2;curveFitting=1;fontFamily=Architects Daughter;fontSource=https%3A%2F%2Ffonts.googleapis.com%2Fcss%3Ffamily%3DArchitects%2BDaughter;fontSize=20;horizontal=1;fontStyle=1;aspect=fixed;fillColor=#d80073;fontColor=#ffffff;strokeColor=#A50040;" parent="HFS7Y8xobeglULE5u90M-34" vertex="1">
            <mxGeometry x="30" y="930" width="100" height="100" as="geometry" />
          </mxCell>
        </UserObject>
        <UserObject label="String" tags="Type" id="HFS7Y8xobeglULE5u90M-73">
          <mxCell style="rounded=1;whiteSpace=wrap;html=1;sketch=1;hachureGap=4;jiggle=2;curveFitting=1;fontFamily=Architects Daughter;fontSource=https%3A%2F%2Ffonts.googleapis.com%2Fcss%3Ffamily%3DArchitects%2BDaughter;fontSize=20;horizontal=1;fontStyle=1;strokeColor=#001DBC;fillStyle=auto;fillColor=#0050ef;fontColor=#ffffff;aspect=fixed;" parent="HFS7Y8xobeglULE5u90M-34" vertex="1">
            <mxGeometry x="-40" y="1000" width="60" height="30" as="geometry" />
          </mxCell>
        </UserObject>
        <UserObject label="Name" tags="Type" id="xkJ-JtNZi8FNMqeZ-mll-170">
          <mxCell style="rounded=1;whiteSpace=wrap;html=1;sketch=1;hachureGap=4;jiggle=2;curveFitting=1;fontFamily=Architects Daughter;fontSource=https%3A%2F%2Ffonts.googleapis.com%2Fcss%3Ffamily%3DArchitects%2BDaughter;fontSize=20;horizontal=1;fontStyle=1;strokeColor=#B09500;fillStyle=auto;fillColor=#e3c800;fontColor=#FFFFCC;" parent="HFS7Y8xobeglULE5u90M-34" vertex="1">
            <mxGeometry x="-130" y="930" width="150" height="30" as="geometry" />
          </mxCell>
        </UserObject>
        <UserObject label="Provider" tags="Type" id="xkJ-JtNZi8FNMqeZ-mll-171">
          <mxCell style="rounded=1;whiteSpace=wrap;html=1;sketch=1;hachureGap=4;jiggle=2;curveFitting=1;fontFamily=Architects Daughter;fontSource=https%3A%2F%2Ffonts.googleapis.com%2Fcss%3Ffamily%3DArchitects%2BDaughter;fontSize=20;horizontal=1;fontStyle=1;strokeColor=#006EAF;fillStyle=auto;fillColor=#1ba1e2;fontColor=#ffffff;" parent="HFS7Y8xobeglULE5u90M-34" vertex="1">
            <mxGeometry x="-290" y="930" width="150" height="30" as="geometry" />
          </mxCell>
        </UserObject>
        <UserObject label="Web Data" tags="Class" id="HFS7Y8xobeglULE5u90M-36">
          <mxCell style="rounded=1;whiteSpace=wrap;html=1;sketch=1;hachureGap=4;jiggle=2;curveFitting=1;fontFamily=Architects Daughter;fontSource=https%3A%2F%2Ffonts.googleapis.com%2Fcss%3Ffamily%3DArchitects%2BDaughter;fontSize=30;horizontal=1;fontStyle=1;aspect=fixed;fillColor=#60a917;fontColor=#ffffff;strokeColor=#2D7600;container=0;" parent="HFS7Y8xobeglULE5u90M-34" vertex="1">
            <mxGeometry x="210" y="1100" width="150" height="150" as="geometry" />
          </mxCell>
        </UserObject>
        <mxCell id="dvnMM9Yq31Bd4QS2HTyY-22" style="edgeStyle=orthogonalEdgeStyle;rounded=0;sketch=1;hachureGap=4;jiggle=2;curveFitting=1;orthogonalLoop=1;jettySize=auto;html=1;entryX=0;entryY=0.5;entryDx=0;entryDy=0;fontFamily=Architects Daughter;fontSource=https%3A%2F%2Ffonts.googleapis.com%2Fcss%3Ffamily%3DArchitects%2BDaughter;fontSize=16;" parent="HFS7Y8xobeglULE5u90M-34" source="5-AEt_n_oSi8HQ1IMmqt-67" target="HFS7Y8xobeglULE5u90M-36" edge="1">
          <mxGeometry relative="1" as="geometry" />
        </mxCell>
        <UserObject label="URL" tags="Property" tooltip="User Input Type , &#xa;Come as text ( string )" id="5-AEt_n_oSi8HQ1IMmqt-67">
          <mxCell style="rounded=1;whiteSpace=wrap;html=1;sketch=1;hachureGap=4;jiggle=2;curveFitting=1;fontFamily=Architects Daughter;fontSource=https%3A%2F%2Ffonts.googleapis.com%2Fcss%3Ffamily%3DArchitects%2BDaughter;fontSize=20;horizontal=1;fontStyle=1;aspect=fixed;fillColor=#d80073;fontColor=#ffffff;strokeColor=#A50040;container=0;" parent="HFS7Y8xobeglULE5u90M-34" vertex="1">
            <mxGeometry x="30" y="1100" width="100" height="100" as="geometry" />
          </mxCell>
        </UserObject>
        <UserObject label="User" tags="Behaviour" id="xkJ-JtNZi8FNMqeZ-mll-19">
          <mxCell style="rounded=1;whiteSpace=wrap;html=1;sketch=1;hachureGap=4;jiggle=2;curveFitting=1;fontFamily=Architects Daughter;fontSource=https%3A%2F%2Ffonts.googleapis.com%2Fcss%3Ffamily%3DArchitects%2BDaughter;fontSize=20;horizontal=1;fontStyle=1;fillStyle=auto;fillColor=#e3c800;strokeColor=#B09500;fontColor=#FFFFFF;aspect=fixed;container=0;" parent="HFS7Y8xobeglULE5u90M-34" vertex="1">
            <mxGeometry x="-100" y="1170" width="60" height="30" as="geometry" />
          </mxCell>
        </UserObject>
        <UserObject label="Int" tags="Type" id="xkJ-JtNZi8FNMqeZ-mll-20">
          <mxCell style="rounded=1;whiteSpace=wrap;html=1;sketch=1;hachureGap=4;jiggle=2;curveFitting=1;fontFamily=Architects Daughter;fontSource=https%3A%2F%2Ffonts.googleapis.com%2Fcss%3Ffamily%3DArchitects%2BDaughter;fontSize=20;horizontal=1;fontStyle=1;strokeColor=#001DBC;fillStyle=auto;fillColor=#0050ef;fontColor=#ffffff;aspect=fixed;container=0;" parent="HFS7Y8xobeglULE5u90M-34" vertex="1">
            <mxGeometry x="-40" y="1170" width="60" height="30" as="geometry" />
          </mxCell>
        </UserObject>
        <UserObject label="URL" tags="Type" id="xkJ-JtNZi8FNMqeZ-mll-178">
          <mxCell style="rounded=1;whiteSpace=wrap;html=1;sketch=1;hachureGap=4;jiggle=2;curveFitting=1;fontFamily=Architects Daughter;fontSource=https%3A%2F%2Ffonts.googleapis.com%2Fcss%3Ffamily%3DArchitects%2BDaughter;fontSize=20;horizontal=1;fontStyle=1;strokeColor=#B09500;fillStyle=auto;fillColor=#e3c800;fontColor=#FFFFCC;container=0;" parent="HFS7Y8xobeglULE5u90M-34" vertex="1">
            <mxGeometry x="-130" y="1100" width="150" height="30" as="geometry" />
          </mxCell>
        </UserObject>
        <UserObject label="Provider" tags="Type" id="xkJ-JtNZi8FNMqeZ-mll-179">
          <mxCell style="rounded=1;whiteSpace=wrap;html=1;sketch=1;hachureGap=4;jiggle=2;curveFitting=1;fontFamily=Architects Daughter;fontSource=https%3A%2F%2Ffonts.googleapis.com%2Fcss%3Ffamily%3DArchitects%2BDaughter;fontSize=20;horizontal=1;fontStyle=1;strokeColor=#006EAF;fillStyle=auto;fillColor=#1ba1e2;fontColor=#ffffff;container=0;" parent="HFS7Y8xobeglULE5u90M-34" vertex="1">
            <mxGeometry x="-290" y="1100" width="150" height="30" as="geometry" />
          </mxCell>
        </UserObject>
        <UserObject label="Article Data" tags="Class" id="HFS7Y8xobeglULE5u90M-40">
          <mxCell style="rounded=1;whiteSpace=wrap;html=1;sketch=1;hachureGap=4;jiggle=2;curveFitting=1;fontFamily=Architects Daughter;fontSource=https%3A%2F%2Ffonts.googleapis.com%2Fcss%3Ffamily%3DArchitects%2BDaughter;fontSize=30;horizontal=1;fontStyle=1;aspect=fixed;fillColor=#60a917;fontColor=#ffffff;strokeColor=#2D7600;" parent="HFS7Y8xobeglULE5u90M-34" vertex="1">
            <mxGeometry x="210" y="760" width="150" height="150" as="geometry" />
          </mxCell>
        </UserObject>
        <mxCell id="dvnMM9Yq31Bd4QS2HTyY-19" style="edgeStyle=orthogonalEdgeStyle;rounded=0;sketch=1;hachureGap=4;jiggle=2;curveFitting=1;orthogonalLoop=1;jettySize=auto;html=1;entryX=0;entryY=0.5;entryDx=0;entryDy=0;fontFamily=Architects Daughter;fontSource=https%3A%2F%2Ffonts.googleapis.com%2Fcss%3Ffamily%3DArchitects%2BDaughter;fontSize=16;" parent="HFS7Y8xobeglULE5u90M-34" source="HFS7Y8xobeglULE5u90M-43" target="HFS7Y8xobeglULE5u90M-40" edge="1">
          <mxGeometry relative="1" as="geometry" />
        </mxCell>
        <UserObject label="Article Names" tags="Property" tooltip="User Input Type , &#xa;Come as text ( string )" id="HFS7Y8xobeglULE5u90M-43">
          <mxCell style="rounded=1;whiteSpace=wrap;html=1;sketch=1;hachureGap=4;jiggle=2;curveFitting=1;fontFamily=Architects Daughter;fontSource=https%3A%2F%2Ffonts.googleapis.com%2Fcss%3Ffamily%3DArchitects%2BDaughter;fontSize=20;horizontal=1;fontStyle=1;aspect=fixed;fillColor=#d80073;fontColor=#ffffff;strokeColor=#A50040;" parent="HFS7Y8xobeglULE5u90M-34" vertex="1">
            <mxGeometry x="30" y="760" width="100" height="100" as="geometry" />
          </mxCell>
        </UserObject>
        <UserObject label="Int" tags="Type" id="xkJ-JtNZi8FNMqeZ-mll-13">
          <mxCell style="rounded=1;whiteSpace=wrap;html=1;sketch=1;hachureGap=4;jiggle=2;curveFitting=1;fontFamily=Architects Daughter;fontSource=https%3A%2F%2Ffonts.googleapis.com%2Fcss%3Ffamily%3DArchitects%2BDaughter;fontSize=20;horizontal=1;fontStyle=1;strokeColor=#001DBC;fillStyle=auto;fillColor=#0050ef;fontColor=#ffffff;aspect=fixed;" parent="HFS7Y8xobeglULE5u90M-34" vertex="1">
            <mxGeometry x="-40" y="830" width="60" height="30" as="geometry" />
          </mxCell>
        </UserObject>
        <UserObject label="User" tags="Behaviour" id="xkJ-JtNZi8FNMqeZ-mll-14">
          <mxCell style="rounded=1;whiteSpace=wrap;html=1;sketch=1;hachureGap=4;jiggle=2;curveFitting=1;fontFamily=Architects Daughter;fontSource=https%3A%2F%2Ffonts.googleapis.com%2Fcss%3Ffamily%3DArchitects%2BDaughter;fontSize=20;horizontal=1;fontStyle=1;fillStyle=auto;fillColor=#e3c800;strokeColor=#B09500;fontColor=#FFFFFF;aspect=fixed;" parent="HFS7Y8xobeglULE5u90M-34" vertex="1">
            <mxGeometry x="-100" y="830" width="60" height="30" as="geometry" />
          </mxCell>
        </UserObject>
        <mxCell id="xkJ-JtNZi8FNMqeZ-mll-162" style="edgeStyle=orthogonalEdgeStyle;rounded=0;sketch=1;hachureGap=4;jiggle=2;curveFitting=1;orthogonalLoop=1;jettySize=auto;html=1;exitX=0.5;exitY=1;exitDx=0;exitDy=0;fontFamily=Architects Daughter;fontSource=https%3A%2F%2Ffonts.googleapis.com%2Fcss%3Ffamily%3DArchitects%2BDaughter;fontSize=16;" parent="HFS7Y8xobeglULE5u90M-34" edge="1">
          <mxGeometry relative="1" as="geometry">
            <mxPoint x="-55" y="680" as="sourcePoint" />
            <mxPoint x="-55" y="680" as="targetPoint" />
          </mxGeometry>
        </mxCell>
        <UserObject label="Name" tags="Type" id="xkJ-JtNZi8FNMqeZ-mll-166">
          <mxCell style="rounded=1;whiteSpace=wrap;html=1;sketch=1;hachureGap=4;jiggle=2;curveFitting=1;fontFamily=Architects Daughter;fontSource=https%3A%2F%2Ffonts.googleapis.com%2Fcss%3Ffamily%3DArchitects%2BDaughter;fontSize=20;horizontal=1;fontStyle=1;strokeColor=#B09500;fillStyle=auto;fillColor=#e3c800;fontColor=#FFFFCC;" parent="HFS7Y8xobeglULE5u90M-34" vertex="1">
            <mxGeometry x="-130" y="760" width="150" height="30" as="geometry" />
          </mxCell>
        </UserObject>
        <UserObject label="Article" tags="Type" id="xkJ-JtNZi8FNMqeZ-mll-167">
          <mxCell style="rounded=1;whiteSpace=wrap;html=1;sketch=1;hachureGap=4;jiggle=2;curveFitting=1;fontFamily=Architects Daughter;fontSource=https%3A%2F%2Ffonts.googleapis.com%2Fcss%3Ffamily%3DArchitects%2BDaughter;fontSize=20;horizontal=1;fontStyle=1;strokeColor=#006EAF;fillStyle=auto;fillColor=#1ba1e2;fontColor=#ffffff;" parent="HFS7Y8xobeglULE5u90M-34" vertex="1">
            <mxGeometry x="-290" y="760" width="150" height="30" as="geometry" />
          </mxCell>
        </UserObject>
        <UserObject label="Create Classes" tags="Class" id="xkJ-JtNZi8FNMqeZ-mll-31">
          <mxCell style="rounded=1;whiteSpace=wrap;html=1;sketch=1;hachureGap=4;jiggle=2;curveFitting=1;fontFamily=Architects Daughter;fontSource=https%3A%2F%2Ffonts.googleapis.com%2Fcss%3Ffamily%3DArchitects%2BDaughter;fontSize=30;horizontal=1;fontStyle=1;aspect=fixed;fillColor=#60a917;fontColor=#ffffff;strokeColor=#2D7600;" parent="HFS7Y8xobeglULE5u90M-34" vertex="1">
            <mxGeometry x="1000" y="1190" width="150" height="150" as="geometry" />
          </mxCell>
        </UserObject>
        <UserObject label="Article" tags="Property" tooltip="User Input Type , &#xa;Come as text ( string )" id="xkJ-JtNZi8FNMqeZ-mll-33">
          <mxCell style="rounded=1;whiteSpace=wrap;html=1;sketch=1;hachureGap=4;jiggle=2;curveFitting=1;fontFamily=Architects Daughter;fontSource=https%3A%2F%2Ffonts.googleapis.com%2Fcss%3Ffamily%3DArchitects%2BDaughter;fontSize=20;horizontal=1;fontStyle=1;aspect=fixed;fillColor=#d5e8d4;strokeColor=#82b366;" parent="HFS7Y8xobeglULE5u90M-34" vertex="1">
            <mxGeometry x="990" y="1400" width="100" height="100" as="geometry" />
          </mxCell>
        </UserObject>
        <mxCell id="xkJ-JtNZi8FNMqeZ-mll-115" style="edgeStyle=orthogonalEdgeStyle;rounded=0;sketch=1;hachureGap=4;jiggle=2;curveFitting=1;orthogonalLoop=1;jettySize=auto;html=1;entryX=0.5;entryY=0;entryDx=0;entryDy=0;fontFamily=Architects Daughter;fontSource=https%3A%2F%2Ffonts.googleapis.com%2Fcss%3Ffamily%3DArchitects%2BDaughter;fontSize=16;" parent="HFS7Y8xobeglULE5u90M-34" source="xkJ-JtNZi8FNMqeZ-mll-31" target="xkJ-JtNZi8FNMqeZ-mll-33" edge="1">
          <mxGeometry relative="1" as="geometry">
            <Array as="points">
              <mxPoint x="1070" y="1360" />
              <mxPoint x="1040" y="1360" />
            </Array>
          </mxGeometry>
        </mxCell>
        <UserObject label="Provider" tags="Property" tooltip="User Input Type , &#xa;Come as text ( string )" id="xkJ-JtNZi8FNMqeZ-mll-116">
          <mxCell style="rounded=1;whiteSpace=wrap;html=1;sketch=1;hachureGap=4;jiggle=2;curveFitting=1;fontFamily=Architects Daughter;fontSource=https%3A%2F%2Ffonts.googleapis.com%2Fcss%3Ffamily%3DArchitects%2BDaughter;fontSize=20;horizontal=1;fontStyle=1;aspect=fixed;fillColor=#d5e8d4;strokeColor=#82b366;" parent="HFS7Y8xobeglULE5u90M-34" vertex="1">
            <mxGeometry x="1370" y="1400" width="100" height="100" as="geometry" />
          </mxCell>
        </UserObject>
        <mxCell id="xkJ-JtNZi8FNMqeZ-mll-118" style="edgeStyle=orthogonalEdgeStyle;rounded=0;sketch=1;hachureGap=4;jiggle=2;curveFitting=1;orthogonalLoop=1;jettySize=auto;html=1;entryX=0.5;entryY=0;entryDx=0;entryDy=0;fontFamily=Architects Daughter;fontSource=https%3A%2F%2Ffonts.googleapis.com%2Fcss%3Ffamily%3DArchitects%2BDaughter;fontSize=16;" parent="HFS7Y8xobeglULE5u90M-34" source="xkJ-JtNZi8FNMqeZ-mll-31" target="xkJ-JtNZi8FNMqeZ-mll-116" edge="1">
          <mxGeometry relative="1" as="geometry">
            <Array as="points">
              <mxPoint x="1070" y="1360" />
              <mxPoint x="1420" y="1360" />
            </Array>
          </mxGeometry>
        </mxCell>
        <UserObject label="ID" tags="Behaviour" id="xkJ-JtNZi8FNMqeZ-mll-121">
          <mxCell style="rounded=1;whiteSpace=wrap;html=1;sketch=1;hachureGap=4;jiggle=2;curveFitting=1;fontFamily=Architects Daughter;fontSource=https%3A%2F%2Ffonts.googleapis.com%2Fcss%3Ffamily%3DArchitects%2BDaughter;fontSize=20;horizontal=1;fontStyle=1;fillStyle=auto;" parent="HFS7Y8xobeglULE5u90M-34" vertex="1">
            <mxGeometry x="990" y="1510" width="130" height="30" as="geometry" />
          </mxCell>
        </UserObject>
        <UserObject label="Name" tags="Behaviour" id="xkJ-JtNZi8FNMqeZ-mll-122">
          <mxCell style="rounded=1;whiteSpace=wrap;html=1;sketch=1;hachureGap=4;jiggle=2;curveFitting=1;fontFamily=Architects Daughter;fontSource=https%3A%2F%2Ffonts.googleapis.com%2Fcss%3Ffamily%3DArchitects%2BDaughter;fontSize=20;horizontal=1;fontStyle=1;fillStyle=auto;" parent="HFS7Y8xobeglULE5u90M-34" vertex="1">
            <mxGeometry x="990" y="1550" width="130" height="30" as="geometry" />
          </mxCell>
        </UserObject>
        <UserObject label="ID" tags="Behaviour" id="xkJ-JtNZi8FNMqeZ-mll-125">
          <mxCell style="rounded=1;whiteSpace=wrap;html=1;sketch=1;hachureGap=4;jiggle=2;curveFitting=1;fontFamily=Architects Daughter;fontSource=https%3A%2F%2Ffonts.googleapis.com%2Fcss%3Ffamily%3DArchitects%2BDaughter;fontSize=20;horizontal=1;fontStyle=1;fillStyle=auto;" parent="HFS7Y8xobeglULE5u90M-34" vertex="1">
            <mxGeometry x="1370" y="1510" width="100" height="30" as="geometry" />
          </mxCell>
        </UserObject>
        <UserObject label="Data Type : Int" tags="Type" id="xkJ-JtNZi8FNMqeZ-mll-131">
          <mxCell style="rounded=1;whiteSpace=wrap;html=1;sketch=1;hachureGap=4;jiggle=2;curveFitting=1;fontFamily=Architects Daughter;fontSource=https%3A%2F%2Ffonts.googleapis.com%2Fcss%3Ffamily%3DArchitects%2BDaughter;fontSize=16;horizontal=1;fontStyle=1;strokeColor=#001DBC;fillStyle=auto;fillColor=#0050ef;fontColor=#ffffff;" parent="HFS7Y8xobeglULE5u90M-34" vertex="1">
            <mxGeometry x="1130" y="1510" width="190" height="30" as="geometry" />
          </mxCell>
        </UserObject>
        <UserObject label="Data Type : String" tags="Type" id="xkJ-JtNZi8FNMqeZ-mll-133">
          <mxCell style="rounded=1;whiteSpace=wrap;html=1;sketch=1;hachureGap=4;jiggle=2;curveFitting=1;fontFamily=Architects Daughter;fontSource=https%3A%2F%2Ffonts.googleapis.com%2Fcss%3Ffamily%3DArchitects%2BDaughter;fontSize=16;horizontal=1;fontStyle=1;strokeColor=#001DBC;fillStyle=auto;fillColor=#0050ef;fontColor=#ffffff;" parent="HFS7Y8xobeglULE5u90M-34" vertex="1">
            <mxGeometry x="1130" y="1550" width="190" height="30" as="geometry" />
          </mxCell>
        </UserObject>
        <mxCell id="xkJ-JtNZi8FNMqeZ-mll-188" style="edgeStyle=orthogonalEdgeStyle;rounded=0;sketch=1;hachureGap=4;jiggle=2;curveFitting=1;orthogonalLoop=1;jettySize=auto;html=1;exitX=0.5;exitY=1;exitDx=0;exitDy=0;fontFamily=Architects Daughter;fontSource=https%3A%2F%2Ffonts.googleapis.com%2Fcss%3Ffamily%3DArchitects%2BDaughter;fontSize=16;" parent="HFS7Y8xobeglULE5u90M-34" edge="1">
          <mxGeometry relative="1" as="geometry">
            <mxPoint x="1225.0000000000005" y="1570" as="sourcePoint" />
            <mxPoint x="1225.0000000000005" y="1570" as="targetPoint" />
          </mxGeometry>
        </mxCell>
        <UserObject label="Name" tags="Behaviour" id="xkJ-JtNZi8FNMqeZ-mll-192">
          <mxCell style="rounded=1;whiteSpace=wrap;html=1;sketch=1;hachureGap=4;jiggle=2;curveFitting=1;fontFamily=Architects Daughter;fontSource=https%3A%2F%2Ffonts.googleapis.com%2Fcss%3Ffamily%3DArchitects%2BDaughter;fontSize=20;horizontal=1;fontStyle=1;fillStyle=auto;" parent="HFS7Y8xobeglULE5u90M-34" vertex="1">
            <mxGeometry x="1370" y="1550" width="100" height="30" as="geometry" />
          </mxCell>
        </UserObject>
        <UserObject label="Data Type : Int" tags="Type" id="xkJ-JtNZi8FNMqeZ-mll-196">
          <mxCell style="rounded=1;whiteSpace=wrap;html=1;sketch=1;hachureGap=4;jiggle=2;curveFitting=1;fontFamily=Architects Daughter;fontSource=https%3A%2F%2Ffonts.googleapis.com%2Fcss%3Ffamily%3DArchitects%2BDaughter;fontSize=16;horizontal=1;fontStyle=1;strokeColor=#001DBC;fillStyle=auto;fillColor=#0050ef;fontColor=#ffffff;" parent="HFS7Y8xobeglULE5u90M-34" vertex="1">
            <mxGeometry x="1480" y="1510" width="190" height="30" as="geometry" />
          </mxCell>
        </UserObject>
        <UserObject label="Data Type : String" tags="Type" id="xkJ-JtNZi8FNMqeZ-mll-197">
          <mxCell style="rounded=1;whiteSpace=wrap;html=1;sketch=1;hachureGap=4;jiggle=2;curveFitting=1;fontFamily=Architects Daughter;fontSource=https%3A%2F%2Ffonts.googleapis.com%2Fcss%3Ffamily%3DArchitects%2BDaughter;fontSize=16;horizontal=1;fontStyle=1;strokeColor=#001DBC;fillStyle=auto;fillColor=#0050ef;fontColor=#ffffff;" parent="HFS7Y8xobeglULE5u90M-34" vertex="1">
            <mxGeometry x="1480" y="1550" width="190" height="30" as="geometry" />
          </mxCell>
        </UserObject>
        <UserObject label="URLType" tags="Property" tooltip="User Input Type , &#xa;Come as text ( string )" id="xkJ-JtNZi8FNMqeZ-mll-206">
          <mxCell style="rounded=1;whiteSpace=wrap;html=1;sketch=1;hachureGap=4;jiggle=2;curveFitting=1;fontFamily=Architects Daughter;fontSource=https%3A%2F%2Ffonts.googleapis.com%2Fcss%3Ffamily%3DArchitects%2BDaughter;fontSize=20;horizontal=1;fontStyle=1;aspect=fixed;fillColor=#d5e8d4;strokeColor=#82b366;" parent="HFS7Y8xobeglULE5u90M-34" vertex="1">
            <mxGeometry x="1750" y="1400" width="100" height="100" as="geometry" />
          </mxCell>
        </UserObject>
        <mxCell id="xkJ-JtNZi8FNMqeZ-mll-211" style="edgeStyle=orthogonalEdgeStyle;rounded=0;sketch=1;hachureGap=4;jiggle=2;curveFitting=1;orthogonalLoop=1;jettySize=auto;html=1;entryX=0.5;entryY=0;entryDx=0;entryDy=0;fontFamily=Architects Daughter;fontSource=https%3A%2F%2Ffonts.googleapis.com%2Fcss%3Ffamily%3DArchitects%2BDaughter;fontSize=16;" parent="HFS7Y8xobeglULE5u90M-34" source="xkJ-JtNZi8FNMqeZ-mll-31" target="xkJ-JtNZi8FNMqeZ-mll-206" edge="1">
          <mxGeometry relative="1" as="geometry">
            <Array as="points">
              <mxPoint x="1070" y="1360" />
              <mxPoint x="1800" y="1360" />
            </Array>
          </mxGeometry>
        </mxCell>
        <UserObject label="ID" tags="Behaviour" id="xkJ-JtNZi8FNMqeZ-mll-207">
          <mxCell style="rounded=1;whiteSpace=wrap;html=1;sketch=1;hachureGap=4;jiggle=2;curveFitting=1;fontFamily=Architects Daughter;fontSource=https%3A%2F%2Ffonts.googleapis.com%2Fcss%3Ffamily%3DArchitects%2BDaughter;fontSize=20;horizontal=1;fontStyle=1;fillStyle=auto;" parent="HFS7Y8xobeglULE5u90M-34" vertex="1">
            <mxGeometry x="1750" y="1510" width="100" height="30" as="geometry" />
          </mxCell>
        </UserObject>
        <UserObject label="Data Type : Int" tags="Type" id="xkJ-JtNZi8FNMqeZ-mll-208">
          <mxCell style="rounded=1;whiteSpace=wrap;html=1;sketch=1;hachureGap=4;jiggle=2;curveFitting=1;fontFamily=Architects Daughter;fontSource=https%3A%2F%2Ffonts.googleapis.com%2Fcss%3Ffamily%3DArchitects%2BDaughter;fontSize=16;horizontal=1;fontStyle=1;strokeColor=#001DBC;fillStyle=auto;fillColor=#0050ef;fontColor=#ffffff;" parent="HFS7Y8xobeglULE5u90M-34" vertex="1">
            <mxGeometry x="1860" y="1510" width="190" height="30" as="geometry" />
          </mxCell>
        </UserObject>
        <UserObject label="XPath" tags="Behaviour" id="xkJ-JtNZi8FNMqeZ-mll-209">
          <mxCell style="rounded=1;whiteSpace=wrap;html=1;sketch=1;hachureGap=4;jiggle=2;curveFitting=1;fontFamily=Architects Daughter;fontSource=https%3A%2F%2Ffonts.googleapis.com%2Fcss%3Ffamily%3DArchitects%2BDaughter;fontSize=20;horizontal=1;fontStyle=1;fillStyle=auto;" parent="HFS7Y8xobeglULE5u90M-34" vertex="1">
            <mxGeometry x="1750" y="1590" width="100" height="30" as="geometry" />
          </mxCell>
        </UserObject>
        <UserObject label="Data Type : string" tags="Type" id="xkJ-JtNZi8FNMqeZ-mll-210">
          <mxCell style="rounded=1;whiteSpace=wrap;html=1;sketch=1;hachureGap=4;jiggle=2;curveFitting=1;fontFamily=Architects Daughter;fontSource=https%3A%2F%2Ffonts.googleapis.com%2Fcss%3Ffamily%3DArchitects%2BDaughter;fontSize=16;horizontal=1;fontStyle=1;strokeColor=#001DBC;fillStyle=auto;fillColor=#0050ef;fontColor=#ffffff;" parent="HFS7Y8xobeglULE5u90M-34" vertex="1">
            <mxGeometry x="1860" y="1590" width="190" height="30" as="geometry" />
          </mxCell>
        </UserObject>
        <UserObject label="URL" tags="Behaviour" id="dvnMM9Yq31Bd4QS2HTyY-26">
          <mxCell style="rounded=1;whiteSpace=wrap;html=1;sketch=1;hachureGap=4;jiggle=2;curveFitting=1;fontFamily=Architects Daughter;fontSource=https%3A%2F%2Ffonts.googleapis.com%2Fcss%3Ffamily%3DArchitects%2BDaughter;fontSize=20;horizontal=1;fontStyle=1;fillStyle=auto;fillColor=#a20025;fontColor=#ffffff;strokeColor=#6F0000;" parent="HFS7Y8xobeglULE5u90M-34" vertex="1">
            <mxGeometry x="990" y="1670" width="130" height="80" as="geometry" />
          </mxCell>
        </UserObject>
        <UserObject label="Data Type : Collection&lt;br&gt;Of Type URL" tags="Type" id="dvnMM9Yq31Bd4QS2HTyY-27">
          <mxCell style="rounded=1;whiteSpace=wrap;html=1;sketch=1;hachureGap=4;jiggle=2;curveFitting=1;fontFamily=Architects Daughter;fontSource=https%3A%2F%2Ffonts.googleapis.com%2Fcss%3Ffamily%3DArchitects%2BDaughter;fontSize=16;horizontal=1;fontStyle=1;strokeColor=#001DBC;fillStyle=auto;fillColor=#0050ef;fontColor=#ffffff;" parent="HFS7Y8xobeglULE5u90M-34" vertex="1">
            <mxGeometry x="1130" y="1670" width="190" height="40" as="geometry" />
          </mxCell>
        </UserObject>
        <UserObject label="Ref =&amp;gt; URL" tags="Type" id="dvnMM9Yq31Bd4QS2HTyY-28">
          <mxCell style="rounded=1;whiteSpace=wrap;html=1;sketch=1;hachureGap=4;jiggle=2;curveFitting=1;fontFamily=Architects Daughter;fontSource=https%3A%2F%2Ffonts.googleapis.com%2Fcss%3Ffamily%3DArchitects%2BDaughter;fontSize=16;horizontal=1;fontStyle=1;strokeColor=#2D7600;fillStyle=auto;fillColor=#60a917;fontColor=#ffffff;" parent="HFS7Y8xobeglULE5u90M-34" vertex="1">
            <mxGeometry x="1130" y="1720" width="190" height="30" as="geometry" />
          </mxCell>
        </UserObject>
        <UserObject label="Providers" tags="Behaviour" id="dvnMM9Yq31Bd4QS2HTyY-30">
          <mxCell style="rounded=1;whiteSpace=wrap;html=1;sketch=1;hachureGap=4;jiggle=2;curveFitting=1;fontFamily=Architects Daughter;fontSource=https%3A%2F%2Ffonts.googleapis.com%2Fcss%3Ffamily%3DArchitects%2BDaughter;fontSize=20;horizontal=1;fontStyle=1;fillStyle=auto;fillColor=#a20025;fontColor=#ffffff;strokeColor=#6F0000;" parent="HFS7Y8xobeglULE5u90M-34" vertex="1">
            <mxGeometry x="1750" y="1750" width="100" height="90" as="geometry" />
          </mxCell>
        </UserObject>
        <UserObject label="Articles" tags="Behaviour" id="dvnMM9Yq31Bd4QS2HTyY-33">
          <mxCell style="rounded=1;whiteSpace=wrap;html=1;sketch=1;hachureGap=4;jiggle=2;curveFitting=1;fontFamily=Architects Daughter;fontSource=https%3A%2F%2Ffonts.googleapis.com%2Fcss%3Ffamily%3DArchitects%2BDaughter;fontSize=20;horizontal=1;fontStyle=1;fillStyle=auto;fillColor=#a20025;fontColor=#ffffff;strokeColor=#6F0000;" parent="HFS7Y8xobeglULE5u90M-34" vertex="1">
            <mxGeometry x="1750" y="1850" width="100" height="90" as="geometry" />
          </mxCell>
        </UserObject>
        <UserObject label="Data Type : Collection&lt;br&gt;Of Type Providers" tags="Type" id="dvnMM9Yq31Bd4QS2HTyY-34">
          <mxCell style="rounded=1;whiteSpace=wrap;html=1;sketch=1;hachureGap=4;jiggle=2;curveFitting=1;fontFamily=Architects Daughter;fontSource=https%3A%2F%2Ffonts.googleapis.com%2Fcss%3Ffamily%3DArchitects%2BDaughter;fontSize=16;horizontal=1;fontStyle=1;strokeColor=#001DBC;fillStyle=auto;fillColor=#0050ef;fontColor=#ffffff;" parent="HFS7Y8xobeglULE5u90M-34" vertex="1">
            <mxGeometry x="1860" y="1750" width="190" height="50" as="geometry" />
          </mxCell>
        </UserObject>
        <UserObject label="Ref : Provider" tags="Type" id="dvnMM9Yq31Bd4QS2HTyY-35">
          <mxCell style="rounded=1;whiteSpace=wrap;html=1;sketch=1;hachureGap=4;jiggle=2;curveFitting=1;fontFamily=Architects Daughter;fontSource=https%3A%2F%2Ffonts.googleapis.com%2Fcss%3Ffamily%3DArchitects%2BDaughter;fontSize=16;horizontal=1;fontStyle=1;strokeColor=#2D7600;fillStyle=auto;fillColor=#60a917;fontColor=#ffffff;" parent="HFS7Y8xobeglULE5u90M-34" vertex="1">
            <mxGeometry x="1860" y="1810" width="190" height="30" as="geometry" />
          </mxCell>
        </UserObject>
        <UserObject label="Ref : Articles" tags="Type" id="dvnMM9Yq31Bd4QS2HTyY-36">
          <mxCell style="rounded=1;whiteSpace=wrap;html=1;sketch=1;hachureGap=4;jiggle=2;curveFitting=1;fontFamily=Architects Daughter;fontSource=https%3A%2F%2Ffonts.googleapis.com%2Fcss%3Ffamily%3DArchitects%2BDaughter;fontSize=16;horizontal=1;fontStyle=1;strokeColor=#2D7600;fillStyle=auto;fillColor=#60a917;fontColor=#ffffff;" parent="HFS7Y8xobeglULE5u90M-34" vertex="1">
            <mxGeometry x="1860" y="1910" width="190" height="30" as="geometry" />
          </mxCell>
        </UserObject>
        <UserObject label="Data Type : Collection&lt;br&gt;Of Type Articles" tags="Type" id="dvnMM9Yq31Bd4QS2HTyY-37">
          <mxCell style="rounded=1;whiteSpace=wrap;html=1;sketch=1;hachureGap=4;jiggle=2;curveFitting=1;fontFamily=Architects Daughter;fontSource=https%3A%2F%2Ffonts.googleapis.com%2Fcss%3Ffamily%3DArchitects%2BDaughter;fontSize=16;horizontal=1;fontStyle=1;strokeColor=#001DBC;fillStyle=auto;fillColor=#0050ef;fontColor=#ffffff;" parent="HFS7Y8xobeglULE5u90M-34" vertex="1">
            <mxGeometry x="1860" y="1850" width="190" height="50" as="geometry" />
          </mxCell>
        </UserObject>
        <mxCell id="dvnMM9Yq31Bd4QS2HTyY-45" value="" style="group" parent="HFS7Y8xobeglULE5u90M-34" vertex="1" connectable="0">
          <mxGeometry x="1740" y="-520" width="230" height="230" as="geometry" />
        </mxCell>
        <mxCell id="dvnMM9Yq31Bd4QS2HTyY-46" value="" style="shape=ext;double=1;whiteSpace=wrap;html=1;aspect=fixed;sketch=1;hachureGap=4;jiggle=2;curveFitting=1;fontFamily=Architects Daughter;fontSource=https%3A%2F%2Ffonts.googleapis.com%2Fcss%3Ffamily%3DArchitects%2BDaughter;fontSize=20;gradientColor=default;fillColor=none;" parent="dvnMM9Yq31Bd4QS2HTyY-45" vertex="1">
          <mxGeometry width="230" height="230" as="geometry" />
        </mxCell>
        <UserObject label="Article ID" tags="Property" tooltip="User Input Type , &#xa;Come as text ( string )" id="dvnMM9Yq31Bd4QS2HTyY-47">
          <mxCell style="rounded=1;whiteSpace=wrap;html=1;sketch=1;hachureGap=4;jiggle=2;curveFitting=1;fontFamily=Architects Daughter;fontSource=https%3A%2F%2Ffonts.googleapis.com%2Fcss%3Ffamily%3DArchitects%2BDaughter;fontSize=20;horizontal=1;fontStyle=1;aspect=fixed;fillColor=#d5e8d4;strokeColor=#82b366;" parent="dvnMM9Yq31Bd4QS2HTyY-45" vertex="1">
            <mxGeometry x="10" y="10" width="100" height="100" as="geometry" />
          </mxCell>
        </UserObject>
        <UserObject label="Int" tags="Type" id="dvnMM9Yq31Bd4QS2HTyY-48">
          <mxCell style="rounded=1;whiteSpace=wrap;html=1;sketch=1;hachureGap=4;jiggle=2;curveFitting=1;fontFamily=Architects Daughter;fontSource=https%3A%2F%2Ffonts.googleapis.com%2Fcss%3Ffamily%3DArchitects%2BDaughter;fontSize=16;horizontal=1;fontStyle=1;strokeColor=#001DBC;fillStyle=auto;fillColor=#0050ef;fontColor=#ffffff;" parent="dvnMM9Yq31Bd4QS2HTyY-45" vertex="1">
            <mxGeometry x="120" y="10" width="100" height="40" as="geometry" />
          </mxCell>
        </UserObject>
        <mxCell id="dvnMM9Yq31Bd4QS2HTyY-49" value="" style="group" parent="HFS7Y8xobeglULE5u90M-34" vertex="1" connectable="0">
          <mxGeometry x="1740" y="-750" width="230" height="230" as="geometry" />
        </mxCell>
        <mxCell id="dvnMM9Yq31Bd4QS2HTyY-50" value="" style="shape=ext;double=1;whiteSpace=wrap;html=1;aspect=fixed;sketch=1;hachureGap=4;jiggle=2;curveFitting=1;fontFamily=Architects Daughter;fontSource=https%3A%2F%2Ffonts.googleapis.com%2Fcss%3Ffamily%3DArchitects%2BDaughter;fontSize=20;gradientColor=default;fillColor=none;" parent="dvnMM9Yq31Bd4QS2HTyY-49" vertex="1">
          <mxGeometry width="230" height="230" as="geometry" />
        </mxCell>
        <UserObject label="Provider ID" tags="Property" tooltip="User Input Type , &#xa;Come as text ( string )" id="dvnMM9Yq31Bd4QS2HTyY-51">
          <mxCell style="rounded=1;whiteSpace=wrap;html=1;sketch=1;hachureGap=4;jiggle=2;curveFitting=1;fontFamily=Architects Daughter;fontSource=https%3A%2F%2Ffonts.googleapis.com%2Fcss%3Ffamily%3DArchitects%2BDaughter;fontSize=20;horizontal=1;fontStyle=1;aspect=fixed;fillColor=#d5e8d4;strokeColor=#82b366;" parent="dvnMM9Yq31Bd4QS2HTyY-49" vertex="1">
            <mxGeometry x="10" y="10" width="100" height="100" as="geometry" />
          </mxCell>
        </UserObject>
        <UserObject label="int" tags="Type" id="dvnMM9Yq31Bd4QS2HTyY-52">
          <mxCell style="rounded=1;whiteSpace=wrap;html=1;sketch=1;hachureGap=4;jiggle=2;curveFitting=1;fontFamily=Architects Daughter;fontSource=https%3A%2F%2Ffonts.googleapis.com%2Fcss%3Ffamily%3DArchitects%2BDaughter;fontSize=16;horizontal=1;fontStyle=1;strokeColor=#001DBC;fillStyle=auto;fillColor=#0050ef;fontColor=#ffffff;" parent="dvnMM9Yq31Bd4QS2HTyY-49" vertex="1">
            <mxGeometry x="120" y="10" width="100" height="30" as="geometry" />
          </mxCell>
        </UserObject>
        <mxCell id="dvnMM9Yq31Bd4QS2HTyY-54" value="" style="group" parent="HFS7Y8xobeglULE5u90M-34" vertex="1" connectable="0">
          <mxGeometry x="1200" y="-980" width="230" height="230" as="geometry" />
        </mxCell>
        <mxCell id="dvnMM9Yq31Bd4QS2HTyY-55" value="" style="shape=ext;double=1;whiteSpace=wrap;html=1;aspect=fixed;sketch=1;hachureGap=4;jiggle=2;curveFitting=1;fontFamily=Architects Daughter;fontSource=https%3A%2F%2Ffonts.googleapis.com%2Fcss%3Ffamily%3DArchitects%2BDaughter;fontSize=20;gradientColor=default;fillColor=none;" parent="dvnMM9Yq31Bd4QS2HTyY-54" vertex="1">
          <mxGeometry width="230" height="230" as="geometry" />
        </mxCell>
        <UserObject label="Name" tags="Property" tooltip="User Input Type , &#xa;Come as text ( string )" id="dvnMM9Yq31Bd4QS2HTyY-56">
          <mxCell style="rounded=1;whiteSpace=wrap;html=1;sketch=1;hachureGap=4;jiggle=2;curveFitting=1;fontFamily=Architects Daughter;fontSource=https%3A%2F%2Ffonts.googleapis.com%2Fcss%3Ffamily%3DArchitects%2BDaughter;fontSize=20;horizontal=1;fontStyle=1;aspect=fixed;fillColor=#d5e8d4;strokeColor=#82b366;" parent="dvnMM9Yq31Bd4QS2HTyY-54" vertex="1">
            <mxGeometry x="10" y="10" width="100" height="100" as="geometry" />
          </mxCell>
        </UserObject>
        <UserObject label="NVARCHAR&lt;br&gt;(max)" tags="Type" id="dvnMM9Yq31Bd4QS2HTyY-57">
          <mxCell style="rounded=1;whiteSpace=wrap;html=1;sketch=1;hachureGap=4;jiggle=2;curveFitting=1;fontFamily=Architects Daughter;fontSource=https%3A%2F%2Ffonts.googleapis.com%2Fcss%3Ffamily%3DArchitects%2BDaughter;fontSize=16;horizontal=1;fontStyle=1;strokeColor=#001DBC;fillStyle=auto;fillColor=#0050ef;fontColor=#ffffff;" parent="dvnMM9Yq31Bd4QS2HTyY-54" vertex="1">
            <mxGeometry x="120" y="10" width="100" height="40" as="geometry" />
          </mxCell>
        </UserObject>
        <mxCell id="dvnMM9Yq31Bd4QS2HTyY-59" value="" style="group" parent="HFS7Y8xobeglULE5u90M-34" vertex="1" connectable="0">
          <mxGeometry x="1200" y="-750" width="230" height="230" as="geometry" />
        </mxCell>
        <mxCell id="dvnMM9Yq31Bd4QS2HTyY-60" value="" style="shape=ext;double=1;whiteSpace=wrap;html=1;aspect=fixed;sketch=1;hachureGap=4;jiggle=2;curveFitting=1;fontFamily=Architects Daughter;fontSource=https%3A%2F%2Ffonts.googleapis.com%2Fcss%3Ffamily%3DArchitects%2BDaughter;fontSize=20;gradientColor=default;fillColor=none;" parent="dvnMM9Yq31Bd4QS2HTyY-59" vertex="1">
          <mxGeometry width="230" height="230" as="geometry" />
        </mxCell>
        <UserObject label="URL" tags="Property" tooltip="User Input Type , &#xa;Come as text ( string )" id="dvnMM9Yq31Bd4QS2HTyY-61">
          <mxCell style="rounded=1;whiteSpace=wrap;html=1;sketch=1;hachureGap=4;jiggle=2;curveFitting=1;fontFamily=Architects Daughter;fontSource=https%3A%2F%2Ffonts.googleapis.com%2Fcss%3Ffamily%3DArchitects%2BDaughter;fontSize=20;horizontal=1;fontStyle=1;aspect=fixed;fillColor=#d5e8d4;strokeColor=#82b366;" parent="dvnMM9Yq31Bd4QS2HTyY-59" vertex="1">
            <mxGeometry x="10" y="10" width="100" height="100" as="geometry" />
          </mxCell>
        </UserObject>
        <UserObject label="int" tags="Type" id="dvnMM9Yq31Bd4QS2HTyY-62">
          <mxCell style="rounded=1;whiteSpace=wrap;html=1;sketch=1;hachureGap=4;jiggle=2;curveFitting=1;fontFamily=Architects Daughter;fontSource=https%3A%2F%2Ffonts.googleapis.com%2Fcss%3Ffamily%3DArchitects%2BDaughter;fontSize=16;horizontal=1;fontStyle=1;strokeColor=#001DBC;fillStyle=auto;fillColor=#0050ef;fontColor=#ffffff;" parent="dvnMM9Yq31Bd4QS2HTyY-59" vertex="1">
            <mxGeometry x="120" y="10" width="100" height="30" as="geometry" />
          </mxCell>
        </UserObject>
        <UserObject label="Reference To :&amp;nbsp;&lt;br&gt;URL COllection&lt;br&gt;ID" tags="Type" id="rFXVlkwqTANBbjA_8EX2-4">
          <mxCell style="rounded=1;whiteSpace=wrap;html=1;sketch=1;hachureGap=4;jiggle=2;curveFitting=1;fontFamily=Architects Daughter;fontSource=https%3A%2F%2Ffonts.googleapis.com%2Fcss%3Ffamily%3DArchitects%2BDaughter;fontSize=16;horizontal=1;fontStyle=1;strokeColor=#2D7600;fillStyle=auto;fillColor=#60a917;fontColor=#ffffff;" parent="dvnMM9Yq31Bd4QS2HTyY-59" vertex="1">
            <mxGeometry x="120" y="50" width="100" height="100" as="geometry" />
          </mxCell>
        </UserObject>
        <mxCell id="dvnMM9Yq31Bd4QS2HTyY-67" style="edgeStyle=orthogonalEdgeStyle;rounded=0;sketch=1;hachureGap=4;jiggle=2;curveFitting=1;orthogonalLoop=1;jettySize=auto;html=1;entryX=0;entryY=0.5;entryDx=0;entryDy=0;fontFamily=Architects Daughter;fontSource=https%3A%2F%2Ffonts.googleapis.com%2Fcss%3Ffamily%3DArchitects%2BDaughter;fontSize=16;" parent="HFS7Y8xobeglULE5u90M-34" source="dvnMM9Yq31Bd4QS2HTyY-66" target="HFS7Y8xobeglULE5u90M-35" edge="1">
          <mxGeometry relative="1" as="geometry" />
        </mxCell>
        <UserObject label="Relations" tags="Class" id="dvnMM9Yq31Bd4QS2HTyY-66">
          <mxCell style="rounded=1;whiteSpace=wrap;html=1;sketch=1;hachureGap=4;jiggle=2;curveFitting=1;fontFamily=Architects Daughter;fontSource=https%3A%2F%2Ffonts.googleapis.com%2Fcss%3Ffamily%3DArchitects%2BDaughter;fontSize=30;horizontal=1;fontStyle=1;aspect=fixed;fillColor=#60a917;fontColor=#ffffff;strokeColor=#2D7600;container=0;" parent="HFS7Y8xobeglULE5u90M-34" vertex="1">
            <mxGeometry x="210" y="1340" width="150" height="150" as="geometry" />
          </mxCell>
        </UserObject>
        <mxCell id="dvnMM9Yq31Bd4QS2HTyY-70" value="To Do" style="shape=umlFrame;whiteSpace=wrap;html=1;pointerEvents=0;sketch=1;hachureGap=4;jiggle=2;curveFitting=1;fontFamily=Architects Daughter;fontSource=https%3A%2F%2Ffonts.googleapis.com%2Fcss%3Ffamily%3DArchitects%2BDaughter;fontSize=30;width=150;height=50;" parent="HFS7Y8xobeglULE5u90M-34" vertex="1">
          <mxGeometry x="2310" y="990" width="480" height="570" as="geometry" />
        </mxCell>
        <mxCell id="dvnMM9Yq31Bd4QS2HTyY-71" value="&lt;span style=&quot;font-size: 30px;&quot;&gt;Loop Throught Defined Articles&lt;/span&gt;" style="text;html=1;align=center;verticalAlign=middle;resizable=0;points=[];autosize=1;strokeColor=none;fillColor=none;fontSize=20;fontFamily=Architects Daughter;" parent="HFS7Y8xobeglULE5u90M-34" vertex="1">
          <mxGeometry x="2320" y="1050" width="470" height="50" as="geometry" />
        </mxCell>
        <mxCell id="dvnMM9Yq31Bd4QS2HTyY-72" value="&lt;span style=&quot;font-size: 30px;&quot;&gt;Foreach Article &lt;br&gt;Get a List of Xpath&lt;/span&gt;" style="text;html=1;align=center;verticalAlign=middle;resizable=0;points=[];autosize=1;strokeColor=none;fillColor=none;fontSize=20;fontFamily=Architects Daughter;" parent="HFS7Y8xobeglULE5u90M-34" vertex="1">
          <mxGeometry x="2410" y="1100" width="300" height="90" as="geometry" />
        </mxCell>
        <mxCell id="dvnMM9Yq31Bd4QS2HTyY-73" value="&lt;span style=&quot;font-size: 30px;&quot;&gt;Get Price From Web Using &lt;br&gt;Xpath And Web Address For&lt;br&gt;Each Article&lt;br&gt;&lt;/span&gt;" style="text;html=1;align=center;verticalAlign=middle;resizable=0;points=[];autosize=1;strokeColor=none;fillColor=none;fontSize=20;fontFamily=Architects Daughter;" parent="HFS7Y8xobeglULE5u90M-34" vertex="1">
          <mxGeometry x="2330" y="1200" width="430" height="120" as="geometry" />
        </mxCell>
        <mxCell id="dvnMM9Yq31Bd4QS2HTyY-74" value="&lt;span style=&quot;font-size: 30px;&quot;&gt;Create a Class that hold&amp;nbsp;&lt;br&gt;Article Instance&lt;br&gt;Provider Instnace&lt;br&gt;Founded Price&lt;br&gt;Founded Price Date&lt;br&gt;&lt;/span&gt;" style="text;html=1;align=center;verticalAlign=middle;resizable=0;points=[];autosize=1;strokeColor=none;fillColor=none;fontSize=20;fontFamily=Architects Daughter;" parent="HFS7Y8xobeglULE5u90M-34" vertex="1">
          <mxGeometry x="2370" y="1330" width="370" height="190" as="geometry" />
        </mxCell>
        <UserObject label="Prices" tags="Property" tooltip="User Input Type , &#xa;Come as text ( string )" id="6JLOtsv9MvYqzKThRbvU-0">
          <mxCell style="rounded=1;whiteSpace=wrap;html=1;sketch=1;hachureGap=4;jiggle=2;curveFitting=1;fontFamily=Architects Daughter;fontSource=https%3A%2F%2Ffonts.googleapis.com%2Fcss%3Ffamily%3DArchitects%2BDaughter;fontSize=20;horizontal=1;fontStyle=1;aspect=fixed;fillColor=#d5e8d4;strokeColor=#82b366;" parent="HFS7Y8xobeglULE5u90M-34" vertex="1">
            <mxGeometry x="2310" y="620" width="100" height="100" as="geometry" />
          </mxCell>
        </UserObject>
        <UserObject label="Price" tags="Behaviour" id="6JLOtsv9MvYqzKThRbvU-9">
          <mxCell style="rounded=1;whiteSpace=wrap;html=1;sketch=1;hachureGap=4;jiggle=2;curveFitting=1;fontFamily=Architects Daughter;fontSource=https%3A%2F%2Ffonts.googleapis.com%2Fcss%3Ffamily%3DArchitects%2BDaughter;fontSize=20;horizontal=1;fontStyle=1;fillStyle=auto;" parent="HFS7Y8xobeglULE5u90M-34" vertex="1">
            <mxGeometry x="2310" y="460" width="100" height="30" as="geometry" />
          </mxCell>
        </UserObject>
        <UserObject label="Date" tags="Behaviour" id="6JLOtsv9MvYqzKThRbvU-10">
          <mxCell style="rounded=1;whiteSpace=wrap;html=1;sketch=1;hachureGap=4;jiggle=2;curveFitting=1;fontFamily=Architects Daughter;fontSource=https%3A%2F%2Ffonts.googleapis.com%2Fcss%3Ffamily%3DArchitects%2BDaughter;fontSize=20;horizontal=1;fontStyle=1;fillStyle=auto;" parent="HFS7Y8xobeglULE5u90M-34" vertex="1">
            <mxGeometry x="2310" y="420" width="100" height="30" as="geometry" />
          </mxCell>
        </UserObject>
        <UserObject label="Data Type : DateTime" tags="Type" id="6JLOtsv9MvYqzKThRbvU-11">
          <mxCell style="rounded=1;whiteSpace=wrap;html=1;sketch=1;hachureGap=4;jiggle=2;curveFitting=1;fontFamily=Architects Daughter;fontSource=https%3A%2F%2Ffonts.googleapis.com%2Fcss%3Ffamily%3DArchitects%2BDaughter;fontSize=16;horizontal=1;fontStyle=1;strokeColor=#001DBC;fillStyle=auto;fillColor=#0050ef;fontColor=#ffffff;" parent="HFS7Y8xobeglULE5u90M-34" vertex="1">
            <mxGeometry x="2420" y="420" width="190" height="30" as="geometry" />
          </mxCell>
        </UserObject>
        <UserObject label="Data Type : Double" tags="Type" id="6JLOtsv9MvYqzKThRbvU-13">
          <mxCell style="rounded=1;whiteSpace=wrap;html=1;sketch=1;hachureGap=4;jiggle=2;curveFitting=1;fontFamily=Architects Daughter;fontSource=https%3A%2F%2Ffonts.googleapis.com%2Fcss%3Ffamily%3DArchitects%2BDaughter;fontSize=16;horizontal=1;fontStyle=1;strokeColor=#001DBC;fillStyle=auto;fillColor=#0050ef;fontColor=#ffffff;" parent="HFS7Y8xobeglULE5u90M-34" vertex="1">
            <mxGeometry x="2420" y="460" width="190" height="30" as="geometry" />
          </mxCell>
        </UserObject>
        <UserObject label="Price Collection" tags="Class" id="6JLOtsv9MvYqzKThRbvU-14">
          <mxCell style="rounded=1;whiteSpace=wrap;html=1;sketch=1;hachureGap=4;jiggle=2;curveFitting=1;fontFamily=Architects Daughter;fontSource=https%3A%2F%2Ffonts.googleapis.com%2Fcss%3Ffamily%3DArchitects%2BDaughter;fontSize=30;horizontal=1;fontStyle=1;aspect=fixed;fillColor=#60a917;fontColor=#ffffff;strokeColor=#2D7600;" parent="HFS7Y8xobeglULE5u90M-34" vertex="1">
            <mxGeometry x="970" y="-240" width="150" height="150" as="geometry" />
          </mxCell>
        </UserObject>
        <mxCell id="6JLOtsv9MvYqzKThRbvU-15" value="" style="group" parent="HFS7Y8xobeglULE5u90M-34" vertex="1" connectable="0">
          <mxGeometry x="930" y="-1210" width="230" height="230" as="geometry" />
        </mxCell>
        <mxCell id="6JLOtsv9MvYqzKThRbvU-16" value="" style="shape=ext;double=1;whiteSpace=wrap;html=1;aspect=fixed;sketch=1;hachureGap=4;jiggle=2;curveFitting=1;fontFamily=Architects Daughter;fontSource=https%3A%2F%2Ffonts.googleapis.com%2Fcss%3Ffamily%3DArchitects%2BDaughter;fontSize=20;gradientColor=default;fillColor=none;" parent="6JLOtsv9MvYqzKThRbvU-15" vertex="1">
          <mxGeometry width="230" height="230" as="geometry" />
        </mxCell>
        <UserObject label="Price" tags="Property" tooltip="User Input Type , &#xa;Come as text ( string )" id="6JLOtsv9MvYqzKThRbvU-17">
          <mxCell style="rounded=1;whiteSpace=wrap;html=1;sketch=1;hachureGap=4;jiggle=2;curveFitting=1;fontFamily=Architects Daughter;fontSource=https%3A%2F%2Ffonts.googleapis.com%2Fcss%3Ffamily%3DArchitects%2BDaughter;fontSize=20;horizontal=1;fontStyle=1;aspect=fixed;fillColor=#d5e8d4;strokeColor=#82b366;" parent="6JLOtsv9MvYqzKThRbvU-15" vertex="1">
            <mxGeometry x="10" y="10" width="100" height="100" as="geometry" />
          </mxCell>
        </UserObject>
        <UserObject label="Double" tags="Type" id="6JLOtsv9MvYqzKThRbvU-18">
          <mxCell style="rounded=1;whiteSpace=wrap;html=1;sketch=1;hachureGap=4;jiggle=2;curveFitting=1;fontFamily=Architects Daughter;fontSource=https%3A%2F%2Ffonts.googleapis.com%2Fcss%3Ffamily%3DArchitects%2BDaughter;fontSize=16;horizontal=1;fontStyle=1;strokeColor=#001DBC;fillStyle=auto;fillColor=#0050ef;fontColor=#ffffff;" parent="6JLOtsv9MvYqzKThRbvU-15" vertex="1">
            <mxGeometry x="120" y="10" width="100" height="30" as="geometry" />
          </mxCell>
        </UserObject>
        <mxCell id="6JLOtsv9MvYqzKThRbvU-20" value="" style="group" parent="HFS7Y8xobeglULE5u90M-34" vertex="1" connectable="0">
          <mxGeometry x="930" y="-1440" width="230" height="230" as="geometry" />
        </mxCell>
        <mxCell id="6JLOtsv9MvYqzKThRbvU-21" value="" style="shape=ext;double=1;whiteSpace=wrap;html=1;aspect=fixed;sketch=1;hachureGap=4;jiggle=2;curveFitting=1;fontFamily=Architects Daughter;fontSource=https%3A%2F%2Ffonts.googleapis.com%2Fcss%3Ffamily%3DArchitects%2BDaughter;fontSize=20;gradientColor=default;fillColor=none;" parent="6JLOtsv9MvYqzKThRbvU-20" vertex="1">
          <mxGeometry width="230" height="230" as="geometry" />
        </mxCell>
        <UserObject label="ID" tags="Property" tooltip="User Input Type , &#xa;Come as text ( string )" id="6JLOtsv9MvYqzKThRbvU-22">
          <mxCell style="rounded=1;whiteSpace=wrap;html=1;sketch=1;hachureGap=4;jiggle=2;curveFitting=1;fontFamily=Architects Daughter;fontSource=https%3A%2F%2Ffonts.googleapis.com%2Fcss%3Ffamily%3DArchitects%2BDaughter;fontSize=20;horizontal=1;fontStyle=1;aspect=fixed;fillColor=#d5e8d4;strokeColor=#82b366;" parent="6JLOtsv9MvYqzKThRbvU-20" vertex="1">
            <mxGeometry x="10" y="10" width="100" height="100" as="geometry" />
          </mxCell>
        </UserObject>
        <UserObject label="int" tags="Type" id="6JLOtsv9MvYqzKThRbvU-23">
          <mxCell style="rounded=1;whiteSpace=wrap;html=1;sketch=1;hachureGap=4;jiggle=2;curveFitting=1;fontFamily=Architects Daughter;fontSource=https%3A%2F%2Ffonts.googleapis.com%2Fcss%3Ffamily%3DArchitects%2BDaughter;fontSize=16;horizontal=1;fontStyle=1;strokeColor=#001DBC;fillStyle=auto;fillColor=#0050ef;fontColor=#ffffff;" parent="6JLOtsv9MvYqzKThRbvU-20" vertex="1">
            <mxGeometry x="120" y="10" width="100" height="30" as="geometry" />
          </mxCell>
        </UserObject>
        <UserObject label="Auto &lt;br&gt;Generated" tags="Type" id="6JLOtsv9MvYqzKThRbvU-24">
          <mxCell style="rounded=1;whiteSpace=wrap;html=1;sketch=1;hachureGap=4;jiggle=2;curveFitting=1;fontFamily=Architects Daughter;fontSource=https%3A%2F%2Ffonts.googleapis.com%2Fcss%3Ffamily%3DArchitects%2BDaughter;fontSize=16;horizontal=1;fontStyle=1;strokeColor=#6F0000;fillStyle=auto;fillColor=#a20025;fontColor=#ffffff;" parent="6JLOtsv9MvYqzKThRbvU-20" vertex="1">
            <mxGeometry x="120" y="50" width="100" height="40" as="geometry" />
          </mxCell>
        </UserObject>
        <mxCell id="6JLOtsv9MvYqzKThRbvU-26" value="" style="group" parent="HFS7Y8xobeglULE5u90M-34" vertex="1" connectable="0">
          <mxGeometry x="930" y="-750" width="230" height="230" as="geometry" />
        </mxCell>
        <mxCell id="6JLOtsv9MvYqzKThRbvU-27" value="" style="shape=ext;double=1;whiteSpace=wrap;html=1;aspect=fixed;sketch=1;hachureGap=4;jiggle=2;curveFitting=1;fontFamily=Architects Daughter;fontSource=https%3A%2F%2Ffonts.googleapis.com%2Fcss%3Ffamily%3DArchitects%2BDaughter;fontSize=20;gradientColor=default;fillColor=none;" parent="6JLOtsv9MvYqzKThRbvU-26" vertex="1">
          <mxGeometry width="230" height="230" as="geometry" />
        </mxCell>
        <UserObject label="Article ID" tags="Property" tooltip="User Input Type , &#xa;Come as text ( string )" id="6JLOtsv9MvYqzKThRbvU-28">
          <mxCell style="rounded=1;whiteSpace=wrap;html=1;sketch=1;hachureGap=4;jiggle=2;curveFitting=1;fontFamily=Architects Daughter;fontSource=https%3A%2F%2Ffonts.googleapis.com%2Fcss%3Ffamily%3DArchitects%2BDaughter;fontSize=20;horizontal=1;fontStyle=1;aspect=fixed;fillColor=#d5e8d4;strokeColor=#82b366;" parent="6JLOtsv9MvYqzKThRbvU-26" vertex="1">
            <mxGeometry x="10" y="10" width="100" height="100" as="geometry" />
          </mxCell>
        </UserObject>
        <UserObject label="int" tags="Type" id="6JLOtsv9MvYqzKThRbvU-29">
          <mxCell style="rounded=1;whiteSpace=wrap;html=1;sketch=1;hachureGap=4;jiggle=2;curveFitting=1;fontFamily=Architects Daughter;fontSource=https%3A%2F%2Ffonts.googleapis.com%2Fcss%3Ffamily%3DArchitects%2BDaughter;fontSize=16;horizontal=1;fontStyle=1;strokeColor=#001DBC;fillStyle=auto;fillColor=#0050ef;fontColor=#ffffff;" parent="6JLOtsv9MvYqzKThRbvU-26" vertex="1">
            <mxGeometry x="120" y="10" width="100" height="30" as="geometry" />
          </mxCell>
        </UserObject>
        <UserObject label="Reference To :&amp;nbsp;&lt;br&gt;Article&lt;br&gt;ID" tags="Type" id="6JLOtsv9MvYqzKThRbvU-30">
          <mxCell style="rounded=1;whiteSpace=wrap;html=1;sketch=1;hachureGap=4;jiggle=2;curveFitting=1;fontFamily=Architects Daughter;fontSource=https%3A%2F%2Ffonts.googleapis.com%2Fcss%3Ffamily%3DArchitects%2BDaughter;fontSize=16;horizontal=1;fontStyle=1;strokeColor=#2D7600;fillStyle=auto;fillColor=#60a917;fontColor=#ffffff;" parent="6JLOtsv9MvYqzKThRbvU-26" vertex="1">
            <mxGeometry x="120" y="50" width="100" height="100" as="geometry" />
          </mxCell>
        </UserObject>
        <mxCell id="6JLOtsv9MvYqzKThRbvU-31" value="" style="group" parent="HFS7Y8xobeglULE5u90M-34" vertex="1" connectable="0">
          <mxGeometry x="930" y="-520" width="230" height="230" as="geometry" />
        </mxCell>
        <mxCell id="6JLOtsv9MvYqzKThRbvU-32" value="" style="shape=ext;double=1;whiteSpace=wrap;html=1;aspect=fixed;sketch=1;hachureGap=4;jiggle=2;curveFitting=1;fontFamily=Architects Daughter;fontSource=https%3A%2F%2Ffonts.googleapis.com%2Fcss%3Ffamily%3DArchitects%2BDaughter;fontSize=20;gradientColor=default;fillColor=none;" parent="6JLOtsv9MvYqzKThRbvU-31" vertex="1">
          <mxGeometry width="230" height="230" as="geometry" />
        </mxCell>
        <UserObject label="Provider ID" tags="Property" tooltip="User Input Type , &#xa;Come as text ( string )" id="6JLOtsv9MvYqzKThRbvU-33">
          <mxCell style="rounded=1;whiteSpace=wrap;html=1;sketch=1;hachureGap=4;jiggle=2;curveFitting=1;fontFamily=Architects Daughter;fontSource=https%3A%2F%2Ffonts.googleapis.com%2Fcss%3Ffamily%3DArchitects%2BDaughter;fontSize=20;horizontal=1;fontStyle=1;aspect=fixed;fillColor=#d5e8d4;strokeColor=#82b366;" parent="6JLOtsv9MvYqzKThRbvU-31" vertex="1">
            <mxGeometry x="10" y="10" width="100" height="100" as="geometry" />
          </mxCell>
        </UserObject>
        <UserObject label="int" tags="Type" id="6JLOtsv9MvYqzKThRbvU-34">
          <mxCell style="rounded=1;whiteSpace=wrap;html=1;sketch=1;hachureGap=4;jiggle=2;curveFitting=1;fontFamily=Architects Daughter;fontSource=https%3A%2F%2Ffonts.googleapis.com%2Fcss%3Ffamily%3DArchitects%2BDaughter;fontSize=16;horizontal=1;fontStyle=1;strokeColor=#001DBC;fillStyle=auto;fillColor=#0050ef;fontColor=#ffffff;" parent="6JLOtsv9MvYqzKThRbvU-31" vertex="1">
            <mxGeometry x="120" y="10" width="100" height="30" as="geometry" />
          </mxCell>
        </UserObject>
        <UserObject label="Reference To :&amp;nbsp;&lt;br&gt;Providers&lt;br&gt;ID" tags="Type" id="6JLOtsv9MvYqzKThRbvU-35">
          <mxCell style="rounded=1;whiteSpace=wrap;html=1;sketch=1;hachureGap=4;jiggle=2;curveFitting=1;fontFamily=Architects Daughter;fontSource=https%3A%2F%2Ffonts.googleapis.com%2Fcss%3Ffamily%3DArchitects%2BDaughter;fontSize=16;horizontal=1;fontStyle=1;strokeColor=#2D7600;fillStyle=auto;fillColor=#60a917;fontColor=#ffffff;" parent="6JLOtsv9MvYqzKThRbvU-31" vertex="1">
            <mxGeometry x="120" y="50" width="100" height="100" as="geometry" />
          </mxCell>
        </UserObject>
        <mxCell id="6JLOtsv9MvYqzKThRbvU-36" value="" style="group" parent="HFS7Y8xobeglULE5u90M-34" vertex="1" connectable="0">
          <mxGeometry x="930" y="-980" width="230" height="230" as="geometry" />
        </mxCell>
        <mxCell id="6JLOtsv9MvYqzKThRbvU-37" value="" style="shape=ext;double=1;whiteSpace=wrap;html=1;aspect=fixed;sketch=1;hachureGap=4;jiggle=2;curveFitting=1;fontFamily=Architects Daughter;fontSource=https%3A%2F%2Ffonts.googleapis.com%2Fcss%3Ffamily%3DArchitects%2BDaughter;fontSize=20;gradientColor=default;fillColor=none;" parent="6JLOtsv9MvYqzKThRbvU-36" vertex="1">
          <mxGeometry width="230" height="230" as="geometry" />
        </mxCell>
        <UserObject label="DateTime" tags="Property" tooltip="User Input Type , &#xa;Come as text ( string )" id="6JLOtsv9MvYqzKThRbvU-38">
          <mxCell style="rounded=1;whiteSpace=wrap;html=1;sketch=1;hachureGap=4;jiggle=2;curveFitting=1;fontFamily=Architects Daughter;fontSource=https%3A%2F%2Ffonts.googleapis.com%2Fcss%3Ffamily%3DArchitects%2BDaughter;fontSize=20;horizontal=1;fontStyle=1;aspect=fixed;fillColor=#d5e8d4;strokeColor=#82b366;" parent="6JLOtsv9MvYqzKThRbvU-36" vertex="1">
            <mxGeometry x="10" y="10" width="100" height="100" as="geometry" />
          </mxCell>
        </UserObject>
        <UserObject label="DateTime" tags="Type" id="6JLOtsv9MvYqzKThRbvU-39">
          <mxCell style="rounded=1;whiteSpace=wrap;html=1;sketch=1;hachureGap=4;jiggle=2;curveFitting=1;fontFamily=Architects Daughter;fontSource=https%3A%2F%2Ffonts.googleapis.com%2Fcss%3Ffamily%3DArchitects%2BDaughter;fontSize=16;horizontal=1;fontStyle=1;strokeColor=#001DBC;fillStyle=auto;fillColor=#0050ef;fontColor=#ffffff;" parent="6JLOtsv9MvYqzKThRbvU-36" vertex="1">
            <mxGeometry x="120" y="10" width="100" height="30" as="geometry" />
          </mxCell>
        </UserObject>
        <mxCell id="6JLOtsv9MvYqzKThRbvU-61" style="edgeStyle=orthogonalEdgeStyle;rounded=0;sketch=1;hachureGap=4;jiggle=2;curveFitting=1;orthogonalLoop=1;jettySize=auto;html=1;entryX=0;entryY=0.5;entryDx=0;entryDy=0;fontFamily=Architects Daughter;fontSource=https%3A%2F%2Ffonts.googleapis.com%2Fcss%3Ffamily%3DArchitects%2BDaughter;fontSize=16;" parent="HFS7Y8xobeglULE5u90M-34" source="6JLOtsv9MvYqzKThRbvU-40" target="6JLOtsv9MvYqzKThRbvU-60" edge="1">
          <mxGeometry relative="1" as="geometry" />
        </mxCell>
        <UserObject label="Data OutPut" tags="Class" id="6JLOtsv9MvYqzKThRbvU-40">
          <mxCell style="rounded=1;whiteSpace=wrap;html=1;sketch=1;hachureGap=4;jiggle=2;curveFitting=1;fontFamily=Architects Daughter;fontSource=https%3A%2F%2Ffonts.googleapis.com%2Fcss%3Ffamily%3DArchitects%2BDaughter;fontSize=50;horizontal=1;fontStyle=1;aspect=fixed;fillColor=#6a00ff;fontColor=#ffffff;strokeColor=#3700CC;shadow=0;" parent="HFS7Y8xobeglULE5u90M-34" vertex="1">
            <mxGeometry x="2930" y="770" width="200" height="200" as="geometry" />
          </mxCell>
        </UserObject>
        <UserObject label="Prices" tags="Behaviour" id="6JLOtsv9MvYqzKThRbvU-47">
          <mxCell style="rounded=1;whiteSpace=wrap;html=1;sketch=1;hachureGap=4;jiggle=2;curveFitting=1;fontFamily=Architects Daughter;fontSource=https%3A%2F%2Ffonts.googleapis.com%2Fcss%3Ffamily%3DArchitects%2BDaughter;fontSize=20;horizontal=1;fontStyle=1;fillStyle=auto;fillColor=#a20025;fontColor=#ffffff;strokeColor=#6F0000;" parent="HFS7Y8xobeglULE5u90M-34" vertex="1">
            <mxGeometry x="990" y="1760" width="130" height="80" as="geometry" />
          </mxCell>
        </UserObject>
        <UserObject label="Data Type : Collection&lt;br&gt;Of Type Prices" tags="Type" id="6JLOtsv9MvYqzKThRbvU-48">
          <mxCell style="rounded=1;whiteSpace=wrap;html=1;sketch=1;hachureGap=4;jiggle=2;curveFitting=1;fontFamily=Architects Daughter;fontSource=https%3A%2F%2Ffonts.googleapis.com%2Fcss%3Ffamily%3DArchitects%2BDaughter;fontSize=16;horizontal=1;fontStyle=1;strokeColor=#001DBC;fillStyle=auto;fillColor=#0050ef;fontColor=#ffffff;" parent="HFS7Y8xobeglULE5u90M-34" vertex="1">
            <mxGeometry x="1130" y="1760" width="190" height="40" as="geometry" />
          </mxCell>
        </UserObject>
        <UserObject label="Ref =&amp;gt; Prices" tags="Type" id="6JLOtsv9MvYqzKThRbvU-49">
          <mxCell style="rounded=1;whiteSpace=wrap;html=1;sketch=1;hachureGap=4;jiggle=2;curveFitting=1;fontFamily=Architects Daughter;fontSource=https%3A%2F%2Ffonts.googleapis.com%2Fcss%3Ffamily%3DArchitects%2BDaughter;fontSize=16;horizontal=1;fontStyle=1;strokeColor=#2D7600;fillStyle=auto;fillColor=#60a917;fontColor=#ffffff;" parent="HFS7Y8xobeglULE5u90M-34" vertex="1">
            <mxGeometry x="1130" y="1810" width="190" height="30" as="geometry" />
          </mxCell>
        </UserObject>
        <UserObject label="Prices" tags="Behaviour" id="6JLOtsv9MvYqzKThRbvU-50">
          <mxCell style="rounded=1;whiteSpace=wrap;html=1;sketch=1;hachureGap=4;jiggle=2;curveFitting=1;fontFamily=Architects Daughter;fontSource=https%3A%2F%2Ffonts.googleapis.com%2Fcss%3Ffamily%3DArchitects%2BDaughter;fontSize=20;horizontal=1;fontStyle=1;fillStyle=auto;fillColor=#a20025;fontColor=#ffffff;strokeColor=#6F0000;" parent="HFS7Y8xobeglULE5u90M-34" vertex="1">
            <mxGeometry x="1370" y="1587" width="100" height="80" as="geometry" />
          </mxCell>
        </UserObject>
        <UserObject label="Data Type : Collection&lt;br&gt;Of Type Prices" tags="Type" id="6JLOtsv9MvYqzKThRbvU-51">
          <mxCell style="rounded=1;whiteSpace=wrap;html=1;sketch=1;hachureGap=4;jiggle=2;curveFitting=1;fontFamily=Architects Daughter;fontSource=https%3A%2F%2Ffonts.googleapis.com%2Fcss%3Ffamily%3DArchitects%2BDaughter;fontSize=16;horizontal=1;fontStyle=1;strokeColor=#001DBC;fillStyle=auto;fillColor=#0050ef;fontColor=#ffffff;" parent="HFS7Y8xobeglULE5u90M-34" vertex="1">
            <mxGeometry x="1480" y="1587" width="190" height="40" as="geometry" />
          </mxCell>
        </UserObject>
        <UserObject label="Ref =&amp;gt; Prices" tags="Type" id="6JLOtsv9MvYqzKThRbvU-52">
          <mxCell style="rounded=1;whiteSpace=wrap;html=1;sketch=1;hachureGap=4;jiggle=2;curveFitting=1;fontFamily=Architects Daughter;fontSource=https%3A%2F%2Ffonts.googleapis.com%2Fcss%3Ffamily%3DArchitects%2BDaughter;fontSize=16;horizontal=1;fontStyle=1;strokeColor=#2D7600;fillStyle=auto;fillColor=#60a917;fontColor=#ffffff;" parent="HFS7Y8xobeglULE5u90M-34" vertex="1">
            <mxGeometry x="1480" y="1637" width="190" height="30" as="geometry" />
          </mxCell>
        </UserObject>
        <mxCell id="6JLOtsv9MvYqzKThRbvU-63" style="edgeStyle=orthogonalEdgeStyle;rounded=0;sketch=1;hachureGap=4;jiggle=2;curveFitting=1;orthogonalLoop=1;jettySize=auto;html=1;entryX=0;entryY=0.5;entryDx=0;entryDy=0;fontFamily=Architects Daughter;fontSource=https%3A%2F%2Ffonts.googleapis.com%2Fcss%3Ffamily%3DArchitects%2BDaughter;fontSize=16;" parent="HFS7Y8xobeglULE5u90M-34" source="6JLOtsv9MvYqzKThRbvU-60" target="6JLOtsv9MvYqzKThRbvU-62" edge="1">
          <mxGeometry relative="1" as="geometry" />
        </mxCell>
        <mxCell id="6JLOtsv9MvYqzKThRbvU-65" style="edgeStyle=orthogonalEdgeStyle;rounded=0;sketch=1;hachureGap=4;jiggle=2;curveFitting=1;orthogonalLoop=1;jettySize=auto;html=1;entryX=0;entryY=0.5;entryDx=0;entryDy=0;fontFamily=Architects Daughter;fontSource=https%3A%2F%2Ffonts.googleapis.com%2Fcss%3Ffamily%3DArchitects%2BDaughter;fontSize=16;" parent="HFS7Y8xobeglULE5u90M-34" source="6JLOtsv9MvYqzKThRbvU-60" target="6JLOtsv9MvYqzKThRbvU-64" edge="1">
          <mxGeometry relative="1" as="geometry" />
        </mxCell>
        <mxCell id="6JLOtsv9MvYqzKThRbvU-67" style="edgeStyle=orthogonalEdgeStyle;rounded=0;sketch=1;hachureGap=4;jiggle=2;curveFitting=1;orthogonalLoop=1;jettySize=auto;html=1;entryX=0;entryY=0.5;entryDx=0;entryDy=0;fontFamily=Architects Daughter;fontSource=https%3A%2F%2Ffonts.googleapis.com%2Fcss%3Ffamily%3DArchitects%2BDaughter;fontSize=16;" parent="HFS7Y8xobeglULE5u90M-34" source="6JLOtsv9MvYqzKThRbvU-60" target="6JLOtsv9MvYqzKThRbvU-66" edge="1">
          <mxGeometry relative="1" as="geometry" />
        </mxCell>
        <UserObject label="Calculate Output" tags="Class" id="6JLOtsv9MvYqzKThRbvU-60">
          <mxCell style="rounded=1;whiteSpace=wrap;html=1;sketch=1;hachureGap=4;jiggle=2;curveFitting=1;fontFamily=Architects Daughter;fontSource=https%3A%2F%2Ffonts.googleapis.com%2Fcss%3Ffamily%3DArchitects%2BDaughter;fontSize=30;horizontal=1;fontStyle=1;aspect=fixed;fillColor=#60a917;fontColor=#ffffff;strokeColor=#2D7600;" parent="HFS7Y8xobeglULE5u90M-34" vertex="1">
            <mxGeometry x="3300" y="800" width="150" height="150" as="geometry" />
          </mxCell>
        </UserObject>
        <UserObject label="List Of Articles" tags="Property" tooltip="User Input Type , &#xa;Come as text ( string )" id="6JLOtsv9MvYqzKThRbvU-62">
          <mxCell style="rounded=1;whiteSpace=wrap;html=1;sketch=1;hachureGap=4;jiggle=2;curveFitting=1;fontFamily=Architects Daughter;fontSource=https%3A%2F%2Ffonts.googleapis.com%2Fcss%3Ffamily%3DArchitects%2BDaughter;fontSize=20;horizontal=1;fontStyle=1;aspect=fixed;fillColor=#d80073;fontColor=#ffffff;strokeColor=#A50040;" parent="HFS7Y8xobeglULE5u90M-34" vertex="1">
            <mxGeometry x="3540" y="850" width="100" height="100" as="geometry" />
          </mxCell>
        </UserObject>
        <UserObject label="List Of Prices" tags="Property" tooltip="User Input Type , &#xa;Come as text ( string )" id="6JLOtsv9MvYqzKThRbvU-64">
          <mxCell style="rounded=1;whiteSpace=wrap;html=1;sketch=1;hachureGap=4;jiggle=2;curveFitting=1;fontFamily=Architects Daughter;fontSource=https%3A%2F%2Ffonts.googleapis.com%2Fcss%3Ffamily%3DArchitects%2BDaughter;fontSize=20;horizontal=1;fontStyle=1;aspect=fixed;fillColor=#d80073;fontColor=#ffffff;strokeColor=#A50040;" parent="HFS7Y8xobeglULE5u90M-34" vertex="1">
            <mxGeometry x="3540" y="730" width="100" height="100" as="geometry" />
          </mxCell>
        </UserObject>
        <UserObject label="List Of Providers" tags="Property" tooltip="User Input Type , &#xa;Come as text ( string )" id="6JLOtsv9MvYqzKThRbvU-66">
          <mxCell style="rounded=1;whiteSpace=wrap;html=1;sketch=1;hachureGap=4;jiggle=2;curveFitting=1;fontFamily=Architects Daughter;fontSource=https%3A%2F%2Ffonts.googleapis.com%2Fcss%3Ffamily%3DArchitects%2BDaughter;fontSize=20;horizontal=1;fontStyle=1;aspect=fixed;fillColor=#d80073;fontColor=#ffffff;strokeColor=#A50040;" parent="HFS7Y8xobeglULE5u90M-34" vertex="1">
            <mxGeometry x="3540" y="620" width="100" height="100" as="geometry" />
          </mxCell>
        </UserObject>
        <UserObject label="URL" tags="Behaviour" id="mVtCi7DPLQseVXC23OUJ-0">
          <mxCell style="rounded=1;whiteSpace=wrap;html=1;sketch=1;hachureGap=4;jiggle=2;curveFitting=1;fontFamily=Architects Daughter;fontSource=https%3A%2F%2Ffonts.googleapis.com%2Fcss%3Ffamily%3DArchitects%2BDaughter;fontSize=20;horizontal=1;fontStyle=1;fillStyle=auto;" parent="HFS7Y8xobeglULE5u90M-34" vertex="1">
            <mxGeometry x="1750" y="1550" width="100" height="30" as="geometry" />
          </mxCell>
        </UserObject>
        <UserObject label="Data Type : string" tags="Type" id="mVtCi7DPLQseVXC23OUJ-1">
          <mxCell style="rounded=1;whiteSpace=wrap;html=1;sketch=1;hachureGap=4;jiggle=2;curveFitting=1;fontFamily=Architects Daughter;fontSource=https%3A%2F%2Ffonts.googleapis.com%2Fcss%3Ffamily%3DArchitects%2BDaughter;fontSize=16;horizontal=1;fontStyle=1;strokeColor=#001DBC;fillStyle=auto;fillColor=#0050ef;fontColor=#ffffff;" parent="HFS7Y8xobeglULE5u90M-34" vertex="1">
            <mxGeometry x="1860" y="1550" width="190" height="30" as="geometry" />
          </mxCell>
        </UserObject>
        <mxCell id="mVtCi7DPLQseVXC23OUJ-2" value="" style="group" parent="HFS7Y8xobeglULE5u90M-34" vertex="1" connectable="0">
          <mxGeometry x="1740" y="-980" width="230" height="230" as="geometry" />
        </mxCell>
        <mxCell id="mVtCi7DPLQseVXC23OUJ-3" value="" style="shape=ext;double=1;whiteSpace=wrap;html=1;aspect=fixed;sketch=1;hachureGap=4;jiggle=2;curveFitting=1;fontFamily=Architects Daughter;fontSource=https%3A%2F%2Ffonts.googleapis.com%2Fcss%3Ffamily%3DArchitects%2BDaughter;fontSize=20;gradientColor=default;fillColor=none;" parent="mVtCi7DPLQseVXC23OUJ-2" vertex="1">
          <mxGeometry width="230" height="230" as="geometry" />
        </mxCell>
        <UserObject label="URL" tags="Property" tooltip="User Input Type , &#xa;Come as text ( string )" id="mVtCi7DPLQseVXC23OUJ-4">
          <mxCell style="rounded=1;whiteSpace=wrap;html=1;sketch=1;hachureGap=4;jiggle=2;curveFitting=1;fontFamily=Architects Daughter;fontSource=https%3A%2F%2Ffonts.googleapis.com%2Fcss%3Ffamily%3DArchitects%2BDaughter;fontSize=20;horizontal=1;fontStyle=1;aspect=fixed;fillColor=#d5e8d4;strokeColor=#82b366;" parent="mVtCi7DPLQseVXC23OUJ-2" vertex="1">
            <mxGeometry x="10" y="10" width="100" height="100" as="geometry" />
          </mxCell>
        </UserObject>
        <UserObject label="NVARCHAR &lt;br&gt;(max)" tags="Type" id="mVtCi7DPLQseVXC23OUJ-5">
          <mxCell style="rounded=1;whiteSpace=wrap;html=1;sketch=1;hachureGap=4;jiggle=2;curveFitting=1;fontFamily=Architects Daughter;fontSource=https%3A%2F%2Ffonts.googleapis.com%2Fcss%3Ffamily%3DArchitects%2BDaughter;fontSize=16;horizontal=1;fontStyle=1;strokeColor=#001DBC;fillStyle=auto;fillColor=#0050ef;fontColor=#ffffff;" parent="mVtCi7DPLQseVXC23OUJ-2" vertex="1">
            <mxGeometry x="120" y="10" width="100" height="40" as="geometry" />
          </mxCell>
        </UserObject>
        <mxCell id="rFXVlkwqTANBbjA_8EX2-0" value="" style="group" parent="HFS7Y8xobeglULE5u90M-34" vertex="1" connectable="0">
          <mxGeometry x="1200" y="-520" width="230" height="230" as="geometry" />
        </mxCell>
        <mxCell id="rFXVlkwqTANBbjA_8EX2-1" value="" style="shape=ext;double=1;whiteSpace=wrap;html=1;aspect=fixed;sketch=1;hachureGap=4;jiggle=2;curveFitting=1;fontFamily=Architects Daughter;fontSource=https%3A%2F%2Ffonts.googleapis.com%2Fcss%3Ffamily%3DArchitects%2BDaughter;fontSize=20;gradientColor=default;fillColor=none;" parent="rFXVlkwqTANBbjA_8EX2-0" vertex="1">
          <mxGeometry width="230" height="230" as="geometry" />
        </mxCell>
        <UserObject label="Prices" tags="Property" tooltip="User Input Type , &#xa;Come as text ( string )" id="rFXVlkwqTANBbjA_8EX2-2">
          <mxCell style="rounded=1;whiteSpace=wrap;html=1;sketch=1;hachureGap=4;jiggle=2;curveFitting=1;fontFamily=Architects Daughter;fontSource=https%3A%2F%2Ffonts.googleapis.com%2Fcss%3Ffamily%3DArchitects%2BDaughter;fontSize=20;horizontal=1;fontStyle=1;aspect=fixed;fillColor=#d5e8d4;strokeColor=#82b366;" parent="rFXVlkwqTANBbjA_8EX2-0" vertex="1">
            <mxGeometry x="10" y="10" width="100" height="100" as="geometry" />
          </mxCell>
        </UserObject>
        <UserObject label="int" tags="Type" id="rFXVlkwqTANBbjA_8EX2-3">
          <mxCell style="rounded=1;whiteSpace=wrap;html=1;sketch=1;hachureGap=4;jiggle=2;curveFitting=1;fontFamily=Architects Daughter;fontSource=https%3A%2F%2Ffonts.googleapis.com%2Fcss%3Ffamily%3DArchitects%2BDaughter;fontSize=16;horizontal=1;fontStyle=1;strokeColor=#001DBC;fillStyle=auto;fillColor=#0050ef;fontColor=#ffffff;" parent="rFXVlkwqTANBbjA_8EX2-0" vertex="1">
            <mxGeometry x="120" y="10" width="100" height="30" as="geometry" />
          </mxCell>
        </UserObject>
        <UserObject label="Reference To :&amp;nbsp;&lt;br&gt;Price Collection&lt;br&gt;ID" tags="Type" id="rFXVlkwqTANBbjA_8EX2-5">
          <mxCell style="rounded=1;whiteSpace=wrap;html=1;sketch=1;hachureGap=4;jiggle=2;curveFitting=1;fontFamily=Architects Daughter;fontSource=https%3A%2F%2Ffonts.googleapis.com%2Fcss%3Ffamily%3DArchitects%2BDaughter;fontSize=16;horizontal=1;fontStyle=1;strokeColor=#2D7600;fillStyle=auto;fillColor=#60a917;fontColor=#ffffff;" parent="rFXVlkwqTANBbjA_8EX2-0" vertex="1">
            <mxGeometry x="120" y="50" width="100" height="100" as="geometry" />
          </mxCell>
        </UserObject>
        <UserObject label="ID" tags="Behaviour" id="rFXVlkwqTANBbjA_8EX2-6">
          <mxCell style="rounded=1;whiteSpace=wrap;html=1;sketch=1;hachureGap=4;jiggle=2;curveFitting=1;fontFamily=Architects Daughter;fontSource=https%3A%2F%2Ffonts.googleapis.com%2Fcss%3Ffamily%3DArchitects%2BDaughter;fontSize=20;horizontal=1;fontStyle=1;fillStyle=auto;" parent="HFS7Y8xobeglULE5u90M-34" vertex="1">
            <mxGeometry x="2310" y="380" width="100" height="30" as="geometry" />
          </mxCell>
        </UserObject>
        <UserObject label="Data Type : Int" tags="Type" id="rFXVlkwqTANBbjA_8EX2-7">
          <mxCell style="rounded=1;whiteSpace=wrap;html=1;sketch=1;hachureGap=4;jiggle=2;curveFitting=1;fontFamily=Architects Daughter;fontSource=https%3A%2F%2Ffonts.googleapis.com%2Fcss%3Ffamily%3DArchitects%2BDaughter;fontSize=16;horizontal=1;fontStyle=1;strokeColor=#001DBC;fillStyle=auto;fillColor=#0050ef;fontColor=#ffffff;" parent="HFS7Y8xobeglULE5u90M-34" vertex="1">
            <mxGeometry x="2420" y="380" width="190" height="30" as="geometry" />
          </mxCell>
        </UserObject>
        <UserObject label="URL ID" tags="Behaviour" id="rFXVlkwqTANBbjA_8EX2-8">
          <mxCell style="rounded=1;whiteSpace=wrap;html=1;sketch=1;hachureGap=4;jiggle=2;curveFitting=1;fontFamily=Architects Daughter;fontSource=https%3A%2F%2Ffonts.googleapis.com%2Fcss%3Ffamily%3DArchitects%2BDaughter;fontSize=20;horizontal=1;fontStyle=1;fillStyle=auto;" parent="HFS7Y8xobeglULE5u90M-34" vertex="1">
            <mxGeometry x="990" y="1590" width="130" height="30" as="geometry" />
          </mxCell>
        </UserObject>
        <UserObject label="Prices ID" tags="Behaviour" id="rFXVlkwqTANBbjA_8EX2-9">
          <mxCell style="rounded=1;whiteSpace=wrap;html=1;sketch=1;hachureGap=4;jiggle=2;curveFitting=1;fontFamily=Architects Daughter;fontSource=https%3A%2F%2Ffonts.googleapis.com%2Fcss%3Ffamily%3DArchitects%2BDaughter;fontSize=20;horizontal=1;fontStyle=1;fillStyle=auto;" parent="HFS7Y8xobeglULE5u90M-34" vertex="1">
            <mxGeometry x="990" y="1630" width="130" height="30" as="geometry" />
          </mxCell>
        </UserObject>
        <UserObject label="Data Type : int" tags="Type" id="rFXVlkwqTANBbjA_8EX2-10">
          <mxCell style="rounded=1;whiteSpace=wrap;html=1;sketch=1;hachureGap=4;jiggle=2;curveFitting=1;fontFamily=Architects Daughter;fontSource=https%3A%2F%2Ffonts.googleapis.com%2Fcss%3Ffamily%3DArchitects%2BDaughter;fontSize=16;horizontal=1;fontStyle=1;strokeColor=#001DBC;fillStyle=auto;fillColor=#0050ef;fontColor=#ffffff;" parent="HFS7Y8xobeglULE5u90M-34" vertex="1">
            <mxGeometry x="1130" y="1630" width="190" height="30" as="geometry" />
          </mxCell>
        </UserObject>
        <UserObject label="Data Type : int" tags="Type" id="rFXVlkwqTANBbjA_8EX2-11">
          <mxCell style="rounded=1;whiteSpace=wrap;html=1;sketch=1;hachureGap=4;jiggle=2;curveFitting=1;fontFamily=Architects Daughter;fontSource=https%3A%2F%2Ffonts.googleapis.com%2Fcss%3Ffamily%3DArchitects%2BDaughter;fontSize=16;horizontal=1;fontStyle=1;strokeColor=#001DBC;fillStyle=auto;fillColor=#0050ef;fontColor=#ffffff;" parent="HFS7Y8xobeglULE5u90M-34" vertex="1">
            <mxGeometry x="1130" y="1590" width="190" height="30" as="geometry" />
          </mxCell>
        </UserObject>
        <UserObject label="Provider ID" tags="Behaviour" id="rFXVlkwqTANBbjA_8EX2-15">
          <mxCell style="rounded=1;whiteSpace=wrap;html=1;sketch=1;hachureGap=4;jiggle=2;curveFitting=1;fontFamily=Architects Daughter;fontSource=https%3A%2F%2Ffonts.googleapis.com%2Fcss%3Ffamily%3DArchitects%2BDaughter;fontSize=20;horizontal=1;fontStyle=1;fillStyle=auto;" parent="HFS7Y8xobeglULE5u90M-34" vertex="1">
            <mxGeometry x="1750" y="1630" width="100" height="50" as="geometry" />
          </mxCell>
        </UserObject>
        <UserObject label="Articles&lt;br&gt;ID" tags="Behaviour" id="rFXVlkwqTANBbjA_8EX2-16">
          <mxCell style="rounded=1;whiteSpace=wrap;html=1;sketch=1;hachureGap=4;jiggle=2;curveFitting=1;fontFamily=Architects Daughter;fontSource=https%3A%2F%2Ffonts.googleapis.com%2Fcss%3Ffamily%3DArchitects%2BDaughter;fontSize=20;horizontal=1;fontStyle=1;fillStyle=auto;" parent="HFS7Y8xobeglULE5u90M-34" vertex="1">
            <mxGeometry x="1750" y="1690" width="100" height="50" as="geometry" />
          </mxCell>
        </UserObject>
        <UserObject label="Data Type : Int" tags="Type" id="rFXVlkwqTANBbjA_8EX2-17">
          <mxCell style="rounded=1;whiteSpace=wrap;html=1;sketch=1;hachureGap=4;jiggle=2;curveFitting=1;fontFamily=Architects Daughter;fontSource=https%3A%2F%2Ffonts.googleapis.com%2Fcss%3Ffamily%3DArchitects%2BDaughter;fontSize=16;horizontal=1;fontStyle=1;strokeColor=#001DBC;fillStyle=auto;fillColor=#0050ef;fontColor=#ffffff;" parent="HFS7Y8xobeglULE5u90M-34" vertex="1">
            <mxGeometry x="1860" y="1630" width="190" height="50" as="geometry" />
          </mxCell>
        </UserObject>
        <UserObject label="Data Type : Int" tags="Type" id="rFXVlkwqTANBbjA_8EX2-18">
          <mxCell style="rounded=1;whiteSpace=wrap;html=1;sketch=1;hachureGap=4;jiggle=2;curveFitting=1;fontFamily=Architects Daughter;fontSource=https%3A%2F%2Ffonts.googleapis.com%2Fcss%3Ffamily%3DArchitects%2BDaughter;fontSize=16;horizontal=1;fontStyle=1;strokeColor=#001DBC;fillStyle=auto;fillColor=#0050ef;fontColor=#ffffff;" parent="HFS7Y8xobeglULE5u90M-34" vertex="1">
            <mxGeometry x="1860" y="1690" width="190" height="50" as="geometry" />
          </mxCell>
        </UserObject>
        <UserObject label="Provider ID" tags="Behaviour" id="rFXVlkwqTANBbjA_8EX2-19">
          <mxCell style="rounded=1;whiteSpace=wrap;html=1;sketch=1;hachureGap=4;jiggle=2;curveFitting=1;fontFamily=Architects Daughter;fontSource=https%3A%2F%2Ffonts.googleapis.com%2Fcss%3Ffamily%3DArchitects%2BDaughter;fontSize=20;horizontal=1;fontStyle=1;fillStyle=auto;" parent="HFS7Y8xobeglULE5u90M-34" vertex="1">
            <mxGeometry x="2310" y="500" width="100" height="50" as="geometry" />
          </mxCell>
        </UserObject>
        <UserObject label="Article ID" tags="Behaviour" id="rFXVlkwqTANBbjA_8EX2-20">
          <mxCell style="rounded=1;whiteSpace=wrap;html=1;sketch=1;hachureGap=4;jiggle=2;curveFitting=1;fontFamily=Architects Daughter;fontSource=https%3A%2F%2Ffonts.googleapis.com%2Fcss%3Ffamily%3DArchitects%2BDaughter;fontSize=20;horizontal=1;fontStyle=1;fillStyle=auto;" parent="HFS7Y8xobeglULE5u90M-34" vertex="1">
            <mxGeometry x="2310" y="560" width="100" height="50" as="geometry" />
          </mxCell>
        </UserObject>
        <UserObject label="Data Type : Int" tags="Type" id="rFXVlkwqTANBbjA_8EX2-21">
          <mxCell style="rounded=1;whiteSpace=wrap;html=1;sketch=1;hachureGap=4;jiggle=2;curveFitting=1;fontFamily=Architects Daughter;fontSource=https%3A%2F%2Ffonts.googleapis.com%2Fcss%3Ffamily%3DArchitects%2BDaughter;fontSize=16;horizontal=1;fontStyle=1;strokeColor=#001DBC;fillStyle=auto;fillColor=#0050ef;fontColor=#ffffff;" parent="HFS7Y8xobeglULE5u90M-34" vertex="1">
            <mxGeometry x="2420" y="500" width="190" height="50" as="geometry" />
          </mxCell>
        </UserObject>
        <UserObject label="Data Type : Int" tags="Type" id="rFXVlkwqTANBbjA_8EX2-22">
          <mxCell style="rounded=1;whiteSpace=wrap;html=1;sketch=1;hachureGap=4;jiggle=2;curveFitting=1;fontFamily=Architects Daughter;fontSource=https%3A%2F%2Ffonts.googleapis.com%2Fcss%3Ffamily%3DArchitects%2BDaughter;fontSize=16;horizontal=1;fontStyle=1;strokeColor=#001DBC;fillStyle=auto;fillColor=#0050ef;fontColor=#ffffff;" parent="HFS7Y8xobeglULE5u90M-34" vertex="1">
            <mxGeometry x="2420" y="560" width="190" height="50" as="geometry" />
          </mxCell>
        </UserObject>
        <mxCell id="5-AEt_n_oSi8HQ1IMmqt-14" value="Referense Connections" parent="0" />
      </root>
    </mxGraphModel>
  </diagram>
  <diagram id="QM-nICeKZQLx1se8FayX" name="UI Scatch">
    <mxGraphModel dx="1867" dy="953" grid="1" gridSize="10" guides="1" tooltips="1" connect="1" arrows="1" fold="1" page="0" pageScale="1" pageWidth="1000" pageHeight="1000" math="0" shadow="0">
      <root>
        <mxCell id="0" />
        <mxCell id="1" parent="0" />
        <mxCell id="QO2k0HDRkLdL8GlaAIO6-1" value="داشبورد" style="shape=umlFrame;whiteSpace=wrap;html=1;pointerEvents=0;sketch=1;hachureGap=4;jiggle=2;curveFitting=1;fontFamily=Architects Daughter;fontSource=https%3A%2F%2Ffonts.googleapis.com%2Fcss%3Ffamily%3DArchitects%2BDaughter;fontSize=50;width=420;height=80;" parent="1" vertex="1">
          <mxGeometry width="420" height="400" as="geometry" />
        </mxCell>
        <mxCell id="QO2k0HDRkLdL8GlaAIO6-3" value="گزینه ها" style="swimlane;sketch=1;hachureGap=4;jiggle=2;curveFitting=1;fontFamily=Architects Daughter;fontSource=https%3A%2F%2Ffonts.googleapis.com%2Fcss%3Ffamily%3DArchitects%2BDaughter;fontSize=20;rotation=0;" parent="1" vertex="1">
          <mxGeometry x="300" y="120" width="120" height="280" as="geometry">
            <mxRectangle x="180" y="220" width="130" height="40" as="alternateBounds" />
          </mxGeometry>
        </mxCell>
        <mxCell id="QO2k0HDRkLdL8GlaAIO6-4" value="تعریفات اولیه" style="rounded=1;whiteSpace=wrap;html=1;sketch=1;hachureGap=4;jiggle=2;curveFitting=1;fontFamily=Architects Daughter;fontSource=https%3A%2F%2Ffonts.googleapis.com%2Fcss%3Ffamily%3DArchitects%2BDaughter;fontSize=20;" parent="1" vertex="1">
          <mxGeometry x="300" y="150" width="120" height="40" as="geometry" />
        </mxCell>
        <mxCell id="QO2k0HDRkLdL8GlaAIO6-6" value="گزارشات" style="rounded=1;whiteSpace=wrap;html=1;sketch=1;hachureGap=4;jiggle=2;curveFitting=1;fontFamily=Architects Daughter;fontSource=https%3A%2F%2Ffonts.googleapis.com%2Fcss%3Ffamily%3DArchitects%2BDaughter;fontSize=20;" parent="1" vertex="1">
          <mxGeometry x="300" y="199.17000000000002" width="120" height="40" as="geometry" />
        </mxCell>
        <mxCell id="QO2k0HDRkLdL8GlaAIO6-7" value="کالاهای تعریف شده" style="swimlane;fontStyle=0;childLayout=stackLayout;horizontal=1;startSize=30;horizontalStack=0;resizeParent=1;resizeParentMax=0;resizeLast=0;collapsible=1;marginBottom=0;whiteSpace=wrap;html=1;sketch=1;hachureGap=4;jiggle=2;curveFitting=1;fontFamily=Architects Daughter;fontSource=https%3A%2F%2Ffonts.googleapis.com%2Fcss%3Ffamily%3DArchitects%2BDaughter;fontSize=20;" parent="1" vertex="1">
          <mxGeometry x="10" y="120" width="170" height="230" as="geometry">
            <mxRectangle x="-170" y="190" width="170" height="40" as="alternateBounds" />
          </mxGeometry>
        </mxCell>
        <mxCell id="QO2k0HDRkLdL8GlaAIO6-8" value="IPhone 13 ProMax 256/8gb Black RUA" style="text;strokeColor=none;fillColor=none;align=left;verticalAlign=middle;spacingLeft=4;spacingRight=4;overflow=hidden;points=[[0,0.5],[1,0.5]];portConstraint=eastwest;rotatable=0;whiteSpace=wrap;html=1;fontSize=20;fontFamily=Architects Daughter;" parent="QO2k0HDRkLdL8GlaAIO6-7" vertex="1">
          <mxGeometry y="30" width="170" height="80" as="geometry" />
        </mxCell>
        <mxCell id="QO2k0HDRkLdL8GlaAIO6-9" value="Samsung Galaxy S23 Ultra" style="text;strokeColor=none;fillColor=none;align=left;verticalAlign=middle;spacingLeft=4;spacingRight=4;overflow=hidden;points=[[0,0.5],[1,0.5]];portConstraint=eastwest;rotatable=0;whiteSpace=wrap;html=1;fontSize=20;fontFamily=Architects Daughter;" parent="QO2k0HDRkLdL8GlaAIO6-7" vertex="1">
          <mxGeometry y="110" width="170" height="60" as="geometry" />
        </mxCell>
        <mxCell id="QO2k0HDRkLdL8GlaAIO6-10" value="Item 3" style="text;strokeColor=none;fillColor=none;align=left;verticalAlign=middle;spacingLeft=4;spacingRight=4;overflow=hidden;points=[[0,0.5],[1,0.5]];portConstraint=eastwest;rotatable=0;whiteSpace=wrap;html=1;fontSize=20;fontFamily=Architects Daughter;" parent="QO2k0HDRkLdL8GlaAIO6-7" vertex="1">
          <mxGeometry y="170" width="170" height="30" as="geometry" />
        </mxCell>
        <mxCell id="QO2k0HDRkLdL8GlaAIO6-11" value="Item 3" style="text;strokeColor=none;fillColor=none;align=left;verticalAlign=middle;spacingLeft=4;spacingRight=4;overflow=hidden;points=[[0,0.5],[1,0.5]];portConstraint=eastwest;rotatable=0;whiteSpace=wrap;html=1;fontSize=20;fontFamily=Architects Daughter;" parent="QO2k0HDRkLdL8GlaAIO6-7" vertex="1">
          <mxGeometry y="200" width="170" height="30" as="geometry" />
        </mxCell>
        <mxCell id="QO2k0HDRkLdL8GlaAIO6-12" value="" style="shape=stencil(lVfLctswDPwaXTEkQRLkOU3/IzNxak9dO+O4r78vPKoUgbTW9k2PhUhgFwtq4KeP7cv7Zgju43w6ft/83r2etwN/GULYHbab0+6sVwM/D/z0djxtvp2OPw+v4/37ywV5ufpx/HX5wp8xLhC7S1Bwf8cHjtz44OsI3+8OC7jX18ngPbmwjtfvx2zwgTL4PnsqFs8kcR0fA4kYfKRU1vEpErPBJ/IAnzP53OAzyFcqpRZfeR1fHcVq8POC1/FC1TX5ZlCfWijZ+gjkq1byFu+ZSoUB/9efCVYGEgyolgEWKoIkN0tyrumsqrUlihWp0ig4iWRXUB4Z7EnLWosJKAUmoQFst1Tj1HlrRGdLRE3kUA4zsXOAx1LKFO2WSqCKtJHJWarFU0DiS1TslpJM7XdngPZ3xjk0WwqFBKmvS9pr3RBxXVmVaJRCx1uk6h8RRiLB+EZ5XmlGJHTaVouHltF1DzMFoIsrDRplssE7PSAH8tg0GpeRdMsCGh8raqxI3J1RVu0G3G+NE6t6+SHrvhXQzYaqXgyY64ePmgwSdz/dLq700PjUgALK2s9nTTqCgP4AoC0bQJX6E4YWOj50hPnsqesrtEekheCvrzBZ0GIBNBL91F6LogZAmyOxGReBNXXEVkdSYIUc+aY7hQR4Xj+fMzxk9HbBVGG+zX443KhPk69WOIFW7urpw2QG9/GVYHk6OfhpBt0nNyy2m3C9+Dz8v+32+/HfYfm+/VnQR+OPBj//Aw==);lineShape=1;strokeColor=default;sketch=1;hachureGap=4;jiggle=2;curveFitting=1;fontFamily=Architects Daughter;fontSource=https%3A%2F%2Ffonts.googleapis.com%2Fcss%3Ffamily%3DArchitects%2BDaughter;fontSize=20;" parent="1" vertex="1">
          <mxGeometry x="440" y="195.76999999999998" width="104.22" height="3.4" as="geometry" />
        </mxCell>
        <mxCell id="QO2k0HDRkLdL8GlaAIO6-13" value="" style="shape=stencil(rVbLbttADPwaXYldkvvgOU3/I0Cc2qhrB47Tx9+XqiDHpCSiBXqTZQ5FDmeHO9DD2/7pdTdgertezl93Pw7P1/1AnwbEw2m/uxyu+jTQ40APL+fL7svl/H56nn6/Po2R49O38/cxw88J1xukNqIw/ZreSINe/rz5PAGOh9MdoCWQZAA9A/E2oDA0C6gMOW8DmKAWA9AUibYBKNDRAEig4DYgF8i2aWTgFnwB2FaUCXLfjleOqo3PgGF8ZsspiEThyaavUIKRJWg2OwMG/CNkOy8EDMjU2WQTrp8LWq2A1YWnoPYOFV14pJ2coLOLl0CcGaGKa5aDcnTu0hyXJaqH58l8jKoHQtN46vY4AkX5CXihtFIDQIZuG9YUFGhNPKFaYk2BP0AhG19mh1m3B8ji87egAfJ+pfXXQG957u6OIAnqSUDkBhDJWdVrD0sDCrOzzc6zU2wUX6waEHpghORrzzO5G9SzpSaFvtCWRysFQtCjmMnFl2hQ6ONVqv8xfqTaKYdDZfLNmW7sS+hVhaA4o6V50ax7oS7CxabDwK568quxxaTqMq9uW9fQzaVDs6LQG0KN/EGgWv/vAhwt37Q4M6KHNFCSfkJs10JxE+L3tcQmpF27yUmdl+YWr+h8us+zXAcUaHaRaZHR4ZTFppHbNWcdoOfBfuGO6XVEWjShZhc4QFeamu9aAvn98+3yLwD68HGZfTkcj9Nd+P5/f/nVV9PFmR5/Aw==);lineShape=1;strokeColor=default;sketch=1;hachureGap=4;jiggle=2;curveFitting=1;fontFamily=Architects Daughter;fontSource=https%3A%2F%2Ffonts.googleapis.com%2Fcss%3Ffamily%3DArchitects%2BDaughter;fontSize=20;" parent="1" vertex="1">
          <mxGeometry x="519.5634190710432" y="173.92365727082944" width="26.145056112646564" height="25.25087953931033" as="geometry" />
        </mxCell>
        <mxCell id="QO2k0HDRkLdL8GlaAIO6-14" value="" style="shape=stencil(lVbbbhtBCP2afUUDzI3nNP2PSHHqVV07ctw2+ftibWe7gz2oedvLOQMDHGDih7f90+tuovB2OZ++737Pz5f9xF8movm4353niz5N/Djxw8vpvPt2Pv08Pi/vr09X5PXpx+nX9YT3hScZYrqyKHwsXzBCWb58XQiH+bghVIJcOgJFwDomZAHuLXAGLmNCylBqR4gCWcaEqOeFjpAJouMSC5TYEQpDcCxQgpw7gkQI6BAYqL+DBvqvzbsEFKh9WKW6ecAExRD0CI+AENkSJIwJBUisR+LcmW3a9MriZAFvQhSBaYwPEPo6EgR0khaAsMPXAuKloMV7xUeoXtlBMueTW9e1ebviA2TPHy1i6qtUXIcw39wguBHSEJXeQsV2qVFZS19DVbPuETIEQ8iQskuovZartEIfEdDogEC8S0eg3oIkVwdaGGgI1e14WNrvjdKSlziy4seg1e74VCGjtcCO+GNrDSu+tNQPtCDVxoicLARgtEkgJ83r7TZZ9voptva84hNU5/xP4/V3r4ScWvsbTQST40SATkS5WJfYb6fppuzUppfjXG5GOblB1e5Qe5eoDdL7eLYeoTs1Nea5H7NrmdzHV7sp+CLQ/h+qwXvtTtiuLqHp7j5e+4KRpdtZVFNGZQzRw4udCKmNxBFezEBwRbZpIqss3QmrBszE0aWB2SFUO2OR3db46XXzPwj68G+7fZkPh2U53v6327B+WjZpfvwD);lineShape=1;strokeColor=default;sketch=1;hachureGap=4;jiggle=2;curveFitting=1;fontFamily=Architects Daughter;fontSource=https%3A%2F%2Ffonts.googleapis.com%2Fcss%3Ffamily%3DArchitects%2BDaughter;fontSize=20;" parent="1" vertex="1">
          <mxGeometry x="519.5628341940123" y="195.76785473973405" width="22.726869365805054" height="30.30833357220846" as="geometry" />
        </mxCell>
        <mxCell id="QO2k0HDRkLdL8GlaAIO6-16" value="تعریفات اولیه" style="shape=umlFrame;whiteSpace=wrap;html=1;pointerEvents=0;sketch=1;hachureGap=4;jiggle=2;curveFitting=1;fontFamily=Architects Daughter;fontSource=https%3A%2F%2Ffonts.googleapis.com%2Fcss%3Ffamily%3DArchitects%2BDaughter;fontSize=50;width=740;height=80;" parent="1" vertex="1">
          <mxGeometry x="570" width="740" height="570" as="geometry" />
        </mxCell>
        <mxCell id="QO2k0HDRkLdL8GlaAIO6-20" value="قسمت تعریفات انجام شده" style="swimlane;whiteSpace=wrap;html=1;sketch=1;hachureGap=4;jiggle=2;curveFitting=1;fontFamily=Architects Daughter;fontSource=https%3A%2F%2Ffonts.googleapis.com%2Fcss%3Ffamily%3DArchitects%2BDaughter;fontSize=20;" parent="1" vertex="1">
          <mxGeometry x="570" y="80" width="370" height="490" as="geometry" />
        </mxCell>
        <mxCell id="QO2k0HDRkLdL8GlaAIO6-21" value="قسمت تعریفات کالا" style="swimlane;whiteSpace=wrap;html=1;sketch=1;hachureGap=4;jiggle=2;curveFitting=1;fontFamily=Architects Daughter;fontSource=https%3A%2F%2Ffonts.googleapis.com%2Fcss%3Ffamily%3DArchitects%2BDaughter;fontSize=20;startSize=23;" parent="1" vertex="1">
          <mxGeometry x="940" y="80" width="370" height="490" as="geometry" />
        </mxCell>
        <mxCell id="QO2k0HDRkLdL8GlaAIO6-33" value="به روزرسانی" style="labelPosition=center;verticalLabelPosition=middle;align=center;html=1;shape=mxgraph.basic.button;dx=10;whiteSpace=wrap;sketch=1;hachureGap=4;jiggle=2;curveFitting=1;fontFamily=Architects Daughter;fontSource=https%3A%2F%2Ffonts.googleapis.com%2Fcss%3Ffamily%3DArchitects%2BDaughter;fontSize=20;" parent="QO2k0HDRkLdL8GlaAIO6-21" vertex="1">
          <mxGeometry x="110" y="440" width="140" height="36.08" as="geometry" />
        </mxCell>
        <mxCell id="yj06wGerMoeoNLlN-An6-18" value="حذف" style="labelPosition=center;verticalLabelPosition=middle;align=center;html=1;shape=mxgraph.basic.button;dx=10;whiteSpace=wrap;sketch=1;hachureGap=4;jiggle=2;curveFitting=1;fontFamily=Architects Daughter;fontSource=https%3A%2F%2Ffonts.googleapis.com%2Fcss%3Ffamily%3DArchitects%2BDaughter;fontSize=20;" parent="QO2k0HDRkLdL8GlaAIO6-21" vertex="1">
          <mxGeometry x="10" y="440" width="90" height="36.08" as="geometry" />
        </mxCell>
        <mxCell id="QO2k0HDRkLdL8GlaAIO6-32" value="تامین کننده" style="labelPosition=center;verticalLabelPosition=middle;align=center;html=1;shape=mxgraph.basic.button;dx=10;whiteSpace=wrap;sketch=1;hachureGap=4;jiggle=2;curveFitting=1;fontFamily=Architects Daughter;fontSource=https%3A%2F%2Ffonts.googleapis.com%2Fcss%3Ffamily%3DArchitects%2BDaughter;fontSize=20;" parent="QO2k0HDRkLdL8GlaAIO6-21" vertex="1">
          <mxGeometry x="20" y="370" width="330" height="36.08" as="geometry" />
        </mxCell>
        <mxCell id="QO2k0HDRkLdL8GlaAIO6-22" value="کالاهای تعریف شده جهت انتخاب" style="swimlane;fontStyle=0;childLayout=stackLayout;horizontal=1;startSize=30;horizontalStack=0;resizeParent=1;resizeParentMax=0;resizeLast=0;collapsible=1;marginBottom=0;whiteSpace=wrap;html=1;sketch=1;hachureGap=4;jiggle=2;curveFitting=1;fontFamily=Architects Daughter;fontSource=https%3A%2F%2Ffonts.googleapis.com%2Fcss%3Ffamily%3DArchitects%2BDaughter;fontSize=20;" parent="1" vertex="1">
          <mxGeometry x="570" y="110" width="370" height="460" as="geometry" />
        </mxCell>
        <mxCell id="QO2k0HDRkLdL8GlaAIO6-23" value="لیست کالاهای تعریف شده با قابلیت&lt;br&gt;&amp;nbsp;حذف و بروزرسانی" style="text;strokeColor=none;fillColor=none;align=center;verticalAlign=middle;spacingLeft=4;spacingRight=4;overflow=hidden;points=[[0,0.5],[1,0.5]];portConstraint=eastwest;rotatable=0;whiteSpace=wrap;html=1;fontSize=20;fontFamily=Architects Daughter;" parent="QO2k0HDRkLdL8GlaAIO6-22" vertex="1">
          <mxGeometry y="30" width="370" height="430" as="geometry" />
        </mxCell>
        <mxCell id="QO2k0HDRkLdL8GlaAIO6-26" value="نام کالا" style="rounded=0;whiteSpace=wrap;html=1;sketch=1;hachureGap=4;jiggle=2;curveFitting=1;fontFamily=Architects Daughter;fontSource=https%3A%2F%2Ffonts.googleapis.com%2Fcss%3Ffamily%3DArchitects%2BDaughter;fontSize=20;" parent="1" vertex="1">
          <mxGeometry x="960" y="120" width="330" height="40" as="geometry" />
        </mxCell>
        <mxCell id="QO2k0HDRkLdL8GlaAIO6-31" value="آدرس سایت مربوط به کالا" style="rounded=0;whiteSpace=wrap;html=1;sketch=1;hachureGap=4;jiggle=2;curveFitting=1;fontFamily=Architects Daughter;fontSource=https%3A%2F%2Ffonts.googleapis.com%2Fcss%3Ffamily%3DArchitects%2BDaughter;fontSize=20;verticalAlign=top;" parent="1" vertex="1">
          <mxGeometry x="960" y="174.54" width="330" height="35.46" as="geometry" />
        </mxCell>
        <mxCell id="yj06wGerMoeoNLlN-An6-5" value="تامین کننده ها جهت انتخاب" style="shape=table;startSize=30;container=1;collapsible=0;childLayout=tableLayout;strokeColor=default;fontSize=16;sketch=1;hachureGap=4;jiggle=2;curveFitting=1;fontFamily=Architects Daughter;fontSource=https%3A%2F%2Ffonts.googleapis.com%2Fcss%3Ffamily%3DArchitects%2BDaughter;" parent="1" vertex="1">
          <mxGeometry x="960" y="270" width="330" height="170" as="geometry" />
        </mxCell>
        <mxCell id="yj06wGerMoeoNLlN-An6-6" value="" style="shape=tableRow;horizontal=0;startSize=0;swimlaneHead=0;swimlaneBody=0;strokeColor=inherit;top=0;left=0;bottom=0;right=0;collapsible=0;dropTarget=0;fillColor=none;points=[[0,0.5],[1,0.5]];portConstraint=eastwest;fontSize=16;sketch=1;hachureGap=4;jiggle=2;curveFitting=1;fontFamily=Architects Daughter;fontSource=https%3A%2F%2Ffonts.googleapis.com%2Fcss%3Ffamily%3DArchitects%2BDaughter;" parent="yj06wGerMoeoNLlN-An6-5" vertex="1">
          <mxGeometry y="30" width="330" height="47" as="geometry" />
        </mxCell>
        <mxCell id="z1qtBpSUgBSeH7LBYNiq-2" value="اعتبار" style="shape=partialRectangle;html=1;whiteSpace=wrap;connectable=0;strokeColor=inherit;overflow=hidden;fillColor=none;top=0;left=0;bottom=0;right=0;pointerEvents=1;fontSize=16;sketch=1;hachureGap=4;jiggle=2;curveFitting=1;fontFamily=Architects Daughter;fontSource=https%3A%2F%2Ffonts.googleapis.com%2Fcss%3Ffamily%3DArchitects%2BDaughter;" parent="yj06wGerMoeoNLlN-An6-6" vertex="1">
          <mxGeometry width="82" height="47" as="geometry">
            <mxRectangle width="82" height="47" as="alternateBounds" />
          </mxGeometry>
        </mxCell>
        <mxCell id="yj06wGerMoeoNLlN-An6-19" value="منبع سایت" style="shape=partialRectangle;html=1;whiteSpace=wrap;connectable=0;strokeColor=inherit;overflow=hidden;fillColor=none;top=0;left=0;bottom=0;right=0;pointerEvents=1;fontSize=16;sketch=1;hachureGap=4;jiggle=2;curveFitting=1;fontFamily=Architects Daughter;fontSource=https%3A%2F%2Ffonts.googleapis.com%2Fcss%3Ffamily%3DArchitects%2BDaughter;" parent="yj06wGerMoeoNLlN-An6-6" vertex="1">
          <mxGeometry x="82" width="83" height="47" as="geometry">
            <mxRectangle width="83" height="47" as="alternateBounds" />
          </mxGeometry>
        </mxCell>
        <mxCell id="yj06wGerMoeoNLlN-An6-7" value="آدرس سایت" style="shape=partialRectangle;html=1;whiteSpace=wrap;connectable=0;strokeColor=inherit;overflow=hidden;fillColor=none;top=0;left=0;bottom=0;right=0;pointerEvents=1;fontSize=16;sketch=1;hachureGap=4;jiggle=2;curveFitting=1;fontFamily=Architects Daughter;fontSource=https%3A%2F%2Ffonts.googleapis.com%2Fcss%3Ffamily%3DArchitects%2BDaughter;" parent="yj06wGerMoeoNLlN-An6-6" vertex="1">
          <mxGeometry x="165" width="82" height="47" as="geometry">
            <mxRectangle width="82" height="47" as="alternateBounds" />
          </mxGeometry>
        </mxCell>
        <mxCell id="yj06wGerMoeoNLlN-An6-8" value="تامین کننده" style="shape=partialRectangle;html=1;whiteSpace=wrap;connectable=0;strokeColor=inherit;overflow=hidden;fillColor=none;top=0;left=0;bottom=0;right=0;pointerEvents=1;fontSize=16;sketch=1;hachureGap=4;jiggle=2;curveFitting=1;fontFamily=Architects Daughter;fontSource=https%3A%2F%2Ffonts.googleapis.com%2Fcss%3Ffamily%3DArchitects%2BDaughter;" parent="yj06wGerMoeoNLlN-An6-6" vertex="1">
          <mxGeometry x="247" width="83" height="47" as="geometry">
            <mxRectangle width="83" height="47" as="alternateBounds" />
          </mxGeometry>
        </mxCell>
        <mxCell id="yj06wGerMoeoNLlN-An6-10" value="" style="shape=tableRow;horizontal=0;startSize=0;swimlaneHead=0;swimlaneBody=0;strokeColor=inherit;top=0;left=0;bottom=0;right=0;collapsible=0;dropTarget=0;fillColor=none;points=[[0,0.5],[1,0.5]];portConstraint=eastwest;fontSize=16;sketch=1;hachureGap=4;jiggle=2;curveFitting=1;fontFamily=Architects Daughter;fontSource=https%3A%2F%2Ffonts.googleapis.com%2Fcss%3Ffamily%3DArchitects%2BDaughter;" parent="yj06wGerMoeoNLlN-An6-5" vertex="1">
          <mxGeometry y="77" width="330" height="46" as="geometry" />
        </mxCell>
        <mxCell id="z1qtBpSUgBSeH7LBYNiq-3" style="shape=partialRectangle;html=1;whiteSpace=wrap;connectable=0;strokeColor=inherit;overflow=hidden;fillColor=none;top=0;left=0;bottom=0;right=0;pointerEvents=1;fontSize=16;sketch=1;hachureGap=4;jiggle=2;curveFitting=1;fontFamily=Architects Daughter;fontSource=https%3A%2F%2Ffonts.googleapis.com%2Fcss%3Ffamily%3DArchitects%2BDaughter;" parent="yj06wGerMoeoNLlN-An6-10" vertex="1">
          <mxGeometry width="82" height="46" as="geometry">
            <mxRectangle width="82" height="46" as="alternateBounds" />
          </mxGeometry>
        </mxCell>
        <mxCell id="yj06wGerMoeoNLlN-An6-20" style="shape=partialRectangle;html=1;whiteSpace=wrap;connectable=0;strokeColor=inherit;overflow=hidden;fillColor=none;top=0;left=0;bottom=0;right=0;pointerEvents=1;fontSize=16;sketch=1;hachureGap=4;jiggle=2;curveFitting=1;fontFamily=Architects Daughter;fontSource=https%3A%2F%2Ffonts.googleapis.com%2Fcss%3Ffamily%3DArchitects%2BDaughter;" parent="yj06wGerMoeoNLlN-An6-10" vertex="1">
          <mxGeometry x="82" width="83" height="46" as="geometry">
            <mxRectangle width="83" height="46" as="alternateBounds" />
          </mxGeometry>
        </mxCell>
        <mxCell id="yj06wGerMoeoNLlN-An6-11" value="" style="shape=partialRectangle;html=1;whiteSpace=wrap;connectable=0;strokeColor=inherit;overflow=hidden;fillColor=none;top=0;left=0;bottom=0;right=0;pointerEvents=1;fontSize=16;sketch=1;hachureGap=4;jiggle=2;curveFitting=1;fontFamily=Architects Daughter;fontSource=https%3A%2F%2Ffonts.googleapis.com%2Fcss%3Ffamily%3DArchitects%2BDaughter;" parent="yj06wGerMoeoNLlN-An6-10" vertex="1">
          <mxGeometry x="165" width="82" height="46" as="geometry">
            <mxRectangle width="82" height="46" as="alternateBounds" />
          </mxGeometry>
        </mxCell>
        <mxCell id="yj06wGerMoeoNLlN-An6-12" value="" style="shape=partialRectangle;html=1;whiteSpace=wrap;connectable=0;strokeColor=inherit;overflow=hidden;fillColor=none;top=0;left=0;bottom=0;right=0;pointerEvents=1;fontSize=16;sketch=1;hachureGap=4;jiggle=2;curveFitting=1;fontFamily=Architects Daughter;fontSource=https%3A%2F%2Ffonts.googleapis.com%2Fcss%3Ffamily%3DArchitects%2BDaughter;" parent="yj06wGerMoeoNLlN-An6-10" vertex="1">
          <mxGeometry x="247" width="83" height="46" as="geometry">
            <mxRectangle width="83" height="46" as="alternateBounds" />
          </mxGeometry>
        </mxCell>
        <mxCell id="yj06wGerMoeoNLlN-An6-14" value="" style="shape=tableRow;horizontal=0;startSize=0;swimlaneHead=0;swimlaneBody=0;strokeColor=inherit;top=0;left=0;bottom=0;right=0;collapsible=0;dropTarget=0;fillColor=none;points=[[0,0.5],[1,0.5]];portConstraint=eastwest;fontSize=16;sketch=1;hachureGap=4;jiggle=2;curveFitting=1;fontFamily=Architects Daughter;fontSource=https%3A%2F%2Ffonts.googleapis.com%2Fcss%3Ffamily%3DArchitects%2BDaughter;" parent="yj06wGerMoeoNLlN-An6-5" vertex="1">
          <mxGeometry y="123" width="330" height="47" as="geometry" />
        </mxCell>
        <mxCell id="z1qtBpSUgBSeH7LBYNiq-4" style="shape=partialRectangle;html=1;whiteSpace=wrap;connectable=0;strokeColor=inherit;overflow=hidden;fillColor=none;top=0;left=0;bottom=0;right=0;pointerEvents=1;fontSize=16;sketch=1;hachureGap=4;jiggle=2;curveFitting=1;fontFamily=Architects Daughter;fontSource=https%3A%2F%2Ffonts.googleapis.com%2Fcss%3Ffamily%3DArchitects%2BDaughter;" parent="yj06wGerMoeoNLlN-An6-14" vertex="1">
          <mxGeometry width="82" height="47" as="geometry">
            <mxRectangle width="82" height="47" as="alternateBounds" />
          </mxGeometry>
        </mxCell>
        <mxCell id="yj06wGerMoeoNLlN-An6-21" style="shape=partialRectangle;html=1;whiteSpace=wrap;connectable=0;strokeColor=inherit;overflow=hidden;fillColor=none;top=0;left=0;bottom=0;right=0;pointerEvents=1;fontSize=16;sketch=1;hachureGap=4;jiggle=2;curveFitting=1;fontFamily=Architects Daughter;fontSource=https%3A%2F%2Ffonts.googleapis.com%2Fcss%3Ffamily%3DArchitects%2BDaughter;" parent="yj06wGerMoeoNLlN-An6-14" vertex="1">
          <mxGeometry x="82" width="83" height="47" as="geometry">
            <mxRectangle width="83" height="47" as="alternateBounds" />
          </mxGeometry>
        </mxCell>
        <mxCell id="yj06wGerMoeoNLlN-An6-15" value="" style="shape=partialRectangle;html=1;whiteSpace=wrap;connectable=0;strokeColor=inherit;overflow=hidden;fillColor=none;top=0;left=0;bottom=0;right=0;pointerEvents=1;fontSize=16;sketch=1;hachureGap=4;jiggle=2;curveFitting=1;fontFamily=Architects Daughter;fontSource=https%3A%2F%2Ffonts.googleapis.com%2Fcss%3Ffamily%3DArchitects%2BDaughter;" parent="yj06wGerMoeoNLlN-An6-14" vertex="1">
          <mxGeometry x="165" width="82" height="47" as="geometry">
            <mxRectangle width="82" height="47" as="alternateBounds" />
          </mxGeometry>
        </mxCell>
        <mxCell id="yj06wGerMoeoNLlN-An6-16" value="" style="shape=partialRectangle;html=1;whiteSpace=wrap;connectable=0;strokeColor=inherit;overflow=hidden;fillColor=none;top=0;left=0;bottom=0;right=0;pointerEvents=1;fontSize=16;sketch=1;hachureGap=4;jiggle=2;curveFitting=1;fontFamily=Architects Daughter;fontSource=https%3A%2F%2Ffonts.googleapis.com%2Fcss%3Ffamily%3DArchitects%2BDaughter;" parent="yj06wGerMoeoNLlN-An6-14" vertex="1">
          <mxGeometry x="247" width="83" height="47" as="geometry">
            <mxRectangle width="83" height="47" as="alternateBounds" />
          </mxGeometry>
        </mxCell>
        <mxCell id="yj06wGerMoeoNLlN-An6-22" value="گزارشات" style="shape=umlFrame;whiteSpace=wrap;html=1;pointerEvents=0;sketch=1;hachureGap=4;jiggle=2;curveFitting=1;fontFamily=Architects Daughter;fontSource=https%3A%2F%2Ffonts.googleapis.com%2Fcss%3Ffamily%3DArchitects%2BDaughter;fontSize=50;width=740;height=80;" parent="1" vertex="1">
          <mxGeometry x="570" y="600" width="740" height="570" as="geometry" />
        </mxCell>
        <mxCell id="yj06wGerMoeoNLlN-An6-25" value="خروجی اکسل" style="labelPosition=center;verticalLabelPosition=middle;align=center;html=1;shape=mxgraph.basic.button;dx=10;whiteSpace=wrap;sketch=1;hachureGap=4;jiggle=2;curveFitting=1;fontFamily=Architects Daughter;fontSource=https%3A%2F%2Ffonts.googleapis.com%2Fcss%3Ffamily%3DArchitects%2BDaughter;fontSize=20;" parent="1" vertex="1">
          <mxGeometry x="580" y="1100" width="130" height="60" as="geometry" />
        </mxCell>
        <mxCell id="yj06wGerMoeoNLlN-An6-26" value="بروزرسانی قیمت" style="labelPosition=center;verticalLabelPosition=middle;align=center;html=1;shape=mxgraph.basic.button;dx=10;whiteSpace=wrap;sketch=1;hachureGap=4;jiggle=2;curveFitting=1;fontFamily=Architects Daughter;fontSource=https%3A%2F%2Ffonts.googleapis.com%2Fcss%3Ffamily%3DArchitects%2BDaughter;fontSize=20;" parent="1" vertex="1">
          <mxGeometry x="1140" y="1100" width="160" height="60" as="geometry" />
        </mxCell>
        <mxCell id="yj06wGerMoeoNLlN-An6-27" value="لیست کالاهای تعریف شده" style="shape=table;startSize=30;container=1;collapsible=0;childLayout=tableLayout;strokeColor=default;fontSize=16;sketch=1;hachureGap=4;jiggle=2;curveFitting=1;fontFamily=Architects Daughter;fontSource=https%3A%2F%2Ffonts.googleapis.com%2Fcss%3Ffamily%3DArchitects%2BDaughter;" parent="1" vertex="1">
          <mxGeometry x="590" y="690" width="710" height="390" as="geometry" />
        </mxCell>
        <mxCell id="yj06wGerMoeoNLlN-An6-28" value="" style="shape=tableRow;horizontal=0;startSize=0;swimlaneHead=0;swimlaneBody=0;strokeColor=inherit;top=0;left=0;bottom=0;right=0;collapsible=0;dropTarget=0;fillColor=none;points=[[0,0.5],[1,0.5]];portConstraint=eastwest;fontSize=16;sketch=1;hachureGap=4;jiggle=2;curveFitting=1;fontFamily=Architects Daughter;fontSource=https%3A%2F%2Ffonts.googleapis.com%2Fcss%3Ffamily%3DArchitects%2BDaughter;" parent="yj06wGerMoeoNLlN-An6-27" vertex="1">
          <mxGeometry y="30" width="710" height="120" as="geometry" />
        </mxCell>
        <mxCell id="yj06wGerMoeoNLlN-An6-43" value="تاریخ قیمت" style="shape=partialRectangle;html=1;whiteSpace=wrap;connectable=0;strokeColor=inherit;overflow=hidden;fillColor=none;top=0;left=0;bottom=0;right=0;pointerEvents=1;fontSize=16;sketch=1;hachureGap=4;jiggle=2;curveFitting=1;fontFamily=Architects Daughter;fontSource=https%3A%2F%2Ffonts.googleapis.com%2Fcss%3Ffamily%3DArchitects%2BDaughter;" parent="yj06wGerMoeoNLlN-An6-28" vertex="1">
          <mxGeometry width="178" height="120" as="geometry">
            <mxRectangle width="178" height="120" as="alternateBounds" />
          </mxGeometry>
        </mxCell>
        <mxCell id="yj06wGerMoeoNLlN-An6-40" value="قیمت" style="shape=partialRectangle;html=1;whiteSpace=wrap;connectable=0;strokeColor=inherit;overflow=hidden;fillColor=none;top=0;left=0;bottom=0;right=0;pointerEvents=1;fontSize=16;sketch=1;hachureGap=4;jiggle=2;curveFitting=1;fontFamily=Architects Daughter;fontSource=https%3A%2F%2Ffonts.googleapis.com%2Fcss%3Ffamily%3DArchitects%2BDaughter;" parent="yj06wGerMoeoNLlN-An6-28" vertex="1">
          <mxGeometry x="178" width="177" height="120" as="geometry">
            <mxRectangle width="177" height="120" as="alternateBounds" />
          </mxGeometry>
        </mxCell>
        <mxCell id="yj06wGerMoeoNLlN-An6-29" value="تامین کننده" style="shape=partialRectangle;html=1;whiteSpace=wrap;connectable=0;strokeColor=inherit;overflow=hidden;fillColor=none;top=0;left=0;bottom=0;right=0;pointerEvents=1;fontSize=16;sketch=1;hachureGap=4;jiggle=2;curveFitting=1;fontFamily=Architects Daughter;fontSource=https%3A%2F%2Ffonts.googleapis.com%2Fcss%3Ffamily%3DArchitects%2BDaughter;" parent="yj06wGerMoeoNLlN-An6-28" vertex="1">
          <mxGeometry x="355" width="178" height="120" as="geometry">
            <mxRectangle width="178" height="120" as="alternateBounds" />
          </mxGeometry>
        </mxCell>
        <mxCell id="yj06wGerMoeoNLlN-An6-30" value="نام کالا" style="shape=partialRectangle;html=1;whiteSpace=wrap;connectable=0;strokeColor=inherit;overflow=hidden;fillColor=none;top=0;left=0;bottom=0;right=0;pointerEvents=1;fontSize=16;sketch=1;hachureGap=4;jiggle=2;curveFitting=1;fontFamily=Architects Daughter;fontSource=https%3A%2F%2Ffonts.googleapis.com%2Fcss%3Ffamily%3DArchitects%2BDaughter;" parent="yj06wGerMoeoNLlN-An6-28" vertex="1">
          <mxGeometry x="533" width="177" height="120" as="geometry">
            <mxRectangle width="177" height="120" as="alternateBounds" />
          </mxGeometry>
        </mxCell>
        <mxCell id="yj06wGerMoeoNLlN-An6-32" value="" style="shape=tableRow;horizontal=0;startSize=0;swimlaneHead=0;swimlaneBody=0;strokeColor=inherit;top=0;left=0;bottom=0;right=0;collapsible=0;dropTarget=0;fillColor=none;points=[[0,0.5],[1,0.5]];portConstraint=eastwest;fontSize=16;sketch=1;hachureGap=4;jiggle=2;curveFitting=1;fontFamily=Architects Daughter;fontSource=https%3A%2F%2Ffonts.googleapis.com%2Fcss%3Ffamily%3DArchitects%2BDaughter;" parent="yj06wGerMoeoNLlN-An6-27" vertex="1">
          <mxGeometry y="150" width="710" height="120" as="geometry" />
        </mxCell>
        <mxCell id="yj06wGerMoeoNLlN-An6-44" style="shape=partialRectangle;html=1;whiteSpace=wrap;connectable=0;strokeColor=inherit;overflow=hidden;fillColor=none;top=0;left=0;bottom=0;right=0;pointerEvents=1;fontSize=16;sketch=1;hachureGap=4;jiggle=2;curveFitting=1;fontFamily=Architects Daughter;fontSource=https%3A%2F%2Ffonts.googleapis.com%2Fcss%3Ffamily%3DArchitects%2BDaughter;" parent="yj06wGerMoeoNLlN-An6-32" vertex="1">
          <mxGeometry width="178" height="120" as="geometry">
            <mxRectangle width="178" height="120" as="alternateBounds" />
          </mxGeometry>
        </mxCell>
        <mxCell id="yj06wGerMoeoNLlN-An6-41" style="shape=partialRectangle;html=1;whiteSpace=wrap;connectable=0;strokeColor=inherit;overflow=hidden;fillColor=none;top=0;left=0;bottom=0;right=0;pointerEvents=1;fontSize=16;sketch=1;hachureGap=4;jiggle=2;curveFitting=1;fontFamily=Architects Daughter;fontSource=https%3A%2F%2Ffonts.googleapis.com%2Fcss%3Ffamily%3DArchitects%2BDaughter;" parent="yj06wGerMoeoNLlN-An6-32" vertex="1">
          <mxGeometry x="178" width="177" height="120" as="geometry">
            <mxRectangle width="177" height="120" as="alternateBounds" />
          </mxGeometry>
        </mxCell>
        <mxCell id="yj06wGerMoeoNLlN-An6-33" value="" style="shape=partialRectangle;html=1;whiteSpace=wrap;connectable=0;strokeColor=inherit;overflow=hidden;fillColor=none;top=0;left=0;bottom=0;right=0;pointerEvents=1;fontSize=16;sketch=1;hachureGap=4;jiggle=2;curveFitting=1;fontFamily=Architects Daughter;fontSource=https%3A%2F%2Ffonts.googleapis.com%2Fcss%3Ffamily%3DArchitects%2BDaughter;" parent="yj06wGerMoeoNLlN-An6-32" vertex="1">
          <mxGeometry x="355" width="178" height="120" as="geometry">
            <mxRectangle width="178" height="120" as="alternateBounds" />
          </mxGeometry>
        </mxCell>
        <mxCell id="yj06wGerMoeoNLlN-An6-34" value="" style="shape=partialRectangle;html=1;whiteSpace=wrap;connectable=0;strokeColor=inherit;overflow=hidden;fillColor=none;top=0;left=0;bottom=0;right=0;pointerEvents=1;fontSize=16;sketch=1;hachureGap=4;jiggle=2;curveFitting=1;fontFamily=Architects Daughter;fontSource=https%3A%2F%2Ffonts.googleapis.com%2Fcss%3Ffamily%3DArchitects%2BDaughter;" parent="yj06wGerMoeoNLlN-An6-32" vertex="1">
          <mxGeometry x="533" width="177" height="120" as="geometry">
            <mxRectangle width="177" height="120" as="alternateBounds" />
          </mxGeometry>
        </mxCell>
        <mxCell id="yj06wGerMoeoNLlN-An6-36" value="" style="shape=tableRow;horizontal=0;startSize=0;swimlaneHead=0;swimlaneBody=0;strokeColor=inherit;top=0;left=0;bottom=0;right=0;collapsible=0;dropTarget=0;fillColor=none;points=[[0,0.5],[1,0.5]];portConstraint=eastwest;fontSize=16;sketch=1;hachureGap=4;jiggle=2;curveFitting=1;fontFamily=Architects Daughter;fontSource=https%3A%2F%2Ffonts.googleapis.com%2Fcss%3Ffamily%3DArchitects%2BDaughter;" parent="yj06wGerMoeoNLlN-An6-27" vertex="1">
          <mxGeometry y="270" width="710" height="120" as="geometry" />
        </mxCell>
        <mxCell id="yj06wGerMoeoNLlN-An6-45" style="shape=partialRectangle;html=1;whiteSpace=wrap;connectable=0;strokeColor=inherit;overflow=hidden;fillColor=none;top=0;left=0;bottom=0;right=0;pointerEvents=1;fontSize=16;sketch=1;hachureGap=4;jiggle=2;curveFitting=1;fontFamily=Architects Daughter;fontSource=https%3A%2F%2Ffonts.googleapis.com%2Fcss%3Ffamily%3DArchitects%2BDaughter;" parent="yj06wGerMoeoNLlN-An6-36" vertex="1">
          <mxGeometry width="178" height="120" as="geometry">
            <mxRectangle width="178" height="120" as="alternateBounds" />
          </mxGeometry>
        </mxCell>
        <mxCell id="yj06wGerMoeoNLlN-An6-42" style="shape=partialRectangle;html=1;whiteSpace=wrap;connectable=0;strokeColor=inherit;overflow=hidden;fillColor=none;top=0;left=0;bottom=0;right=0;pointerEvents=1;fontSize=16;sketch=1;hachureGap=4;jiggle=2;curveFitting=1;fontFamily=Architects Daughter;fontSource=https%3A%2F%2Ffonts.googleapis.com%2Fcss%3Ffamily%3DArchitects%2BDaughter;" parent="yj06wGerMoeoNLlN-An6-36" vertex="1">
          <mxGeometry x="178" width="177" height="120" as="geometry">
            <mxRectangle width="177" height="120" as="alternateBounds" />
          </mxGeometry>
        </mxCell>
        <mxCell id="yj06wGerMoeoNLlN-An6-37" value="" style="shape=partialRectangle;html=1;whiteSpace=wrap;connectable=0;strokeColor=inherit;overflow=hidden;fillColor=none;top=0;left=0;bottom=0;right=0;pointerEvents=1;fontSize=16;sketch=1;hachureGap=4;jiggle=2;curveFitting=1;fontFamily=Architects Daughter;fontSource=https%3A%2F%2Ffonts.googleapis.com%2Fcss%3Ffamily%3DArchitects%2BDaughter;" parent="yj06wGerMoeoNLlN-An6-36" vertex="1">
          <mxGeometry x="355" width="178" height="120" as="geometry">
            <mxRectangle width="178" height="120" as="alternateBounds" />
          </mxGeometry>
        </mxCell>
        <mxCell id="yj06wGerMoeoNLlN-An6-38" value="" style="shape=partialRectangle;html=1;whiteSpace=wrap;connectable=0;strokeColor=inherit;overflow=hidden;fillColor=none;top=0;left=0;bottom=0;right=0;pointerEvents=1;fontSize=16;sketch=1;hachureGap=4;jiggle=2;curveFitting=1;fontFamily=Architects Daughter;fontSource=https%3A%2F%2Ffonts.googleapis.com%2Fcss%3Ffamily%3DArchitects%2BDaughter;" parent="yj06wGerMoeoNLlN-An6-36" vertex="1">
          <mxGeometry x="533" width="177" height="120" as="geometry">
            <mxRectangle width="177" height="120" as="alternateBounds" />
          </mxGeometry>
        </mxCell>
        <mxCell id="FrmnJIns1QCLItdqRtZu-1" value="تامین کننده ها" style="shape=umlFrame;whiteSpace=wrap;html=1;pointerEvents=0;sketch=1;hachureGap=4;jiggle=2;curveFitting=1;fontFamily=Architects Daughter;fontSource=https%3A%2F%2Ffonts.googleapis.com%2Fcss%3Ffamily%3DArchitects%2BDaughter;fontSize=50;width=740;height=80;" parent="1" vertex="1">
          <mxGeometry x="1330" width="350" height="570" as="geometry" />
        </mxCell>
        <mxCell id="FrmnJIns1QCLItdqRtZu-3" value=" لیست تامین کننده های تعریف شده با قابلیت انتخاب" style="shape=table;startSize=30;container=1;collapsible=0;childLayout=tableLayout;strokeColor=default;fontSize=16;sketch=1;hachureGap=4;jiggle=2;curveFitting=1;fontFamily=Architects Daughter;fontSource=https%3A%2F%2Ffonts.googleapis.com%2Fcss%3Ffamily%3DArchitects%2BDaughter;" parent="1" vertex="1">
          <mxGeometry x="1335" y="210" width="335" height="350" as="geometry" />
        </mxCell>
        <mxCell id="FrmnJIns1QCLItdqRtZu-4" value="" style="shape=tableRow;horizontal=0;startSize=0;swimlaneHead=0;swimlaneBody=0;strokeColor=inherit;top=0;left=0;bottom=0;right=0;collapsible=0;dropTarget=0;fillColor=none;points=[[0,0.5],[1,0.5]];portConstraint=eastwest;fontSize=16;sketch=1;hachureGap=4;jiggle=2;curveFitting=1;fontFamily=Architects Daughter;fontSource=https%3A%2F%2Ffonts.googleapis.com%2Fcss%3Ffamily%3DArchitects%2BDaughter;" parent="FrmnJIns1QCLItdqRtZu-3" vertex="1">
          <mxGeometry y="30" width="335" height="107" as="geometry" />
        </mxCell>
        <mxCell id="FrmnJIns1QCLItdqRtZu-5" value="نام تامین کننده" style="shape=partialRectangle;html=1;whiteSpace=wrap;connectable=0;strokeColor=inherit;overflow=hidden;fillColor=none;top=0;left=0;bottom=0;right=0;pointerEvents=1;fontSize=16;sketch=1;hachureGap=4;jiggle=2;curveFitting=1;fontFamily=Architects Daughter;fontSource=https%3A%2F%2Ffonts.googleapis.com%2Fcss%3Ffamily%3DArchitects%2BDaughter;" parent="FrmnJIns1QCLItdqRtZu-4" vertex="1">
          <mxGeometry width="335" height="107" as="geometry">
            <mxRectangle width="335" height="107" as="alternateBounds" />
          </mxGeometry>
        </mxCell>
        <mxCell id="FrmnJIns1QCLItdqRtZu-8" value="" style="shape=tableRow;horizontal=0;startSize=0;swimlaneHead=0;swimlaneBody=0;strokeColor=inherit;top=0;left=0;bottom=0;right=0;collapsible=0;dropTarget=0;fillColor=none;points=[[0,0.5],[1,0.5]];portConstraint=eastwest;fontSize=16;sketch=1;hachureGap=4;jiggle=2;curveFitting=1;fontFamily=Architects Daughter;fontSource=https%3A%2F%2Ffonts.googleapis.com%2Fcss%3Ffamily%3DArchitects%2BDaughter;" parent="FrmnJIns1QCLItdqRtZu-3" vertex="1">
          <mxGeometry y="137" width="335" height="106" as="geometry" />
        </mxCell>
        <mxCell id="FrmnJIns1QCLItdqRtZu-9" style="shape=partialRectangle;html=1;whiteSpace=wrap;connectable=0;strokeColor=inherit;overflow=hidden;fillColor=none;top=0;left=0;bottom=0;right=0;pointerEvents=1;fontSize=16;sketch=1;hachureGap=4;jiggle=2;curveFitting=1;fontFamily=Architects Daughter;fontSource=https%3A%2F%2Ffonts.googleapis.com%2Fcss%3Ffamily%3DArchitects%2BDaughter;" parent="FrmnJIns1QCLItdqRtZu-8" vertex="1">
          <mxGeometry width="335" height="106" as="geometry">
            <mxRectangle width="335" height="106" as="alternateBounds" />
          </mxGeometry>
        </mxCell>
        <mxCell id="FrmnJIns1QCLItdqRtZu-12" value="" style="shape=tableRow;horizontal=0;startSize=0;swimlaneHead=0;swimlaneBody=0;strokeColor=inherit;top=0;left=0;bottom=0;right=0;collapsible=0;dropTarget=0;fillColor=none;points=[[0,0.5],[1,0.5]];portConstraint=eastwest;fontSize=16;sketch=1;hachureGap=4;jiggle=2;curveFitting=1;fontFamily=Architects Daughter;fontSource=https%3A%2F%2Ffonts.googleapis.com%2Fcss%3Ffamily%3DArchitects%2BDaughter;" parent="FrmnJIns1QCLItdqRtZu-3" vertex="1">
          <mxGeometry y="243" width="335" height="107" as="geometry" />
        </mxCell>
        <mxCell id="FrmnJIns1QCLItdqRtZu-13" style="shape=partialRectangle;html=1;whiteSpace=wrap;connectable=0;strokeColor=inherit;overflow=hidden;fillColor=none;top=0;left=0;bottom=0;right=0;pointerEvents=1;fontSize=16;sketch=1;hachureGap=4;jiggle=2;curveFitting=1;fontFamily=Architects Daughter;fontSource=https%3A%2F%2Ffonts.googleapis.com%2Fcss%3Ffamily%3DArchitects%2BDaughter;" parent="FrmnJIns1QCLItdqRtZu-12" vertex="1">
          <mxGeometry width="335" height="107" as="geometry">
            <mxRectangle width="335" height="107" as="alternateBounds" />
          </mxGeometry>
        </mxCell>
        <mxCell id="z1qtBpSUgBSeH7LBYNiq-1" value="آدرس منبع مربوط به سایت" style="rounded=0;whiteSpace=wrap;html=1;sketch=1;hachureGap=4;jiggle=2;curveFitting=1;fontFamily=Architects Daughter;fontSource=https%3A%2F%2Ffonts.googleapis.com%2Fcss%3Ffamily%3DArchitects%2BDaughter;fontSize=20;verticalAlign=top;" parent="1" vertex="1">
          <mxGeometry x="960" y="220" width="330" height="35.46" as="geometry" />
        </mxCell>
        <mxCell id="z1qtBpSUgBSeH7LBYNiq-5" value="نام تامین کننده" style="strokeWidth=1;shadow=0;dashed=0;align=right;html=1;shape=mxgraph.mockup.text.textBox;fontColor=#666666;align=left;fontSize=17;spacingLeft=4;spacingTop=-3;whiteSpace=wrap;strokeColor=#666666;mainText=;sketch=1;hachureGap=4;jiggle=2;curveFitting=1;fontFamily=Architects Daughter;fontSource=https%3A%2F%2Ffonts.googleapis.com%2Fcss%3Ffamily%3DArchitects%2BDaughter;" parent="1" vertex="1">
          <mxGeometry x="1340" y="90" width="330" height="30" as="geometry" />
        </mxCell>
        <mxCell id="z1qtBpSUgBSeH7LBYNiq-6" value="جدید" style="labelPosition=center;verticalLabelPosition=middle;align=center;html=1;shape=mxgraph.basic.button;dx=10;whiteSpace=wrap;sketch=1;hachureGap=4;jiggle=2;curveFitting=1;fontFamily=Architects Daughter;fontSource=https%3A%2F%2Ffonts.googleapis.com%2Fcss%3Ffamily%3DArchitects%2BDaughter;fontSize=20;" parent="1" vertex="1">
          <mxGeometry x="1590" y="150" width="80" height="50" as="geometry" />
        </mxCell>
        <mxCell id="z1qtBpSUgBSeH7LBYNiq-7" value="حذف" style="labelPosition=center;verticalLabelPosition=middle;align=center;html=1;shape=mxgraph.basic.button;dx=10;whiteSpace=wrap;sketch=1;hachureGap=4;jiggle=2;curveFitting=1;fontFamily=Architects Daughter;fontSource=https%3A%2F%2Ffonts.googleapis.com%2Fcss%3Ffamily%3DArchitects%2BDaughter;fontSize=20;" parent="1" vertex="1">
          <mxGeometry x="1340" y="150" width="80" height="50" as="geometry" />
        </mxCell>
        <mxCell id="z1qtBpSUgBSeH7LBYNiq-8" value="به روز رسانی" style="labelPosition=center;verticalLabelPosition=middle;align=center;html=1;shape=mxgraph.basic.button;dx=10;whiteSpace=wrap;sketch=1;hachureGap=4;jiggle=2;curveFitting=1;fontFamily=Architects Daughter;fontSource=https%3A%2F%2Ffonts.googleapis.com%2Fcss%3Ffamily%3DArchitects%2BDaughter;fontSize=20;" parent="1" vertex="1">
          <mxGeometry x="1425" y="150" width="160" height="50" as="geometry" />
        </mxCell>
        <mxCell id="z1qtBpSUgBSeH7LBYNiq-9" value="ثبت" style="labelPosition=center;verticalLabelPosition=middle;align=center;html=1;shape=mxgraph.basic.button;dx=10;whiteSpace=wrap;sketch=1;hachureGap=4;jiggle=2;curveFitting=1;fontFamily=Architects Daughter;fontSource=https%3A%2F%2Ffonts.googleapis.com%2Fcss%3Ffamily%3DArchitects%2BDaughter;fontSize=20;" parent="1" vertex="1">
          <mxGeometry x="1200" y="520" width="90" height="36.08" as="geometry" />
        </mxCell>
        <mxCell id="w5AiUb1FzcbEbxO-17uy-1" value="داشبورد" style="shape=umlFrame;whiteSpace=wrap;html=1;pointerEvents=0;sketch=1;hachureGap=4;jiggle=2;curveFitting=1;fontFamily=Architects Daughter;fontSource=https%3A%2F%2Ffonts.googleapis.com%2Fcss%3Ffamily%3DArchitects%2BDaughter;fontSize=50;width=530;height=80;" vertex="1" parent="1">
          <mxGeometry x="40" y="1770" width="530" height="480" as="geometry" />
        </mxCell>
        <mxCell id="w5AiUb1FzcbEbxO-17uy-3" value="تعریف کالا" style="rounded=1;whiteSpace=wrap;html=1;sketch=1;hachureGap=4;jiggle=2;curveFitting=1;fontFamily=Architects Daughter;fontSource=https%3A%2F%2Ffonts.googleapis.com%2Fcss%3Ffamily%3DArchitects%2BDaughter;fontSize=20;" vertex="1" parent="1">
          <mxGeometry x="440" y="1910" width="120" height="40" as="geometry" />
        </mxCell>
        <mxCell id="w5AiUb1FzcbEbxO-17uy-4" value="گزارشات" style="rounded=1;whiteSpace=wrap;html=1;sketch=1;hachureGap=4;jiggle=2;curveFitting=1;fontFamily=Architects Daughter;fontSource=https%3A%2F%2Ffonts.googleapis.com%2Fcss%3Ffamily%3DArchitects%2BDaughter;fontSize=20;" vertex="1" parent="1">
          <mxGeometry x="440" y="1960" width="120" height="40" as="geometry" />
        </mxCell>
        <mxCell id="w5AiUb1FzcbEbxO-17uy-10" value="" style="rounded=0;whiteSpace=wrap;html=1;fillColor=none;strokeColor=#d3d3d3;strokeWidth=2;" vertex="1" parent="1">
          <mxGeometry x="50" y="1860" width="380" height="380" as="geometry" />
        </mxCell>
        <mxCell id="w5AiUb1FzcbEbxO-17uy-13" value="تعریف تامین کننده" style="rounded=1;whiteSpace=wrap;html=1;sketch=1;hachureGap=4;jiggle=2;curveFitting=1;fontFamily=Architects Daughter;fontSource=https%3A%2F%2Ffonts.googleapis.com%2Fcss%3Ffamily%3DArchitects%2BDaughter;fontSize=18;" vertex="1" parent="1">
          <mxGeometry x="440" y="1860" width="120" height="40" as="geometry" />
        </mxCell>
        <mxCell id="w5AiUb1FzcbEbxO-17uy-15" value="تنظیمات" style="rounded=1;whiteSpace=wrap;html=1;sketch=1;hachureGap=4;jiggle=2;curveFitting=1;fontFamily=Architects Daughter;fontSource=https%3A%2F%2Ffonts.googleapis.com%2Fcss%3Ffamily%3DArchitects%2BDaughter;fontSize=20;" vertex="1" parent="1">
          <mxGeometry x="440" y="2010" width="120" height="40" as="geometry" />
        </mxCell>
        <mxCell id="w5AiUb1FzcbEbxO-17uy-16" value="بعد از کلیک بر روی هر گزینه ، صفحه در قسمت اصلی نمایان شده و صفحه قبلی را در حافظه ذخیره میکند" style="rounded=1;whiteSpace=wrap;html=1;sketch=1;hachureGap=4;jiggle=2;curveFitting=1;fontFamily=Architects Daughter;fontSource=https%3A%2F%2Ffonts.googleapis.com%2Fcss%3Ffamily%3DArchitects%2BDaughter;fontSize=18;" vertex="1" parent="1">
          <mxGeometry x="-240" y="1770" width="270" height="480" as="geometry" />
        </mxCell>
        <mxCell id="w5AiUb1FzcbEbxO-17uy-18" value="" style="shape=stencil(7VnLchs3EPwaXqcADAaPs+P8h6osR6zIkktWEvvvPWsWVotebtM+5eIbuZwmMJieRgN70ndfHu4+359S+PL68vz3/X/nD68PJ/3jlNL56eH+5fzqn076/qTvPj6/3P/18vzP04fL9893S+Ty6dPzv8s/fL3gooS6gFL4dnnQTUL78eTPS/zj+WkTXyWWOT6IpeP4GCXPA7QiNRNAEbMZkETJCGn9eQBqlRQJoEmdp1SjaD8GqIm1CVCy9HoMyAlzsCaJAbrkeVktipVjgJm0eUrZJNkxoERpeQJol0TqUKqozgCVrIQZnvQ8gpOlk8J5mYAaXkoj3HMihDnpWKWQHJqvUp8BKhoIoCGgS2HxSeIc3yiTPGWNEN/4mgacj5IV8qJBDbp0VmRnxdw7MUjhNIp5B2AjBEmKAFZk8wwrAhIDNDFco0pSMGelQXwgGXh8nlnXJJJetlV9VnmhcmQ7SS2SCOc8HvTObsWXeX3yrfVM8/p43xNOe3yHNpbGpMvL0yE+M8o5wRrEMy0tPn/gtGRS37pKwlt8JPWqbdBrxPsEyXxalhAhPpGeb6skvMUHUt+epDeIZ/PvXdqcrw0CXt+Qwzr+RlSIrvc2xl8XNI/t7TrAULVi4yMkqfMSOUcbATSf8ZyC5xAJqVvFnNW3fFY1xRGyWys2JWflTNNcB1GuA7wMYCp892GbRx8WYgXoaI1DZs+daZmbwYrbhwMKG2H1fhtAZSPY6K0NwIhaVP+/hEl3DoBKOyAwgIrBlCKlhgNgA7EwJnkEgFVyf3gjafBquVFX7ssawT5WqaRF67onbQDKpuSbXt8BuKxiDpXqqtMb9llPmpkjBzTDZVWm3GFs9JvCGROBgO7IqcEOOz6lCi2ahrE/AoAFdrZSB9nQXXgDZd7TMSCgsjqUoXNbEWAAuwJgYuz0hkp70rTSulMNfoZcWnTX01Rbdejchks3ROAXAbZroEz3h0WM51XSeoveBY6EnjTpad/jdG6gxTowQEEuxT6yOvQ+AMjUnHRnP1wvjAdHRiAmiI/syOlUVohna+r9mfH/6RlYUZP4gdPNLRTZT0eBueHfB7bfB7b9gW2e//98YItDzN/i6SVHwZ5Jo6mv95g7begZKdzrgP2K1BC6k4cDcBgEP1JFcM2B1qvHUf6fm08veKdbqEXw0xRcDUalouUiCrtlrJQRzVAilhKwe7WAsus5UPe4O0L6XsasWg27pinj7u866/IgzdqVafD8qM0qWOZGzzq2u8g2o5tTNqyDt1InAG27i+w2an8dELHVfKEZV13aDPY/rzQpnBsCaDZvD3Zec0MAI3h/sJPIzvV3fnmv+Hagd3oVr0ikvo54fYlQ3TcXLAcAMFE+QCc1iLs74E77P6IdXxIm7R9223entwTeafDKqI0ZHsQHiK/UKe+vpyo1mQGPUC6YzBEFNOKLwNL5gHYt91ukvr/6Cu52vH94e9/38fz4eHlduP0d3w/6o8u7RX3/HQ==);lineShape=1;strokeColor=default;" vertex="1" parent="1">
          <mxGeometry x="577.16092575213" y="1793.3505981829858" width="103.47830804136038" height="92.8069136505773" as="geometry" />
        </mxCell>
        <mxCell id="w5AiUb1FzcbEbxO-17uy-20" value="" style="shape=stencil(7VlJchQxEHzNXBVSaT+z/IMIDJ7A2IQx2+8pMajdSo2ywzcO3Mbtym6plJW16ORffb199+XmJPbr0+PDp5sf5/dPtyf/+iRyvr+9eTw/6a+Tf3Pyrz48PN58fHz4dv/+8veXd82y/fr88L294ecF50yMDST21+VB8MbXP0/eXuzvzvc7+2jyZJ9kbe+sCWkEBBMzAXhTJ0D1BFCM8yMgmujWABGT8ghIRhggGz8BalgDvBgBQDaZeMnrF9wIKEbKGhDEBEFATASQu9d3gGzJQYvJYQKQJcVibEJAIQeXvIl1AhBqpGr8tKRCyJqjcZOXKtl0sSb5CUCoUTaq7b1ENl2qSRPAkj1UZWuZyEf2UJ0Jo5d8pSddspHRS94bxzbtjYwnrRFCvWRxSRIoIGu4jF7SoPWEfDkgvVUWCtl0dsglF6jwKflA+ZwYS0RAAQIAR92adMUjoFInqX0cmaEPyJbVPozvVyIRnzb70aexi87KPo3v91S41R6UXvqGVg4NdnRozy0r+zoGs6WpKlsT0d6R9SuFXAJ7yymXK9j/Zch1e8G0Y00h+1W1Az0V6v9cMIxj16brUawhM/qndsW/bh96RtpFTCUhVrYkuQEy/UKd5Fq2M7kOUGEDF0VjiY9qNH5ckgYZy+S1GA9BEKlcO7uxZldSFXIOtSIvogLYmlLXhS3wt7JvlXOAqSnzFFKwWFBBPuAGaIXmCGFfcJjKNfXSaChdbDe26itYeGpWA3rX/s1VfEINpgBWv6gAQEAooDIFsL2W2AE8yTkKsLCkwnNORWooWQ7SoIwnXTVvchUGlVF2CUsjFVsSDXNWnrdNj2xVOkbupTJSo2wV/urgkK3JFPYFzWSCACZ9Sj7QGV0Si2kF1FEEtLIUpvYBs6fGg31RSdXUk3kpYKun6ils06EvYANkftLeBADwalvPIcOmtf5mS3JYg+30eUWmWqdP8DIDdaYc1T3APnWT5UHtLR6EJTrTYhRkg5cOrRQDgO2OWwEK1KqVLqkVYxBymZ/cNQDLWa05hCVZrgJTvaSvYAVcEVTj5mhy0prSKgA81fsylbgx0XNoITx+Ibreaq0KINh0yFRn9AsVyhnLyxnbhW6rmAKd36i6A/m87exauTVB1cd1pgh2VtrKJFZs1J40N8ABl9LUy2S66ewxZ7lIC6b//er/fvUf71elzxOf/cMGjKq24M/YR2MrvcY02ENiNaUC9W39KjmA4vuIaQOkXh0vJ20j44T3JKrvUFJJoHOw6tCnUigptHq3o6604TWT64RjXn+QcvI0DOc9iaYcjGOhs21NOZBnYzhya54ATN/bmDcigLV68yA5Rqq+86g6HtZsMMBsACYvHuW3AV400FcAc2u7Mpg2zTrodikRJwDxUtimwHsAobefZtsH56Dsx3MItMV4LiV2ANb1tKwBMsbHN1oZ1IgATwLIeUz9UWgp7Cw29VoVsqFVxBs0tWetoZsimrcLDmc3as+qVP3v9H5WfllcT6i0n5/8o/aOrN9iYxu2seDKHmrm3Fe4sodLpEQvVS36M0RKCNsZvNkHmgltn7fs7IVoke3e3o08M+UPjG3Vnvnnpbfax/b64/kK/cP57u5yA7//P16566PLdb1/8xs=);lineShape=1;strokeColor=default;" vertex="1" parent="1">
          <mxGeometry x="575.4528867069339" y="1896.3466721334748" width="168.7814882479908" height="68.59398280095206" as="geometry" />
        </mxCell>
        <mxCell id="w5AiUb1FzcbEbxO-17uy-25" value="" style="shape=stencil(7VnLchw3DPyavaIIgs+zY/+HqixHW1Eklywn9t+7x1ucLMHdtrYqR9+kWfaQABtAA3Owd18e7j7fH2L48vry/Nf9v8ePrw8H++MQ4/Hp4f7l+Iq/Dvb+YO8+Pb/c//ny/PXp4+n/z3fbyu2vv5//2d7w7YSLYmEDxfD99CCI1Z8PPpyWPx6fzpYXaTotz6J6fbma1DqtV5VG3q9dUp8BVTReB+BEZTYgYs9wHWBJ+gwwFSM7pCQhzoAunRidTUqaAKmPV1x2qomW2auNurWq9DwBSpGcCKBLnt1aTRrxUsvS54vDKxo5Ug/SZy81k14IIInNRm97GgHs79sBKonY0KOnRi30HjYbZkCB34gNDfc6H2m7ykYAVeJ8cblKIvEAn7T5SGCXdgpwAZ11xOA1gNoMgBv4DqF6gN60A+LBCFs3G+Yskxq/h+zpnao0dg8LvQFgSaAVSe5IRTqzoXguAVAZoA4yvx3Q+k1HasPr50aTiAOg6k1uRTw4G3BxhBqIuDxnjS15shCNI752QJfIsgay92w0UmVkiSz7RIZUmTMBVF/jWpDKAH1QbQdUeiQNwfsVfuhsiz1edgBOSYK6LyF3tullhEqcHQu7KiNHGVVzB7SRoC8Doq8QMCIQI2r1fIVZ5Rd11AEgHlilhhjJ/iIYX1EP+gIw4iUArHmAkqgucYTkDlB+pCjZGR2kkewKgOMG4pwlGgDinJmQSZgWACAVDwgkqjej3ZHqoOM1t8bZS6BjYUIX+ih7AL24JCl5AJMnAPTuASzhlywpe6ONZAEAfGZqtFID0JebZuobgOZCFFqAGY2ANA9gagMAn2aUh2gaP58FUOT3sMa0sSPZklyxA6O3DTKf2dB4iJboAcrjwbJ3Kz0STuyo0UfQXt1hiWkmHjYb3A5QODzzqSMfuk22A6TCEqKJBVDyXNpimnnpZkD1QnSreqxkRd/vwkusste2tE19KP7LVdS8XAc1aMtRh9x5Y0HBz3lRJ5kB8mD/mQ3sSBd6RaP07gtb0fqxJACf2ByiaP2Y1tjYP9tQeNbY6s0MyGXIld+d3P/cybGm5ncn9xa33trJbVnIzbACnWEh4ooDJEqNvojEEoYgupo1ZrciPdOWpozRylnrV9iR6lKBAtWt2KEtZZcN7tCPpEUvMQDeVxdl3EkybmmxgRuNChTne0DfRQFhNGE7IHCBpb4+4Ekn5MvLFBtP2Ig2QZzM7UAyqjXMBvv3IXCmeilm76VY6Vxa22jzdoDSSZ9GnwQ0U+mQveSD4iPECEvKoCogeKIm2pCFMfHY/SmVcCj4QavRickyL4l0DhC8Po8S6HJ3U0pl5yItAp1zB18Bw+jXryzv/gMOEzrqB9A8YakXLXwopL4YB/7x5raPT79cjj/++8716fj4ePpMdv67/y6GR6dvavb+Bw==);lineShape=1;strokeColor=default;" vertex="1" parent="1">
          <mxGeometry x="583.9775669895266" y="1976.3144580681756" width="156.50829458723706" height="94.35398616761442" as="geometry" />
        </mxCell>
        <mxCell id="w5AiUb1FzcbEbxO-17uy-26" value="" style="shape=stencil(7VnJbtswEP0aXwfD4X5O0/8IEKcxmsaBk25/32ENyuJIeoEL9Jab4vCJs75ZtPM3r493L/ud8Ovb6fh1//Nw//a48592Iofnx/3p8KZPO3+78zcPx9P+y+n4/fn+/PfLXTvZnr4df7Q3/DrjPLnYQMK/zz8wxfz3h8/n40+H59nxTCUNxyPlsH3cOUoynK8UEzifyLvhvAvkyjZAhByPgEo5AkChmgeAJHJ+G+ATxVEk74mBSCFQGEUKTB4YKQolPwIyVQBITGUExEipAkChWAZA8iQC3KzvG3XITA7ERXELQCIBni6JwugHfYUHjqtMUkdAJAGOq74LMAFyF3IdoKFmbvBQaQX4Mbpz7cGyBQhjLDVDI6WXACG+SqRUKSArhR4IE6D0HNwEjFZKSgpYB5NACggg+BRQggUwyIcaFyIlykjpSMVZQEQiKS8VCwjISonqdYBMMV4lUumBMFcaWams+IGR40r369xxyKyVOFlAASSgADcSWQs+pHQlGc2qvJTxDWEMjRyIkR+qJeNcOi1sAfIIKNKjawtQDM3kLuR6UWQmHsm1Kt1irctoJo34d7Q2bYDGY8LxbUqQviIiM01UOhXqi1rrFaJ2ep9dIagGBVvaLzmyDmAKI9GoWhmUdmVrWdhVgJku5DsBPGSmFGy8NsMBkbSQmyRVAIMUUoBpsapQRjoIVbEAQSKJzQgNV2TWBogWIICZmkjGD5gGVGnTkykAdRsKsLHEMJbUcYY3NH5hE7coWg2AmrhI1VmRBCTQpeLMABEpPRWQmR8QbSjAjAMKiCi89QZjVoE1qOmQLACVxWalagEFm9WU9pZx6IZAWRYAdEOwZbGlKAJotJaFDsis+j5vAahSt4wzfnBUccZZpd17N9gSxJ1HtnSQaAEBZZxf6MC9im1y60gCLePQDdG2WA2AaOZagHYvsVod0ICsU1VZpGgGsaTNyDL40Lyrg1kyZtWZAnV908ZgVhQDmrOipcrW8aOuL3YmnSuNB4JiPJ3xnBV7NZg1cRWUrCbxqLS2iR4DzLyrjShqHdqcNYqkwVLx+Cpjiv6PSY4t4GOS+5jk5J8mOTbRWns3vqVDXa5C0MRRbHOS8ZasAczoV/EQVCgbmtHKjf0gYz4o2xbMGmadUxmPWdyrwawCIZGUGMtCJDQOqIqmwWrzLuAlNaIzfsgwvPNiVMw67qL5IVlA69HQxrXYwS/m7pl1ANtdYsCbviA2vIM2WGjNHMiZNXPohXh9kZ16ozAtsjOkSrfYbIiDhd35PrVNI3vEyxars3OwIYuWM3Jn/9XjbHNB4HaWexc/SQNTjfukczmOGrHFSsbBZTR3qurHubPZxnGzZ2BIRGwrjpoKyl6sMMiQbikMKjbOkiJe84h1E/dZZuO4KX0qO0hcsTWAYVW68mvYu8f14fLh7eHw9HT+bjf/v/1Qpz+dP/L52z8=);lineShape=1;strokeColor=default;" vertex="1" parent="1">
          <mxGeometry x="587.3197277576332" y="2054.6420839303482" width="135.17320192611277" height="172.65738872729497" as="geometry" />
        </mxCell>
      </root>
    </mxGraphModel>
  </diagram>
</mxfile>
